<svg width="120" height="40" viewBox="0 0 120 40" fill="none" xmlns="http://www.w3.org/2000/svg">
<path d="M110.135 0.00013H9.53468C9.16798 0.00013 8.80568 0.00013 8.43995 0.00213C8.1338 0.00413 7.83009 0.00994 7.521 0.01483C6.84951 0.0227318 6.17961 0.0818063 5.5171 0.19154C4.85552 0.303663 4.21467 0.515046 3.61622 0.81854C3.0185 1.1246 2.47235 1.5223 1.99757 1.9972C1.5203 2.47077 1.12246 3.01815 0.81935 3.61829C0.5154 4.21724 0.304641 4.85907 0.19435 5.52161C0.0830109 6.18332 0.0230984 6.85265 0.01515 7.52361C0.00587 7.83021 0.00489 8.13783 0 8.44447V31.5587C0.00489 31.8692 0.00587 32.17 0.01515 32.4806C0.0231008 33.1516 0.0830134 33.8209 0.19435 34.4825C0.304336 35.1455 0.515108 35.7877 0.81935 36.3868C1.12233 36.985 1.52022 37.5302 1.99757 38.0011C2.47054 38.4781 3.01705 38.8761 3.61622 39.1798C4.21467 39.4841 4.85545 39.6968 5.5171 39.8106C6.17972 39.9195 6.84956 39.9786 7.521 39.9874C7.83009 39.9942 8.1338 39.9981 8.43995 39.9981C8.80567 40.0001 9.168 40.0001 9.53468 40.0001H110.135C110.494 40.0001 110.859 40.0001 111.219 39.9981C111.523 39.9981 111.836 39.9942 112.141 39.9874C112.811 39.9791 113.479 39.92 114.141 39.8106C114.804 39.696 115.448 39.4834 116.049 39.1798C116.647 38.8759 117.193 38.478 117.666 38.0011C118.142 37.5284 118.541 36.9836 118.848 36.3868C119.15 35.7872 119.358 35.1451 119.467 34.4825C119.578 33.8208 119.64 33.1516 119.652 32.4806C119.656 32.17 119.656 31.8692 119.656 31.5587C119.664 31.1954 119.664 30.8341 119.664 30.4649V9.53626C119.664 9.17005 119.664 8.80677 119.656 8.44447C119.656 8.13783 119.656 7.83021 119.652 7.52357C119.64 6.85255 119.578 6.18337 119.467 5.52157C119.358 4.85941 119.149 4.21763 118.848 3.61825C118.23 2.41533 117.252 1.43616 116.049 0.81845C115.448 0.515697 114.804 0.30437 114.141 0.19145C113.48 0.0812328 112.811 0.0221378 112.141 0.01469C111.836 0.00981 111.523 0.00395 111.219 0.002C110.859 0 110.494 0 110.135 0V0.00013Z" fill="#A6A6A6"/>
<path d="M8.44481 39.125C8.14013 39.125 7.84281 39.1211 7.54052 39.1143C6.9143 39.1061 6.28954 39.0516 5.67138 38.9512C5.09497 38.8519 4.53658 38.6673 4.01464 38.4033C3.49748 38.1415 3.02579 37.7983 2.61764 37.3867C2.20358 36.98 1.85885 36.5082 1.59713 35.9902C1.33252 35.4688 1.14939 34.9099 1.05413 34.333C0.95125 33.7131 0.89559 33.0863 0.887626 32.458C0.881286 32.2471 0.872986 31.5449 0.872986 31.5449V8.44434C0.872986 8.44434 0.881826 7.75293 0.887676 7.5498C0.895302 6.92248 0.950638 6.29665 1.05321 5.67773C1.14864 5.09925 1.33191 4.53875 1.59667 4.01563C1.85743 3.49794 2.20024 3.02586 2.61181 2.61768C3.02291 2.20562 3.49611 1.8606 4.01415 1.59521C4.53489 1.33209 5.09222 1.14873 5.66747 1.05127C6.28766 0.949836 6.91459 0.894996 7.54298 0.88721L8.4453 0.875H111.214L112.127 0.8877C112.75 0.895099 113.371 0.94945 113.985 1.05029C114.566 1.14898 115.13 1.33362 115.656 1.59814C116.694 2.13299 117.539 2.97916 118.071 4.01807C118.332 4.53758 118.512 5.09351 118.606 5.66699C118.71 6.29099 118.768 6.92174 118.78 7.5542C118.783 7.8374 118.783 8.1416 118.783 8.44434C118.791 8.81934 118.791 9.17627 118.791 9.53613V30.4648C118.791 30.8281 118.791 31.1826 118.783 31.54C118.783 31.8652 118.783 32.1631 118.779 32.4697C118.768 33.0909 118.71 33.7104 118.608 34.3232C118.515 34.9043 118.333 35.4675 118.068 35.9932C117.805 36.5056 117.462 36.9733 117.053 37.3789C116.644 37.7927 116.172 38.1379 115.653 38.4014C115.128 38.6674 114.566 38.8527 113.985 38.9512C113.367 39.0522 112.742 39.1067 112.116 39.1143C111.823 39.1211 111.517 39.125 111.219 39.125L110.135 39.127L8.44481 39.125Z" fill="#404040"/>
<path d="M24.7689 20.3008C24.7796 19.4662 25.0013 18.6478 25.4134 17.9218C25.8254 17.1959 26.4143 16.5859 27.1254 16.1488C26.6737 15.5036 26.0777 14.9727 25.3849 14.5981C24.6921 14.2236 23.9215 14.0157 23.1343 13.9911C21.455 13.8148 19.8271 14.9959 18.9714 14.9959C18.0991 14.9959 16.7816 14.0086 15.3629 14.0378C14.4452 14.0674 13.5509 14.3343 12.767 14.8123C11.9831 15.2904 11.3364 15.9633 10.89 16.7656C8.95595 20.1141 10.3985 25.0351 12.2511 27.7417C13.178 29.0671 14.2613 30.5475 15.6788 30.495C17.0658 30.4375 17.5839 29.6105 19.2582 29.6105C20.9169 29.6105 21.403 30.495 22.8492 30.4616C24.3376 30.4375 25.2753 29.1304 26.1697 27.7925C26.8357 26.8481 27.3481 25.8044 27.6881 24.7C26.8234 24.3343 26.0855 23.7221 25.5664 22.9398C25.0472 22.1575 24.7699 21.2397 24.7689 20.3008Z" fill="white"/>
<path d="M22.0373 12.2113C22.8488 11.2371 23.2486 9.98494 23.1518 8.7207C21.912 8.85092 20.7667 9.44348 19.9442 10.3803C19.5421 10.838 19.2341 11.3704 19.0378 11.9472C18.8416 12.524 18.7609 13.1337 18.8005 13.7417C19.4206 13.7481 20.0341 13.6137 20.5948 13.3486C21.1555 13.0835 21.6487 12.6946 22.0373 12.2113Z" fill="white"/>
<path d="M42.3022 27.1397H37.5688L36.4321 30.4961H34.4272L38.9106 18.0781H40.9936L45.477 30.4961H43.438L42.3022 27.1397ZM38.0591 25.5908H41.8111L39.9615 20.1436H39.9097L38.0591 25.5908Z" fill="white"/>
<path d="M55.1597 25.9699C55.1597 28.7834 53.6538 30.591 51.3814 30.591C50.8057 30.6211 50.2332 30.4885 49.7294 30.2084C49.2256 29.9283 48.8109 29.5119 48.5327 29.007H48.4897V33.4914H46.6313V21.4426H48.4302V22.9485H48.4644C48.7553 22.446 49.1771 22.0318 49.6847 21.7499C50.1923 21.4681 50.7669 21.3291 51.3472 21.3479C53.645 21.3479 55.1597 23.1643 55.1597 25.9699ZM53.2495 25.9699C53.2495 24.1369 52.3023 22.9319 50.857 22.9319C49.437 22.9319 48.482 24.1623 48.482 25.9699C48.482 27.7942 49.437 29.0158 50.857 29.0158C52.3023 29.0158 53.2495 27.8196 53.2495 25.9699Z" fill="white"/>
<path d="M65.1245 25.9699C65.1245 28.7834 63.6187 30.591 61.3462 30.591C60.7706 30.6211 60.1981 30.4885 59.6943 30.2084C59.1905 29.9283 58.7758 29.5119 58.4976 29.007H58.4546V33.4914H56.5962V21.4426H58.395V22.9484H58.4292C58.7201 22.446 59.1419 22.0318 59.6495 21.7499C60.1571 21.4681 60.7317 21.3291 61.312 21.3479C63.6099 21.3479 65.1245 23.1643 65.1245 25.9699ZM63.2144 25.9699C63.2144 24.1369 62.2671 22.9318 60.8218 22.9318C59.4019 22.9318 58.4468 24.1623 58.4468 25.9699C58.4468 27.7942 59.4019 29.0158 60.8218 29.0158C62.2671 29.0158 63.2144 27.8195 63.2144 25.9699H63.2144Z" fill="white"/>
<path d="M71.7105 27.0362C71.8482 28.2676 73.0445 29.0762 74.6792 29.0762C76.2456 29.0762 77.3726 28.2676 77.3726 27.1572C77.3726 26.1934 76.6929 25.6162 75.0835 25.2207L73.4742 24.833C71.1939 24.2822 70.1353 23.2158 70.1353 21.4854C70.1353 19.3428 72.0025 17.8711 74.6538 17.8711C77.2778 17.8711 79.0767 19.3428 79.1372 21.4854H77.2612C77.1489 20.2461 76.1245 19.4981 74.6274 19.4981C73.1304 19.4981 72.106 20.2549 72.106 21.3565C72.106 22.2344 72.7603 22.751 74.3608 23.1465L75.729 23.4824C78.2769 24.0849 79.3355 25.1084 79.3355 26.9248C79.3355 29.248 77.4849 30.7031 74.5415 30.7031C71.7876 30.7031 69.9282 29.2822 69.8081 27.0361L71.7105 27.0362Z" fill="white"/>
<path d="M83.3462 19.2998V21.4424H85.0679V22.9141H83.3462V27.9053C83.3462 28.6807 83.6909 29.042 84.4477 29.042C84.6521 29.0384 84.8562 29.0241 85.0591 28.999V30.4619C84.7188 30.5255 84.3729 30.5543 84.0268 30.5478C82.1938 30.5478 81.479 29.8593 81.479 28.1035V22.9141H80.1626V21.4424H81.479V19.2998H83.3462Z" fill="white"/>
<path d="M86.065 25.9697C86.065 23.1211 87.7427 21.3311 90.3589 21.3311C92.9839 21.3311 94.6539 23.1211 94.6539 25.9697C94.6539 28.8262 92.9927 30.6084 90.3589 30.6084C87.7261 30.6084 86.065 28.8262 86.065 25.9697ZM92.7603 25.9697C92.7603 24.0156 91.8648 22.8623 90.3589 22.8623C88.8531 22.8623 87.9585 24.0244 87.9585 25.9697C87.9585 27.9316 88.8531 29.0762 90.3589 29.0762C91.8648 29.0762 92.7603 27.9316 92.7603 25.9697H92.7603Z" fill="white"/>
<path d="M96.186 21.4425H97.9585V22.9835H98.0015C98.1214 22.5022 98.4034 22.0769 98.8 21.779C99.1966 21.4811 99.6836 21.3288 100.179 21.3478C100.393 21.347 100.607 21.3703 100.816 21.4171V23.1554C100.546 23.0728 100.264 23.0348 99.981 23.0431C99.711 23.0321 99.4418 23.0797 99.192 23.1826C98.9421 23.2855 98.7175 23.4412 98.5335 23.6391C98.3496 23.837 98.2106 24.0724 98.1262 24.3291C98.0417 24.5857 98.0139 24.8576 98.0444 25.1261V30.4962H96.186L96.186 21.4425Z" fill="white"/>
<path d="M109.384 27.8369C109.134 29.4805 107.534 30.6084 105.486 30.6084C102.852 30.6084 101.217 28.8437 101.217 26.0127C101.217 23.1729 102.861 21.3311 105.408 21.3311C107.913 21.3311 109.488 23.0518 109.488 25.7969V26.4336H103.093V26.5459C103.064 26.8791 103.105 27.2148 103.216 27.5306C103.326 27.8464 103.502 28.1352 103.732 28.3778C103.963 28.6203 104.242 28.8111 104.552 28.9374C104.861 29.0637 105.195 29.1226 105.529 29.1103C105.968 29.1515 106.409 29.0498 106.785 28.8203C107.162 28.5909 107.455 28.246 107.62 27.8369L109.384 27.8369ZM103.102 25.1348H107.628C107.645 24.8352 107.6 24.5354 107.495 24.2541C107.39 23.9729 107.229 23.7164 107.02 23.5006C106.812 23.2849 106.561 23.1145 106.283 23.0003C106.006 22.8861 105.708 22.8305 105.408 22.8369C105.105 22.8351 104.805 22.8933 104.525 23.008C104.245 23.1227 103.99 23.2918 103.776 23.5054C103.562 23.7191 103.392 23.973 103.276 24.2527C103.16 24.5323 103.101 24.8321 103.102 25.1348V25.1348Z" fill="white"/>
<path d="M36.7383 11.2534H37.5361C37.6735 11.2705 37.8129 11.259 37.9455 11.2195C38.0782 11.1801 38.2013 11.1136 38.307 11.0242C38.4127 10.9349 38.4987 10.8246 38.5596 10.7003C38.6206 10.576 38.6552 10.4405 38.6611 10.3022C38.6611 9.75193 38.2471 9.39646 37.5449 9.39646C37.4042 9.3768 37.261 9.38553 37.1237 9.42214C36.9864 9.45875 36.8579 9.52249 36.7456 9.60961C36.6334 9.69672 36.5397 9.80544 36.4702 9.92935C36.4007 10.0533 36.3567 10.1898 36.3408 10.331H35.4648C35.4799 10.0747 35.5476 9.82428 35.6636 9.59527C35.7797 9.36626 35.9417 9.16359 36.1394 8.99989C36.3372 8.83618 36.5666 8.71494 36.8133 8.64372C37.0599 8.5725 37.3186 8.55282 37.5732 8.58591C38.748 8.58591 39.5752 9.24362 39.5752 10.1904C39.578 10.5076 39.4719 10.8161 39.2746 11.0645C39.0773 11.3129 38.8008 11.486 38.4912 11.5551V11.6255C38.8582 11.6417 39.2038 11.8027 39.4525 12.073C39.7012 12.3434 39.8328 12.7013 39.8184 13.0683C39.7912 13.3322 39.7116 13.588 39.5843 13.8208C39.457 14.0535 39.2845 14.2585 39.077 14.4237C38.8694 14.5889 38.631 14.7111 38.3756 14.7829C38.1202 14.8548 37.8531 14.875 37.5898 14.8423C37.326 14.8782 37.0577 14.8607 36.8008 14.7907C36.5439 14.7208 36.3037 14.5998 36.0946 14.4351C35.8854 14.2703 35.7116 14.0651 35.5834 13.8317C35.4553 13.5983 35.3754 13.3415 35.3486 13.0766H36.2383C36.292 13.6474 36.8164 14.0156 37.5898 14.0156C38.3633 14.0156 38.8682 13.6021 38.8682 13.0191C38.8682 12.4277 38.3926 12.0635 37.5615 12.0635H36.7383V11.2534Z" fill="white"/>
<path d="M40.8291 13.4243C40.8291 12.6138 41.4336 12.1465 42.5039 12.0801L43.7236 12.0098V11.6211C43.7236 11.1455 43.4102 10.877 42.8018 10.877C42.3057 10.877 41.9629 11.0591 41.8633 11.3774H41.0029C41.0937 10.604 41.8223 10.1079 42.8438 10.1079C43.9727 10.1079 44.6094 10.6699 44.6094 11.6211V14.6978H43.7529V14.0649H43.6826C43.5399 14.2919 43.3395 14.477 43.1019 14.6012C42.8643 14.7254 42.5979 14.7843 42.3301 14.7719C42.141 14.7916 41.95 14.7714 41.7692 14.7127C41.5885 14.654 41.422 14.5581 41.2806 14.4311C41.1392 14.3042 41.0259 14.149 40.9482 13.9756C40.8704 13.8021 40.8298 13.6144 40.8291 13.4243ZM43.7236 13.0395V12.6631L42.624 12.7334C42.0039 12.7749 41.7226 12.9858 41.7226 13.3828C41.7226 13.7881 42.0742 14.0239 42.5576 14.0239C42.6993 14.0383 42.8423 14.024 42.9784 13.9819C43.1144 13.9398 43.2405 13.8708 43.3493 13.7789C43.4581 13.6871 43.5473 13.5743 43.6116 13.4473C43.6759 13.3202 43.714 13.1816 43.7236 13.0395Z" fill="white"/>
<path d="M46.9678 10.9434V14.6982H46.0791V10.1953H49.044V10.9433L46.9678 10.9434Z" fill="white"/>
<path d="M54.4297 12.4443C54.4297 13.875 53.7061 14.7719 52.5693 14.7719C52.2903 14.791 52.0116 14.7299 51.7661 14.5959C51.5206 14.4619 51.3185 14.2606 51.1836 14.0156H51.1133V16.1948H50.2246V10.1948H51.0801V10.939H51.1465C51.2838 10.6854 51.4886 10.4747 51.7381 10.3302C51.9877 10.1857 52.2723 10.113 52.5606 10.1201C53.7061 10.1201 54.4297 11.0131 54.4297 12.4443ZM53.5156 12.4443C53.5156 11.4931 53.0654 10.9184 52.3125 10.9184C51.5645 10.9184 51.0967 11.5053 51.0967 12.4482C51.0967 13.3867 51.5645 13.9741 52.3086 13.9741C53.0654 13.9741 53.5156 13.3994 53.5156 12.4443Z" fill="white"/>
<path d="M55.6133 16.311V15.5459C55.7095 15.5581 55.8064 15.5637 55.9033 15.5625C56.0927 15.5765 56.2805 15.5201 56.4308 15.4042C56.5811 15.2882 56.6833 15.1208 56.7178 14.9341L56.7842 14.7148L55.1543 10.1953H56.1221L57.251 13.772H57.3213L58.4463 10.1953H59.3887L57.71 14.8843C57.3252 15.98 56.8995 16.3316 55.9815 16.3316C55.9073 16.3315 55.6963 16.3232 55.6133 16.311Z" fill="white"/>
<path d="M60.0811 13.4195H60.9658C61.0527 13.8165 61.4248 14.0235 61.9453 14.0235C62.5371 14.0235 62.9004 13.7628 62.9004 13.3575C62.9004 12.9235 62.5742 12.7164 61.9453 12.7164H61.2715V12.026H61.9336C62.4707 12.026 62.7441 11.8195 62.7441 11.443C62.7441 11.1124 62.4795 10.86 61.9336 10.86C61.4365 10.86 61.0732 11.0709 61.0156 11.4264H60.1592C60.2232 11.0179 60.445 10.6509 60.7768 10.4043C61.1086 10.1577 61.524 10.0511 61.9336 10.1076C63.0039 10.1076 63.6162 10.5914 63.6162 11.3522C63.6212 11.564 63.5533 11.7712 63.4239 11.939C63.2945 12.1068 63.1114 12.2251 62.9053 12.2741V12.3444C63.1507 12.376 63.376 12.4967 63.5384 12.6835C63.7007 12.8702 63.7889 13.1101 63.7861 13.3576C63.7861 14.2136 63.0576 14.7799 61.9453 14.7799C60.9619 14.7799 60.1631 14.3292 60.0811 13.4195Z" fill="white"/>
<path d="M65.0659 14.6982V10.1953H65.9468V13.2925H66.0171L68.0923 10.1953H68.9731V14.6983H68.0923V11.5845H68.0259L65.9468 14.6983L65.0659 14.6982Z" fill="white"/>
<path d="M73.8257 10.9433H72.4077V14.6982H71.518V10.9433H70.1V10.1953H73.8257V10.9433Z" fill="white"/>
<path d="M78.6128 13.4815C78.4917 13.893 78.2299 14.2489 77.8731 14.4871C77.5163 14.7252 77.0872 14.8304 76.6607 14.7843C76.364 14.7921 76.0692 14.7353 75.7967 14.6177C75.5242 14.5002 75.2805 14.3248 75.0826 14.1036C74.8847 13.8825 74.7373 13.621 74.6506 13.3371C74.5639 13.0533 74.54 12.754 74.5806 12.46C74.5411 12.1652 74.5654 11.8652 74.6519 11.5805C74.7384 11.2959 74.885 11.0331 75.0819 10.81C75.2788 10.587 75.5213 10.4088 75.793 10.2876C76.0647 10.1664 76.3593 10.105 76.6568 10.1075C77.9097 10.1075 78.6665 10.9635 78.6665 12.3775V12.6876H75.4869V12.7374C75.4728 12.9027 75.4934 13.0691 75.5475 13.2259C75.6016 13.3827 75.6878 13.5265 75.8008 13.648C75.9137 13.7695 76.0508 13.866 76.2033 13.9313C76.3558 13.9967 76.5202 14.0294 76.6861 14.0274C76.8985 14.0528 77.1137 14.0145 77.3043 13.9173C77.4949 13.8201 77.6522 13.6684 77.7564 13.4815L78.6128 13.4815ZM75.4868 12.0304H77.7603C77.7715 11.8793 77.751 11.7276 77.7001 11.5849C77.6492 11.4422 77.5691 11.3118 77.4648 11.202C77.3605 11.0921 77.2344 11.0053 77.0946 10.9471C76.9547 10.8888 76.8043 10.8605 76.6529 10.8639C76.4991 10.8618 76.3465 10.8905 76.2041 10.9484C76.0616 11.0063 75.9322 11.0921 75.8235 11.2009C75.7148 11.3096 75.629 11.4391 75.5712 11.5815C75.5134 11.724 75.4847 11.8766 75.4869 12.0304H75.4868Z" fill="white"/>
<path d="M82.3804 10.1953H84.4106C85.2915 10.1953 85.8081 10.6416 85.8081 11.3403C85.8095 11.562 85.7347 11.7775 85.5962 11.9506C85.4577 12.1238 85.264 12.2441 85.0474 12.2915V12.3618C85.3103 12.3784 85.5569 12.4954 85.7361 12.6886C85.9153 12.8818 86.0134 13.1364 86.0103 13.3999C86.0103 14.1855 85.4194 14.6982 84.4312 14.6982H82.3804V10.1953ZM83.2612 10.8774V12.0434H84.1421C84.6792 12.0434 84.936 11.8369 84.936 11.456C84.936 11.105 84.7124 10.8774 84.2407 10.8774L83.2612 10.8774ZM83.2612 12.6968V14.0161H84.315C84.8404 14.0161 85.1216 13.7842 85.1216 13.3584C85.1216 12.9077 84.8033 12.6968 84.2036 12.6968L83.2612 12.6968Z" fill="white"/>
</svg>
