<svg width="69" height="39" viewBox="0 0 69 39" fill="none" xmlns="http://www.w3.org/2000/svg">
<path opacity="0.42" d="M15.5718 9.65041C17.4684 9.64683 19.3464 10.0231 21.0953 10.757C22.6722 7.70664 25.0342 5.13202 27.9376 3.29855C30.8411 1.46507 34.181 0.43908 37.613 0.326331C41.0451 0.213582 44.4451 1.01816 47.4626 2.65712C50.4801 4.29608 53.006 6.71012 54.7798 9.65041C58.4105 9.88992 61.8137 11.5036 64.2969 14.1632C66.7802 16.8227 68.157 20.3284 68.1473 23.9671C68.1376 27.6057 66.742 31.104 64.2446 33.7503C61.7472 36.3965 58.3354 37.992 54.7034 38.2121H15.5909C13.6454 38.3246 11.6975 38.0385 9.86654 37.3714C8.03558 36.7043 6.36017 35.6703 4.94303 34.3327C3.52589 32.9951 2.39687 31.3822 1.62523 29.5928C0.853583 27.8034 0.455566 25.8752 0.455566 23.9265C0.455566 21.9778 0.853583 20.0496 1.62523 18.2602C2.39687 16.4708 3.52589 14.8579 4.94303 13.5203C6.36017 12.1827 8.03558 11.1487 9.86654 10.4816C11.6975 9.81449 13.6454 9.52841 15.5909 9.64087L15.5718 9.65041Z" fill="url(#paint0_linear)"/>
<defs>
<linearGradient id="paint0_linear" x1="35.1376" y1="49.4975" x2="35.1376" y2="11.606" gradientUnits="userSpaceOnUse">
<stop stop-color="#6CA1C4"/>
<stop offset="0.23" stop-color="#7FABC8"/>
<stop offset="0.68" stop-color="#B0C4D1"/>
<stop offset="1" stop-color="#D6D7D8"/>
</linearGradient>
</defs>
</svg>
