<svg width="99" height="144" viewBox="0 0 99 144" fill="none" xmlns="http://www.w3.org/2000/svg">
<path d="M81.2484 102.541L82.1501 102.006C81.7517 101.346 81.3113 100.685 80.85 100.067L80.0112 100.696C80.4547 101.289 80.8677 101.905 81.2484 102.541Z" fill="#404040"/>
<path d="M81.951 120.691L82.2865 119.642C82.5696 118.782 85.086 111.097 84.7086 108.706L83.6601 108.874C83.9117 110.478 82.4438 115.637 81.563 118.384C80.4526 117.097 79.0506 116.094 77.4738 115.459C76.4742 115.102 75.4512 114.815 74.4122 114.599C71.7588 114.047 69.1866 113.159 66.758 111.957C61.2533 109.346 48.6712 99.4793 47.371 97.1411C46.5217 95.6103 46.0813 92.2236 47.2347 90.8501C47.7799 90.221 48.6607 90.1161 49.856 90.546L50.6634 90.8396L50.548 89.9903C50.4762 89.3909 50.5784 88.7835 50.8425 88.2406C51.1065 87.6977 51.5211 87.2423 52.0369 86.9286C54.6896 84.9679 60.2992 84.5485 62.7003 85.6494C68.2174 88.5228 73.1244 92.4398 77.1488 97.1831L77.9352 96.4911C73.8145 91.6406 68.7897 87.6378 63.1407 84.7058C60.404 83.4476 54.459 83.846 51.4183 86.0898C50.8673 86.4515 50.4062 86.9342 50.07 87.5011C49.7339 88.0681 49.5316 88.7042 49.4785 89.3612C48.9461 89.1879 48.3747 89.174 47.8345 89.3212C47.2943 89.4684 46.8088 89.7702 46.4378 90.1895C44.9385 91.951 45.4522 95.8515 46.4378 97.6444C47.8324 100.15 60.5403 110.164 66.3596 112.932C68.8576 114.163 71.4992 115.079 74.2234 115.658C75.2187 115.852 76.1969 116.126 77.1488 116.476C78.8227 117.182 80.2726 118.331 81.3429 119.8L81.951 120.691Z" fill="#404040"/>
<path d="M64.902 99.6576L65.4473 98.7558C64.6504 98.284 63.8326 97.8436 63.0252 97.4662C54.1338 93.2721 52.2675 91.9405 50.443 89.7281L49.6357 90.3992C51.5754 92.7479 53.5047 94.0899 62.5743 98.4098C63.3502 98.7873 64.1366 99.1752 64.902 99.6576Z" fill="#404040"/>
<path d="M72.2836 105.529L73.0281 104.785C72.5458 104.303 72.053 103.81 71.5287 103.327L70.8157 104.093C71.319 104.565 71.8118 105.047 72.2836 105.529Z" fill="#404040"/>
<path d="M79.2982 114.756L80.2 114.232C78.7985 111.819 77.1918 109.532 75.3978 107.396L74.5904 108.067C76.3467 110.159 77.9217 112.397 79.2982 114.756Z" fill="#404040"/>
<path d="M64.7029 70.792C67.062 70.792 69.4422 70.5928 71.7384 70.3936C80.871 69.6282 91.8384 59.9084 93.1491 55.5886C93.9883 53.1987 95.6151 51.1651 97.7625 49.8217L98.9998 49.1088L97.5947 48.8466C96.5462 48.6474 96.0534 47.9554 95.4348 47.0117C94.3863 45.439 93.0127 43.279 87.8121 42.4612L87.6444 43.5097C92.3836 44.2541 93.5894 46.0995 94.5645 47.5989C94.983 48.3817 95.5971 49.0428 96.347 49.5177C94.3903 50.9595 92.9257 52.9696 92.153 55.274C91.1045 58.8494 80.9129 68.5692 71.665 69.3555C61.9348 70.1734 54.7106 70.2048 50.485 63.0645C49.5204 58.8704 52.3514 55.7983 55.8639 52.5059C57.2689 51.1953 66.758 46.5084 75.8486 44.3485L75.6074 43.3C66.7265 45.397 56.881 50.0839 55.1404 51.6881C51.5021 55.0958 48.3356 58.5454 49.4785 63.3266L49.5414 63.4734C53.0329 69.5023 58.7578 70.792 64.7029 70.792Z" fill="#404040"/>
<path d="M80.8289 43.4363C81.6782 43.3315 82.5066 43.2685 83.272 43.2371V42.1886C82.4751 42.1886 81.6153 42.2934 80.7346 42.3983L80.8289 43.4363Z" fill="#404040"/>
<path d="M42.9043 71.3792C45.4732 65.5494 51.9949 62.8652 57.3843 61.1771L57.0697 60.181C51.4707 61.932 44.6868 64.7421 41.9397 70.9597L42.9043 71.3792Z" fill="#404040"/>
<path d="M62.2075 59.8141L64.3989 59.2584L64.1368 58.2098L61.9559 58.7656L62.2075 59.8141Z" fill="#404040"/>
<path d="M68.771 58.105C70.1865 57.7066 71.3818 57.3396 72.4198 56.9726C75.1667 55.9898 77.8342 54.798 80.399 53.4077C83.1071 51.8094 86.0792 50.7086 89.175 50.1573L89.0283 49.1088C85.8152 49.6745 82.7293 50.8108 79.9167 52.464C77.3939 53.8294 74.7723 55.0035 72.0738 55.9765C71.0253 56.333 69.8824 56.6895 68.4879 57.0775L68.771 58.105Z" fill="#404040"/>
<path d="M10.9245 113.351L11.6584 112.607C11.1866 112.135 10.7148 111.632 10.2849 111.128L9.48802 111.82C9.99131 112.345 10.4736 112.858 10.9245 113.351Z" fill="#404040"/>
<path d="M31.6221 121.98C34.0592 121.979 36.4899 121.733 38.8778 121.246L39.4021 121.142L39.2763 120.607C37.9971 115.27 34.3378 111.789 30.7938 108.423C30.0808 107.742 29.3783 107.071 28.6968 106.389C23.9994 101.692 15.3282 94.09 10.0542 95.9039C8.51718 96.4543 7.02697 97.1275 5.59803 97.9171C4.66762 98.5527 3.57819 98.9158 2.45249 98.9656L1.22573 98.8817L2.0226 99.8254C3.33283 101.398 4.44229 103.127 5.32542 104.974C5.78211 106.093 6.32914 107.173 6.9611 108.203L7.85233 107.647C7.2484 106.673 6.72923 105.649 6.30053 104.586C5.54993 102.923 4.59165 101.362 3.44858 99.9407C4.38265 99.6927 5.27608 99.3113 6.10132 98.8083C7.48332 98.047 8.92446 97.3983 10.4107 96.8686C13.8708 95.6418 20.2772 99.3535 27.9733 107.05C28.6653 107.742 29.3783 108.423 30.0703 109.147C33.3836 112.292 36.8018 115.553 38.1229 120.292C31.2656 121.582 24.1148 120.796 19.344 118.195C18.7988 117.902 18.2955 117.598 17.7713 117.294L17.226 118.185C17.7503 118.51 18.2746 118.814 18.8408 119.118C22.8077 121.09 27.1931 122.072 31.6221 121.98Z" fill="#404040"/>
<path d="M42.3802 125.388L43.261 124.811C40.8494 121.173 36.8651 118.52 34.4744 116.853L33.4259 116.151L30.5111 114.054C26.1807 110.908 18.9774 105.739 16.7336 104.208C12.7493 101.451 9.83438 100.371 6.6469 100.454V101.503C9.57225 101.419 12.3194 102.447 16.0835 105.068C18.4217 106.515 25.604 111.757 29.9763 114.903L32.9436 117L33.9921 117.703C36.2464 119.233 40.1364 121.865 42.3802 125.388Z" fill="#404040"/>
<path d="M45.7247 107.186C45.7247 107.113 46.2175 100.077 47.3813 97.613L46.4377 97.1726C45.19 99.8044 44.6972 106.819 44.6762 107.113L45.7247 107.186Z" fill="#404040"/>
<path d="M26.1594 61.4288L26.3167 60.3803C25.7085 60.2859 25.1004 60.2125 24.4818 60.1601L24.3874 61.2086C24.985 61.2191 25.6037 61.282 26.1594 61.4288Z" fill="#404040"/>
<path d="M20.5186 80.1762C23.5732 80.1458 26.6231 79.9287 29.6512 79.5261C31.5258 79.2224 33.4264 79.11 35.3237 79.1906L35.8479 79.243V78.7188C36.0005 77.4538 36.2175 76.1974 36.498 74.9546C37.2634 71.3477 37.9869 67.9505 34.9042 64.4694C34.1326 63.6129 33.2302 62.8839 32.2305 62.3095L31.6958 63.2217C32.6019 63.7343 33.4197 64.3892 34.1179 65.1615C36.8545 68.2336 36.2149 71.2428 35.4704 74.7239C35.2503 75.7724 35.0091 76.9258 34.8623 78.0896C33.0585 78.0791 31.2566 78.2088 29.473 78.4776C23.116 79.4412 16.6436 79.3491 10.3166 78.205C3.72146 76.9468 3.28109 70.8654 3.59564 67.3948C3.54778 66.212 3.15808 65.0684 2.47373 64.1025H2.80926C5.64672 64.4626 8.52866 64.042 11.1449 62.8862C12.8699 62.2557 14.6546 61.8025 16.4714 61.5336L16.3036 60.4851C14.411 60.7648 12.5522 61.2391 10.757 61.9006C8.29885 63.0002 5.58473 63.3993 2.91411 63.054C2.4269 62.9941 1.93696 62.9591 1.44619 62.9491H0.397675L1.02678 63.7879C1.48812 64.4065 2.65197 66.21 2.55761 67.248C1.94947 73.8117 4.65464 78.163 10.1174 79.1906C13.5455 79.8474 17.0282 80.1774 20.5186 80.1762Z" fill="#404040"/>
<path d="M24.5553 72.0292L25.0481 71.1065C22.166 69.4988 19.118 68.2086 15.9575 67.2585C12.9364 66.4955 9.84409 66.0492 6.73057 65.9269V66.9754C9.76269 67.1046 12.7736 67.5437 15.7163 68.286C18.7875 69.2157 21.7506 70.4705 24.5553 72.0292Z" fill="#404040"/>
<path d="M41.646 89.4765L42.6001 89.0362C40.5954 84.4362 37.7062 80.2752 34.0967 76.7895C32.3878 75.3769 30.5481 74.1305 28.6024 73.0673L28.0782 73.969C29.9562 75.0031 31.7357 76.2069 33.3942 77.5654C36.8958 80.9592 39.6991 85.0057 41.646 89.4765Z" fill="#404040"/>
<path d="M39.4861 49.266L39.6014 47.0432C39.7168 44.7784 43.3237 40.9828 46.5111 37.6066C48.4313 35.7312 50.1854 33.6929 51.7537 31.5147C53.6408 28.3512 54.5764 24.7109 54.4484 21.0296H53.3999C53.5389 24.5357 52.6575 28.0069 50.8625 31.0219C49.3313 33.1408 47.6193 35.1229 45.7457 36.946C42.8833 39.9552 39.937 43.0484 38.9199 45.5229C38.5215 44.7574 38.0182 43.8243 37.452 42.7548C34.9146 38.0574 31.077 30.9485 30.9407 27.0795C30.6786 20.0754 33.0377 10.5549 37.5359 6.72786C39.2384 5.27261 41.2336 4.19991 43.3866 3.58232C44.2746 3.34871 45.1179 2.9696 45.882 2.4604C46.3534 4.51589 47.4528 6.37377 49.0276 7.77637C49.713 8.46771 50.2988 9.25113 50.7681 10.1041L51.6803 9.59029C51.1787 8.64943 50.5508 7.78161 49.814 7.01096C46.228 3.43553 46.9305 0.961031 46.9515 0.908606L45.9659 0.57309C45.5884 1.70548 44.7706 2.02003 43.1035 2.56526C40.8083 3.20163 38.677 4.3245 36.8543 5.85759C31.9787 10.0516 29.6196 19.8972 29.8922 27.0376C30.039 31.1582 33.9395 38.393 36.5293 43.1847C37.431 44.8623 38.2174 46.3302 38.6263 47.1795L39.4861 49.266Z" fill="#404040"/>
<path d="M52.8651 16.1854L53.9136 15.9757C53.9136 15.7346 53.8087 15.4934 53.7458 15.2523L52.6973 15.4829L52.8651 16.1854Z" fill="#404040"/>
<path d="M44.2987 8.53129C44.555 7.29113 44.9235 6.07684 45.3997 4.90343L44.456 4.44208C43.947 5.6859 43.5539 6.97406 43.2817 8.29014L44.2987 8.53129Z" fill="#404040"/>
<path d="M42.4533 143.548H43.5019C43.5019 143.171 43.4075 106.431 43.1454 99.3955C42.8623 91.5631 40.7233 56.2911 40.7023 55.9346C40.587 54.5401 40.3773 53.0407 40.1571 51.4469C39.4173 47.2717 39.1919 43.0215 39.486 38.7914C39.9579 34.482 41.8242 20.5682 43.6172 11.6873L42.5687 11.4881C40.7757 20.39 38.8989 34.3562 38.3746 38.6761C38.0768 42.9902 38.3057 47.3245 39.0562 51.5833C39.2763 53.1665 39.486 54.6659 39.6014 56.008C39.6014 56.354 41.7508 91.605 42.0339 99.4374C42.3799 106.452 42.4533 143.213 42.4533 143.548Z" fill="#404040"/>
<path d="M42.5477 77.9219L43.5962 77.8276C42.8378 68.0833 41.5708 58.3853 39.8006 48.7733L38.7521 48.983C40.5166 58.5572 41.7835 68.2165 42.5477 77.9219Z" fill="#404040"/>
<path d="M44.096 83.7417L44.2944 86.2082L43.2493 86.2923L43.0508 83.8258L44.096 83.7417Z" fill="#404040"/>
<path d="M45.2005 116.612L46.249 116.549C45.7562 107.28 45.2005 98.6196 44.6553 90.8082L43.6068 90.8816C44.1835 98.693 44.7182 107.343 45.2005 116.612Z" fill="#404040"/>
<path d="M46.4916 121.423L46.6294 124.356L45.582 124.405L45.4443 121.472L46.4916 121.423Z" fill="#404040"/>
<path d="M46.3853 143.569H47.4338C47.287 139.428 47.0878 134.594 46.8572 129.32H45.8086C46.0393 134.594 46.2385 139.417 46.3853 143.569Z" fill="#404040"/>
</svg>
