<svg width="43" height="37" viewBox="0 0 43 37" fill="none" xmlns="http://www.w3.org/2000/svg">
<path d="M9.9708 15.4434C9.07629 14.6724 9.11462 13.5351 10.0432 12.8919L23.563 3.67001L22.3448 2.62642C21.4503 1.86822 19.9509 1.75747 19.0223 2.40067L0.731825 14.8812C-0.209536 15.5116 -0.247872 16.6659 0.646634 17.4326L7.0956 22.9402L13.5744 18.5231L9.9708 15.4434Z" fill="#7FCEF3"/>
<path d="M42.3518 9.77844L31.6689 0.65022C30.7743 -0.1165 29.2792 -0.218729 28.3336 0.415944L23.5629 3.67024L33.0404 11.7719C33.9307 12.5259 33.8923 13.6802 32.951 14.3106L31.409 15.3585L34.2587 17.7907L42.2794 12.3257C43.208 11.6867 43.2463 10.5324 42.3518 9.77844Z" fill="#02658A"/>
<path d="M9.9707 15.4438L13.57 18.5235L23.8526 11.508C24.7812 10.8733 26.2805 10.9755 27.175 11.7465L31.4133 15.3629L32.9552 14.3108C33.8966 13.6804 33.9349 12.526 33.0447 11.7721L23.5629 3.67041L10.0474 12.8881C9.11879 13.5355 9.08045 14.6728 9.9707 15.4438Z" fill="#46AFE4"/>
<path d="M20.6538 24.5717L19.4356 23.5324L14.6606 26.791C13.7192 27.4384 12.2327 27.3362 11.3381 26.5652L7.09137 22.9403L5.55794 23.9839C4.61657 24.6314 4.5825 25.7687 5.47274 26.5354L16.1685 35.6636C17.063 36.4346 18.5581 36.5326 19.4867 35.9021L37.7772 23.4259C38.7228 22.7785 38.7569 21.6412 37.8624 20.8744L34.2588 17.7905L23.989 24.7932C23.0434 25.4407 21.544 25.3427 20.6538 24.5717Z" fill="#35AD68"/>
<path d="M14.6605 26.7868L19.4355 23.5283L13.5743 18.519L7.09131 22.9405L11.3381 26.5653C12.2326 27.3321 13.7192 27.4343 14.6605 26.7868Z" fill="#009770"/>
<path d="M19.4354 23.5282L20.6537 24.5718C21.5439 25.3428 23.0433 25.4408 23.9889 24.7933L34.2629 17.7906L31.4133 15.3584L19.4354 23.5282Z" fill="#047C60"/>
<path d="M23.8527 11.5079L13.5744 18.5191L19.4355 23.5283L31.4091 15.3628L27.1709 11.7464C26.2806 10.9754 24.7813 10.8732 23.8527 11.5079Z" fill="#148ECE"/>
</svg>
