<svg width="371" height="400" viewBox="0 0 371 400" fill="none" xmlns="http://www.w3.org/2000/svg">
<path opacity="0.42" d="M280.501 63.4598C282.968 63.46 285.41 63.9505 287.686 64.9028C289.737 60.9402 292.808 57.5962 296.581 55.215C300.355 52.8339 304.695 51.5017 309.155 51.3557C313.615 51.2098 318.033 52.2553 321.954 54.3846C325.875 56.5139 329.158 59.65 331.464 63.4699C336.388 63.482 341.106 65.4498 344.579 68.9402C348.053 72.4306 349.997 77.1578 349.985 82.0819C349.973 87.006 348.005 91.7236 344.515 95.1969C341.024 98.6702 336.297 100.615 331.373 100.602H280.501C275.577 100.602 270.854 98.6464 267.373 95.1645C263.891 91.6827 261.935 86.9603 261.935 82.0362C261.935 77.1121 263.891 72.3897 267.373 68.9079C270.854 65.426 275.577 63.4699 280.501 63.4699V63.4598Z" fill="url(#paint0_linear)"/>
<path opacity="0.42" d="M66.557 13.8985C69.2031 9.52009 72.9682 5.92587 77.4647 3.48576C81.9612 1.04565 87.0267 -0.152208 92.1398 0.015471C97.253 0.18315 102.229 1.71031 106.556 4.43977C110.883 7.16923 114.405 11.0024 116.758 15.5448C119.676 14.2856 122.838 13.6939 126.013 13.8129C129.189 13.932 132.298 14.7587 135.113 16.2327C137.928 17.7068 140.379 19.7909 142.286 22.333C144.193 24.8752 145.508 27.811 146.135 30.9263C146.762 34.0416 146.686 37.2576 145.911 40.3396C145.137 43.4216 143.684 46.2917 141.658 48.7404C139.633 51.1891 137.086 53.1545 134.204 54.4931C131.322 55.8318 128.177 56.5099 125 56.478H114.543L114.99 79.5766L93.3038 56.478H66.7094C61.3162 56.1183 56.2603 53.7255 52.5629 49.7827C48.8654 45.8399 46.8019 40.6409 46.789 35.2357C46.7761 29.8304 48.8148 24.6217 52.4934 20.6613C56.1719 16.7009 61.2163 14.2839 66.6078 13.8985H66.557Z" fill="url(#paint1_linear)"/>
<path opacity="0.42" d="M226.885 59.74C214.827 56.5111 202.434 54.6968 189.956 54.3337H188.94C187.649 54.3337 186.359 54.3337 185.068 54.3337H184.418C181.023 54.3337 177.65 54.4658 174.316 54.6894C136.626 57.1488 101.006 72.8071 73.711 98.9152C73.0403 99.5554 72.3899 100.206 71.6786 100.846C68.2912 104.166 65.0799 107.631 62.0448 111.242C60.3376 113.274 58.6913 115.307 57.0857 117.339L56.5877 118C52.8126 122.956 49.3279 128.127 46.1512 133.487C45.7549 134.168 45.3484 134.838 44.9622 135.519C33.9539 154.791 27.0397 176.126 24.6518 198.191C22.2639 220.257 24.4537 242.577 31.0844 263.758C37.715 284.938 48.6438 304.523 63.1876 321.288C77.7314 338.052 95.5773 351.636 115.61 361.191L116.626 361.658C121.633 363.992 126.759 366.064 131.981 367.867L132.997 368.233C145.626 372.533 158.741 375.243 172.04 376.302L173.524 376.414C177.335 376.678 181.186 376.82 185.068 376.82C189.695 376.82 194.272 376.624 198.797 376.231L200.474 376.088C212.219 374.978 223.807 372.575 235.025 368.924L236.041 368.599C243.249 366.201 250.275 363.291 257.067 359.89L258.032 359.412C263.114 356.834 268.053 353.984 272.828 350.876L273.845 350.205C292.873 337.636 309.037 321.195 321.282 301.955C321.759 301.203 322.227 300.441 322.694 299.689C335.769 278.292 343.677 254.142 345.789 229.155C347.901 204.169 344.16 179.034 334.863 155.745C325.565 132.457 310.967 111.657 292.227 94.9949C273.488 78.3333 251.122 66.2692 226.906 59.7603L226.885 59.74Z" fill="url(#paint2_linear)"/>
<path d="M156.828 72.148L164.317 96.3543C165.089 98.1742 165.618 100.087 165.892 102.045L171.664 105.521L168.331 82.9301L174.215 79.4749L178.28 73.8044L174.317 66.6299L180.526 72.0464H213.898L219.254 79.4749L225.138 82.9301L221.764 105.531L227.526 102.055C227.526 102.055 228.237 96.6896 230.199 94.6978L237.841 72.585L226.886 59.74C214.827 56.5111 202.434 54.6968 189.956 54.3337L188.94 54.5065V54.3032C187.65 54.3032 186.359 54.3032 185.068 54.3032H184.459L184.652 55.3194L181.928 55.8275L181.725 54.8113L184.418 54.3134C181.024 54.3134 177.65 54.4455 174.317 54.6691L171.969 59.2624L156.828 72.148Z" fill="url(#paint3_linear)"/>
<path d="M193.879 167.246L194.417 166.849L194.793 167.286C207.232 159.705 214.02 152.724 220.859 144.675V128.66C216.957 134.351 208.665 143.426 196.684 143.426C185.19 143.426 178.158 135.723 172.528 128.66C171.864 127.834 171.266 126.957 170.74 126.038L168.605 140.712C175.81 150.448 183.94 160.122 193.879 167.246Z" fill="url(#paint4_linear)"/>
<path d="M180.678 93.8444L186.45 96.0699L186.216 96.6695L180.739 95.7244L174.876 99.0576L174.977 99.901L177.924 100.114L181.948 102.848L188.096 100.267L191.298 96.3544L181.207 90.938L172.335 93.448L172.609 94.2407L180.678 93.8444Z" fill="url(#paint5_linear)"/>
<path d="M211.419 102.848L215.443 100.114L218.4 99.901L218.512 99.0576L212.638 95.7244L207.161 96.6695L206.917 96.0699L212.72 93.8444L220.768 94.2407L221.053 93.448L212.181 90.938L202.07 96.3544L205.281 100.267L211.419 102.848Z" fill="url(#paint6_linear)"/>
<path d="M155.893 349.575V349.047C153.332 348.854 150.761 348.62 148.078 348.315L148.017 348.843C146.824 348.715 145.605 348.562 144.358 348.386L144.44 347.858C138.392 346.992 132.402 345.761 126.504 344.169L126.371 344.687C123.851 344.027 121.199 343.264 118.475 342.431V352.37C124.329 354.168 129.654 355.571 134.572 356.638C136.259 356.994 137.956 357.329 139.592 357.654L139.501 358.172C145.52 359.177 151.589 359.856 157.681 360.205V359.666C160.14 359.839 162.61 360.012 165.232 360.245L166.614 350.5C164.185 350.287 161.858 350.114 159.571 349.951L155.893 349.575Z" fill="#042A44"/>
<path d="M204.915 348.691L205.25 358.579C210.118 358.518 219.559 357.4 231.083 354.301C238.473 352.326 245.695 349.764 252.677 346.639V336.751C250.797 337.594 248.856 338.407 246.875 339.179L246.671 338.682C240.378 341.142 233.928 343.179 227.363 344.779L227.485 345.297C226.296 345.592 225.117 345.856 223.959 346.11L223.847 345.592C222.059 345.978 220.334 346.317 218.674 346.608L218.776 347.136C214.203 348.016 209.569 348.536 204.915 348.691Z" fill="#042A44"/>
<path d="M202.883 321.436H203.421L203.198 315.126H202.669L202.547 311.569H203.076L200.027 224.428H199.488L199.377 221.176H199.915L199.62 212.671H199.082L198.289 189.552L204.143 179.888L194.245 168.292L183.412 176.3L190.393 190.09L189.916 190.324L169.916 331.507L170.445 331.588L169.815 335.999L169.286 335.928L168.189 343.702L168.717 343.773L165.445 366.851L173.575 376.393C177.386 376.658 181.237 376.8 185.119 376.8C189.746 376.8 194.323 376.603 198.848 376.21L204.6 370.591L202.883 321.436Z" fill="url(#paint7_linear)"/>
<path d="M231.845 355.175L236.021 368.579C243.229 366.181 250.255 363.271 257.047 359.87L252.84 347.675C246.045 350.713 239.026 353.22 231.845 355.175Z" fill="url(#paint8_linear)"/>
<path d="M196.683 143.426C208.624 143.426 216.957 134.351 220.859 128.66C224.056 123.93 226.022 118.478 226.58 112.797C226.58 112.797 231.601 114.992 232.83 110.48C234.588 104.128 237.413 97.4316 233.145 94.5151C232.723 94.148 232.173 93.9633 231.614 94.0014C231.056 94.0395 230.536 94.2973 230.168 94.7183C228.206 96.7507 227.495 102.076 227.495 102.076L221.733 105.551L225.107 82.9505L219.223 79.4954L213.868 72.0668H180.526L174.327 66.6504L178.29 73.8249L174.225 79.4954L168.331 82.9302L171.695 105.531L165.922 102.055C165.648 100.098 165.119 98.1845 164.347 96.3646C163.463 94.5049 162.152 93.2143 160.282 94.4947C156.025 97.4113 158.86 104.108 160.597 110.459C161.847 114.972 166.868 112.776 166.868 112.776C167.231 117.408 168.572 121.911 170.8 125.987C171.327 126.907 171.925 127.783 172.589 128.609C178.158 135.723 185.19 143.426 196.683 143.426ZM212.181 90.938L221.052 93.4887L220.768 94.2813L212.709 93.885L206.947 96.0699L207.181 96.6694L212.668 95.7244L218.542 99.0576L218.43 99.9112L215.473 100.114L211.408 102.848L205.311 100.267L202.1 96.3544L212.181 90.938ZM181.206 90.938L191.297 96.3544L188.096 100.267L181.999 102.848L177.934 100.114L174.987 99.9112L174.886 99.0576L180.749 95.7244L186.226 96.6694L186.46 96.0699L180.688 93.8444L172.558 94.2407L172.294 93.448L181.206 90.938Z" fill="#F9E2B8"/>
<path d="M47.4013 156.901L45.7448 168.008L48.4175 168.424L48.3464 168.953C50.8869 169.309 53.4986 169.624 56.0493 169.857V169.329C56.8419 169.4 57.6244 169.471 58.3967 169.522V170.05C60.2869 170.203 62.1059 170.294 63.7928 170.345V169.817C65.8607 169.89 67.9312 169.832 69.9918 169.644L70.7539 162.297L75.835 157.033L81.8205 148.232L91.312 139.422L91.6778 139.808L93.2326 137.115L89.1678 126.709L89.2491 127.227L85.4281 127.867L83.5888 134.869L79.7983 137.064L72.6136 131.282L72.7152 131.81L67.4512 132.826L63.1526 135.763L62.5531 134.879L67.1464 131.83L72.136 130.906L72.9286 125.225L80.9263 121.16L85.7838 126.841L89.0357 126.302L87.3589 119.443L77.6032 113.854L67.7256 119.727L67.563 120.235L65.0733 119.483L68.1219 109.108L71.7905 100.775C68.4031 104.095 65.1918 107.56 62.1567 111.171L59.9414 116.536L57.1468 117.705V118.01H56.7403C52.9652 122.966 49.4805 128.137 46.3038 133.497L45.3688 146.911L47.4013 156.901ZM84.0664 134.544L86.6577 138.548L85.7635 139.127L83.1721 135.154L84.0664 134.544Z" fill="#F9E2B8"/>
<path d="M45.6126 169.075L44.2712 183.21C45.9479 183.475 47.7263 183.729 49.5962 183.932L49.5352 184.46C51.3745 184.674 53.2444 184.846 55.0837 184.979V184.45C60.0195 184.873 64.9814 184.893 69.9205 184.511V170.721C67.8659 170.896 65.8024 170.943 63.7419 170.863V170.335C62.055 170.335 60.2359 170.193 58.3458 170.04V170.579L55.9882 170.375V169.847C53.4375 169.613 50.8258 169.298 48.2852 168.943L48.2141 169.471L45.6126 169.075Z" fill="url(#paint9_linear)"/>
<path d="M194.753 167.286L205.118 179.43L205.504 179.654L205.423 179.786L209.376 184.41L226.469 163.608L226.886 163.953L229.467 160.793L229.06 160.447L230.9 158.201L231.316 158.537L234.162 154.807L220.859 144.645C214.061 152.724 207.232 159.705 194.753 167.286Z" fill="url(#paint10_linear)"/>
<path d="M116.118 332.137L118.425 341.334C121.28 342.208 124.054 343 126.676 343.702L126.544 344.21C132.443 345.801 138.432 347.033 144.48 347.898L144.551 347.37C145.791 347.546 147.001 347.699 148.179 347.827L148.118 348.356C150.801 348.661 153.372 348.894 155.933 349.087V348.559L159.683 348.833C162 349.006 164.347 349.179 166.796 349.392L167.62 343.63L168.148 343.702L169.246 335.927L168.717 335.846L169.347 331.436L169.876 331.507L189.885 190.324L189.407 190.568L182.558 176.94L171.827 184.857L163.778 163.364L164.795 162.988L172.355 183.16L193.899 167.246C183.96 160.132 175.831 150.448 168.626 140.712L158.016 146.413L123.831 157.592L114.807 162.612L86.2308 200.212L86.6576 200.537L84.9605 202.762L84.5337 202.437L81.4851 206.502L81.9017 206.827L75.1337 215.729L75.713 233.005H74.6459L74.0667 215.424V215.363L73.4874 197.966L70.1339 185.487C68.108 185.689 66.0727 185.784 64.0366 185.771C61.3538 185.771 58.3153 185.649 55.1651 185.426V184.897C53.3257 184.765 51.4559 184.592 49.6165 184.379L49.5555 184.918C47.6552 184.704 45.8463 184.45 44.1391 184.176L40.4401 193.708L39.9421 193.515L36.1212 244.905L42.2185 264.985L42.7266 264.823L43.8241 268.41L43.316 268.562L45.8565 276.906L46.0191 276.397L56.1813 279.832L72.9285 277.424L114.888 234.743L115.091 217.853H116.108L115.904 235.129H115.955L115.904 235.18L115.671 254.701H115.132L114.939 275.391H115.488V279.05H114.959L114.847 287.545L115.386 287.484L118.536 315.095L118.008 315.156L112.419 324.505L112.917 324.302L116.118 332.137ZM162.457 156.809L163.27 158.974L162.254 159.35L161.441 157.175L162.457 156.809Z" fill="url(#paint11_linear)"/>
<path d="M322.481 299.608C323.294 296.722 324.046 294.019 324.686 291.6H324.158V286.681H324.686V275.269L280.115 180.284L270.705 171.991L235.788 156.057L234.131 154.797L231.337 158.526L231.753 158.862L229.904 161.118L229.487 160.782L226.906 163.943L227.312 164.278L209.457 186.076L204.915 180.751L199.387 189.836L200.179 212.64H199.651L199.946 221.146H200.474L200.586 224.387H200.057L203.106 311.528H203.645L203.767 315.085H203.228L203.452 321.395H203.98L204.884 347.624C209.488 347.464 214.072 346.94 218.593 346.059L218.685 346.587C220.338 346.283 222.062 345.944 223.857 345.571L223.745 345.053C224.894 344.799 226.062 344.535 227.251 344.24L227.373 344.758C233.938 343.158 240.388 341.121 246.681 338.661L246.499 338.173C248.633 337.33 250.726 336.446 252.738 335.531L254.537 323.651L255.065 323.733L251.732 312.554L251.204 312.483C251.204 312.209 254.913 285.493 256.285 274.944L256.813 275.015C257.138 272.546 257.331 270.95 257.331 270.737C257.331 270.524 257.088 267.455 256.732 263.166H256.193C255.462 254.457 254.242 240.372 253.561 232.68V232.476C253.277 229.255 253.104 227.182 253.104 227.182L254.171 227.091C254.171 227.091 254.334 229.123 254.608 232.172V232.253L281.782 283.003L281.304 283.257L280.034 291.143L288.468 291.661L288.397 292.677L285.806 292.667L282.29 298.581C281.629 303.53 280.257 310.695 278.723 317.89L279.251 318.001C278.997 319.2 278.743 320.4 278.479 321.589L277.961 321.477C277.016 325.846 276.06 330.084 275.237 333.671L275.755 333.793C274.455 339.454 273.459 343.569 273.306 344.199L273.825 350.226C292.853 337.656 309.017 321.215 321.262 301.976C321.495 301.132 321.739 300.309 321.963 299.506L322.481 299.608Z" fill="url(#paint12_linear)"/>
<path d="M205.24 359.646L205.626 371.028L200.474 376.109C212.219 374.998 223.807 372.596 235.025 368.945L230.838 355.5C219.447 358.478 210.108 359.595 205.24 359.646Z" fill="url(#paint13_linear)"/>
<path d="M118.384 353.478L116.677 361.607C121.667 363.957 126.775 366.046 131.981 367.867L133.881 357.624C129.085 356.557 124.004 355.205 118.384 353.478Z" fill="url(#paint14_linear)"/>
<path d="M165.16 361.252C162.569 361.018 160.14 360.855 157.783 360.682L157.722 360.154C151.629 359.805 145.561 359.127 139.542 358.122L139.45 358.65C137.966 358.396 136.402 358.091 134.928 357.776L132.997 368.162C145.626 372.462 158.741 375.172 172.04 376.231L164.317 367.085L165.16 361.252Z" fill="url(#paint15_linear)"/>
<path d="M118.14 341.242L118.425 341.334L116.118 332.137L112.887 324.302L112.389 324.505L111.901 324.708L115.112 332.472L117.449 341.822V341.029L118.14 341.242Z" fill="#98BED3"/>
<path d="M253.693 335.094V335.968L255.543 323.834L255.014 323.753L254.486 323.672L252.677 335.551L252.931 335.44L253.693 335.094Z" fill="#98BED3"/>
<path d="M71.0282 169.532V170.162L71.8006 162.774L76.6886 157.693L82.6233 148.964L92.1147 140.234L91.7591 139.838L91.3932 139.452L81.9018 148.263L75.8553 157.032L70.7742 162.296L70.012 169.644H70.4287L71.0282 169.532Z" fill="#DBC197"/>
<path d="M89.0662 126.18L85.8144 126.729L80.9568 121.049L72.9592 125.154L72.1666 130.835L72.5527 130.764L72.6442 131.282L73.1726 131.353L73.9348 125.855L80.6926 122.38L85.3977 127.878L85.4587 127.867L89.2797 127.227L89.1984 126.709L89.1069 126.18H89.0662Z" fill="#DBC197"/>
<path d="M65.0223 119.483L67.512 120.235L67.6746 119.727L67.827 119.219L66.3434 118.772L69.1075 109.474L73.1723 100.267L73.7719 98.844C73.1012 99.4842 72.4508 100.135 71.7395 100.775L68.1014 109.108L65.0223 119.483Z" fill="#DBC197"/>
<path d="M57.1059 117.705L57.1568 117.299L56.6588 117.959H57.0653L57.1059 117.705Z" fill="#DBC197"/>
<path d="M46.3139 156.931L44.688 167.845L45.2265 167.936L45.7448 168.008L47.4013 156.9L45.3688 146.911L46.192 133.446C45.7956 134.127 45.3891 134.798 45.003 135.478L44.3526 146.982L46.3139 156.931Z" fill="#DBC197"/>
<path d="M72.1664 130.835L67.1768 131.76L62.5835 134.839L63.1831 135.723L67.4817 132.786L72.7457 131.81L72.644 131.282L72.5526 130.764L72.1664 130.835Z" fill="#DBC197"/>
<path d="M84.0652 134.583L83.1698 135.164L85.7621 139.163L86.6575 138.583L84.0652 134.583Z" fill="#DBC197"/>
<path d="M254.76 235.017L280.745 283.521L281.212 283.267L281.69 283.013L254.516 232.304V232.426C254.608 233.219 254.71 234.092 254.76 235.017Z" fill="#98BED3"/>
<path d="M279.831 292.261L285.806 292.616L288.306 292.769L288.377 291.712L279.942 291.194H279.892L279.831 292.261Z" fill="#98BED3"/>
<path d="M277.442 321.304L277.961 321.416L278.479 321.528C278.743 320.339 278.997 319.14 279.251 317.94L278.723 317.829L278.205 317.717L277.442 321.304Z" fill="#98BED3"/>
<path d="M324.157 291.6H324.696H325.225V286.682H324.696H324.157V291.6Z" fill="#98BED3"/>
<path d="M116.006 235.098L115.955 235.048V235.149L116.006 235.098Z" fill="#98BED3"/>
<path d="M114.898 234.702L72.9285 277.373L56.171 279.812L46.0292 276.377L45.8564 276.885L45.6938 277.383L56.0796 280.899L73.4366 278.379L114.878 236.237L114.898 234.702Z" fill="#98BED3"/>
<path d="M42.737 264.802L42.2289 264.965L41.7208 265.118L42.8183 268.705L43.3264 268.542L43.8345 268.39L42.737 264.802Z" fill="#98BED3"/>
<path d="M44.058 184.257L43.6312 184.186L43.8039 183.17L44.2714 183.241L45.6128 169.105L48.2753 169.512L48.3464 168.983L48.4176 168.455L45.7449 168.038L45.2266 167.967L44.688 167.876L43.2247 183.586L39.3936 193.444L39.8915 193.637L40.3894 193.83L44.058 184.257Z" fill="#98BED3"/>
<path d="M58.3563 170.589V170.05V169.522C57.584 169.522 56.8015 169.4 56.0089 169.329V169.857V170.386L58.3563 170.589Z" fill="#98BED3"/>
<path d="M69.9614 170.721V184.501H70.4288L70.5609 185.517L70.0528 185.568L73.4063 198.047L73.9856 215.435L75.0018 214.093L74.4632 197.946L71.0182 185.151V169.532L70.4187 169.603H70.002C67.9414 169.791 65.871 169.849 63.8031 169.776V170.305V170.833C65.8562 170.922 67.9129 170.885 69.9614 170.721Z" fill="#98BED3"/>
<path d="M73.9956 215.546L74.5748 233.127L75.6419 233.086L75.0626 215.79L74.7883 216.156L73.9956 215.546Z" fill="#98BED3"/>
<path d="M44.2713 183.21L43.8039 183.139L43.6311 184.155L44.0579 184.227C45.7652 184.501 47.574 184.755 49.4744 184.968L49.5353 184.43L49.5963 183.901C47.7265 183.729 45.9481 183.475 44.2713 183.21Z" fill="#98BED3"/>
<path d="M70.4288 184.46H69.9613C65.0223 184.843 60.0603 184.822 55.1246 184.399V184.928V185.456C58.2748 185.68 61.3133 185.802 63.9961 185.802C66.0322 185.815 68.0675 185.72 70.0935 185.517L70.6016 185.466L70.4288 184.46Z" fill="#98BED3"/>
<path d="M86.6375 200.578L86.2107 200.252L85.7839 199.927L84.0868 202.163L84.5136 202.478L84.9404 202.803L86.6375 200.578Z" fill="#98BED3"/>
<path d="M73.9856 215.445L73.9449 215.506L73.9958 215.546L74.7884 216.156L75.0628 215.79L81.8308 206.888L81.4141 206.563L80.9873 206.238L75.012 214.103L73.9856 215.445Z" fill="#98BED3"/>
<path d="M204.153 179.887L198.299 189.552L199.092 212.671L199.631 212.65L200.159 212.64L199.367 189.836L204.895 180.751L204.153 179.887Z" fill="#E02D3E"/>
<path d="M205.544 179.653L205.159 179.43L205.463 179.785L205.544 179.653Z" fill="#E02D3E"/>
<path d="M199.499 224.418L200.037 224.408L200.566 224.387L200.454 221.146L199.925 221.156L199.387 221.176L199.499 224.418Z" fill="#E02D3E"/>
<path d="M202.639 315.125L203.167 315.105L203.706 315.085L203.584 311.528L203.045 311.548L202.517 311.569L202.639 315.125Z" fill="#E02D3E"/>
<path d="M168.758 335.846L169.286 335.927L169.815 335.998L170.445 331.588L169.916 331.507L169.388 331.436L168.758 335.846Z" fill="#E02D3E"/>
<path d="M182.558 176.94L189.448 190.568L189.926 190.324L190.403 190.09L183.422 176.3L182.558 176.94Z" fill="#E02D3E"/>
<path d="M115.315 287.515L114.787 287.576L114.258 287.637L117.449 315.217L117.978 315.156L118.506 315.095L115.315 287.515Z" fill="#98BED3"/>
<path d="M115.468 275.432H114.939L114.401 275.422L114.36 279.081H114.899L115.427 279.091L115.468 275.432Z" fill="#98BED3"/>
<path d="M115.955 235.149V235.048L116.159 217.823L115.092 217.812L114.899 234.702L114.878 236.237L114.655 254.661L115.183 254.671H115.722L115.955 235.149Z" fill="#98BED3"/>
<path d="M254.76 235.017C254.679 234.093 254.608 233.219 254.537 232.426V232.304V232.223C254.262 229.113 254.1 227.142 254.1 227.142L253.033 227.233C253.033 227.233 253.205 229.265 253.49 232.528V232.731C254.171 240.444 255.39 254.529 256.122 263.217H256.661H257.189C256.518 255.25 255.461 243.005 254.76 235.017Z" fill="#98BED3"/>
<path d="M257.27 275.086L256.742 275.015L256.214 274.944C254.852 285.492 251.183 312.209 251.132 312.483L251.661 312.554L252.189 312.625C252.24 312.361 255.909 285.635 257.27 275.086Z" fill="#98BED3"/>
<path d="M155.974 348.559V349.088V349.616L159.734 349.9C162.02 350.063 164.347 350.236 166.776 350.449L166.918 349.433C164.469 349.22 162.122 349.047 159.805 348.874L155.974 348.559Z" fill="#003366"/>
<path d="M148.058 348.884L148.119 348.356L148.18 347.827C147.001 347.698 145.792 347.546 144.552 347.37L144.481 347.898L144.399 348.427C145.653 348.603 146.872 348.755 148.058 348.884Z" fill="#003366"/>
<path d="M118.537 352.918L118.415 353.477C124.034 355.205 129.115 356.526 133.912 357.603L134.003 357.095L135.02 357.288L134.928 357.827C136.453 358.142 137.977 358.447 139.45 358.701L139.542 358.172L139.633 357.654C137.997 357.37 136.3 357.034 134.613 356.638C129.644 355.571 124.37 354.168 118.516 352.37V342.462C121.24 343.295 123.892 344.057 126.412 344.718L126.544 344.199L126.677 343.691C124.055 342.99 121.28 342.197 118.425 341.323L118.14 341.232L117.449 341.019V352.685L118.537 352.918Z" fill="#003366"/>
<path d="M157.722 360.154L157.783 360.682C160.14 360.855 162.569 361.018 165.161 361.251L165.313 360.235C162.691 360.001 160.232 359.829 157.763 359.656L157.722 360.154Z" fill="#003366"/>
<path d="M204.915 348.691C209.569 348.529 214.204 348.002 218.776 347.116L218.674 346.588L218.583 346.059C214.062 346.94 209.478 347.464 204.874 347.624L204.915 348.691Z" fill="#003366"/>
<path d="M227.434 345.256L227.312 344.738L227.191 344.22C226.002 344.514 224.833 344.779 223.685 345.033L223.796 345.551L223.908 346.069C225.067 345.815 226.256 345.51 227.434 345.256Z" fill="#003366"/>
<path d="M252.677 336.751V346.639C245.695 349.764 238.473 352.326 231.083 354.301C219.559 357.4 210.118 358.518 205.25 358.579V359.646C210.118 359.595 219.477 358.478 230.828 355.459L230.676 354.972L231.692 354.657L231.855 355.175C239.035 353.23 246.055 350.733 252.85 347.706L252.667 347.157L253.683 346.801V346.893V335.094L252.931 335.44L252.677 335.552C250.645 336.466 248.612 337.35 246.438 338.194L246.62 338.682L246.824 339.18C248.805 338.397 250.746 337.594 252.677 336.751Z" fill="#003366"/>
<path d="M118.536 352.918L117.52 352.695V352.756L115.752 361.15L116.768 361.617L118.475 353.487L118.536 352.918Z" fill="#003366"/>
<path d="M253.693 346.801L252.677 347.157L252.86 347.705L257.067 359.9L258.033 359.422L253.693 346.892V346.801Z" fill="#003366"/>
<path d="M135.019 357.288L134.003 357.095L133.912 357.603L131.981 367.867L132.997 368.233L134.928 357.847L135.019 357.288Z" fill="#003366"/>
<path d="M189.956 54.3337H188.94V54.537L189.956 54.3337Z" fill="white"/>
<path d="M181.928 55.8073L184.652 55.2992L184.459 54.283L181.766 54.7809L181.928 55.8073Z" fill="white"/>
<path d="M229.06 160.437L229.467 160.783L229.883 161.118L231.723 158.862L231.316 158.527L230.899 158.191L229.06 160.437Z" fill="#98BED3"/>
<path d="M209.427 184.41L205.464 179.786L205.159 179.43L194.793 167.286L194.417 166.849L193.879 167.246L172.335 183.16L164.774 162.988L163.778 163.364L171.827 184.857L182.558 176.94L183.422 176.3L194.245 168.292L204.153 179.887L204.895 180.751L209.437 186.076L227.292 164.278L226.886 163.943L226.469 163.598L209.427 184.41Z" fill="#98BED3"/>
<path d="M162.467 156.804L161.468 157.178L162.281 159.348L163.28 158.974L162.467 156.804Z" fill="#98BED3"/>
<path d="M168.717 343.773L168.189 343.702L167.66 343.63L166.837 349.392L166.695 350.409L165.282 360.195L165.13 361.211L164.286 367.135L172.01 376.281L173.493 376.393L165.364 366.851L168.717 343.773Z" fill="#E02D3E"/>
<path d="M205.24 359.646V358.579L204.905 348.691V347.624L203.899 321.396H203.37H202.832L204.529 370.55L198.818 376.21L200.494 376.068L205.647 370.987L205.24 359.646Z" fill="#E02D3E"/>
<path d="M231.682 354.656L230.666 354.971L230.818 355.459L235.005 368.883L236.021 368.558L231.844 355.154L231.682 354.656Z" fill="#003366"/>
<path d="M275.755 333.753L275.237 333.631L274.719 333.509C273.296 339.667 272.249 343.996 272.249 343.996V344.078L272.828 350.856L273.845 350.185L273.326 344.159C273.458 343.529 274.454 339.413 275.755 333.753Z" fill="#98BED3"/>
<path d="M321.963 299.466C321.739 300.269 321.495 301.092 321.262 301.935C321.739 301.183 322.207 300.421 322.674 299.669L322.481 299.608L321.963 299.466Z" fill="#98BED3"/>
<path d="M184.459 54.2523H185.068C186.359 54.2523 187.65 54.2523 188.94 54.2523L188.788 53.4088L208.98 49.7911L209.173 50.8073L189.936 54.3234C202.414 54.6865 214.807 56.5008 226.865 59.7297L212.953 43.3381L176.786 49.7911L174.317 54.6588C177.65 54.4352 181.024 54.3133 184.418 54.3031L184.459 54.2523Z" fill="url(#paint16_linear)"/>
<path d="M198.817 376.21C194.299 376.597 189.722 376.793 185.088 376.8C181.206 376.8 177.355 376.658 173.544 376.393L184.926 389.818L198.817 376.21Z" fill="url(#paint17_linear)"/>
<path d="M46.3039 132.105L46.2226 133.487C49.3993 128.127 52.884 122.956 56.6592 118L56.0088 117.918L57.9701 102.553L60.6123 91.1004L61.1407 91.2223L57.3604 90.0232L52.1675 107.36H50.1351L43.9666 113.142L42.7573 121.109L43.2756 120.967L46.3039 132.105ZM51.2834 111.872L52.1573 112.492L51.5781 113.305L50.3281 122.745L47.9299 120.55V117.502L47.5031 117.197L51.2834 111.872Z" fill="#F9E2B8"/>
<path d="M71.7905 100.775L72.197 99.8503L75.3879 92.2185L75.8553 92.4725L72.2681 89.0784L65.998 101.832L62.1364 111.222C65.1851 107.577 68.4031 104.095 71.7905 100.775Z" fill="#F9E2B8"/>
<path d="M72.1562 99.85L71.7498 100.775C72.4103 100.135 73.0607 99.4842 73.7822 98.844L76.3735 92.6247L75.8553 92.4723L75.3675 92.269L72.1562 99.85Z" fill="#DBC197"/>
<path d="M57.9701 102.513L56.0089 117.878L56.6592 117.959L57.1572 117.299L59.0169 102.696L61.6285 91.3445L61.1103 91.2225L60.6123 91.1006L57.9701 102.513Z" fill="#DBC197"/>
<path d="M46.2226 133.446L46.3039 132.064L43.2553 120.977L42.737 121.12L42.2289 121.252L45.2166 132.176L45.0235 135.479C45.4198 134.798 45.8263 134.137 46.2226 133.446Z" fill="#DBC197"/>
<path d="M48.3665 117.746L51.5777 113.264L52.157 112.451L51.2932 111.831L47.4926 117.126L47.9295 117.431L48.3665 117.746Z" fill="#DBC197"/>
<path d="M208.98 49.7913L188.767 53.4801L188.919 54.3236H189.936L209.193 50.8075L208.98 49.7913Z" fill="white"/>
<path d="M200.474 376.068L198.797 376.21L184.905 389.818L173.524 376.393L172.04 376.282L184.834 391.372L200.474 376.068Z" fill="#E02D3E"/>
<g opacity="0.42">
<path opacity="0.42" d="M353.019 147.053C352.818 147.056 352.617 147.039 352.419 147.003C352.225 146.96 352.035 146.903 351.85 146.83C351.669 146.751 351.495 146.656 351.332 146.545C351.165 146.434 351.009 146.308 350.864 146.169C350.292 145.598 349.971 144.823 349.97 144.015C349.97 143.814 349.99 143.613 350.031 143.415C350.068 143.22 350.126 143.029 350.204 142.846C350.359 142.469 350.583 142.125 350.864 141.83C351.009 141.691 351.165 141.566 351.332 141.454C351.495 141.343 351.669 141.248 351.85 141.17C352.035 141.097 352.225 141.039 352.419 140.997C352.815 140.915 353.223 140.915 353.618 140.997C353.812 141.039 354.003 141.097 354.187 141.17C354.371 141.25 354.547 141.345 354.716 141.454C354.877 141.568 355.03 141.694 355.173 141.83C355.315 141.972 355.441 142.128 355.549 142.298C355.664 142.462 355.759 142.64 355.834 142.826C355.911 143.009 355.969 143.2 356.006 143.395C356.047 143.592 356.068 143.793 356.067 143.995C356.067 144.803 355.745 145.578 355.173 146.149C355.03 146.285 354.877 146.411 354.716 146.525C354.547 146.634 354.371 146.729 354.187 146.81C354.003 146.882 353.812 146.94 353.618 146.982C353.421 147.026 353.22 147.05 353.019 147.053Z" fill="white"/>
<path opacity="0.42" d="M191.897 397.104V396.951C191.896 396.17 192.195 395.418 192.732 394.851C193.269 394.284 194.003 393.944 194.783 393.903C195.184 393.882 195.584 393.941 195.962 394.075C196.34 394.21 196.687 394.418 196.985 394.687C197.282 394.956 197.523 395.281 197.695 395.643C197.866 396.006 197.965 396.398 197.984 396.799C197.984 396.799 197.984 396.9 197.984 396.951C197.985 397.734 197.685 398.487 197.146 399.055C196.607 399.622 195.87 399.961 195.088 400H194.925C194.146 399.996 193.398 399.693 192.835 399.155C192.272 398.616 191.936 397.882 191.897 397.104ZM174.205 399.898C173.428 399.852 172.699 399.51 172.166 398.943C171.634 398.376 171.338 397.627 171.339 396.85C171.334 396.796 171.334 396.741 171.339 396.687C171.389 395.882 171.756 395.129 172.36 394.594C172.963 394.058 173.755 393.784 174.56 393.831C175.337 393.878 176.066 394.22 176.599 394.787C177.132 395.353 177.428 396.102 177.426 396.88C177.431 396.934 177.431 396.989 177.426 397.043C177.38 397.819 177.038 398.548 176.471 399.081C175.904 399.614 175.155 399.91 174.378 399.908H174.195L174.205 399.898ZM212.364 395.305C212.354 395.149 212.354 394.993 212.364 394.838C212.354 394.108 212.606 393.4 213.074 392.84C213.542 392.281 214.195 391.908 214.914 391.789C215.309 391.723 215.714 391.736 216.103 391.827C216.493 391.918 216.862 392.085 217.187 392.318C217.513 392.551 217.789 392.846 218.001 393.186C218.213 393.526 218.355 393.904 218.42 394.299C218.435 394.454 218.435 394.611 218.42 394.766C218.43 395.496 218.178 396.204 217.71 396.764C217.242 397.323 216.589 397.696 215.87 397.815C215.704 397.825 215.538 397.825 215.372 397.815C214.655 397.817 213.961 397.566 213.411 397.107C212.861 396.648 212.49 396.01 212.364 395.305ZM153.423 397.52C152.718 397.399 152.078 397.033 151.615 396.486C151.152 395.94 150.897 395.248 150.893 394.533C150.878 394.353 150.878 394.173 150.893 393.994C151.032 393.198 151.481 392.489 152.142 392.024C152.804 391.559 153.623 391.376 154.419 391.514C155.124 391.636 155.765 392.002 156.227 392.548C156.69 393.095 156.946 393.786 156.949 394.502C156.964 394.681 156.964 394.862 156.949 395.041C156.824 395.755 156.448 396.401 155.889 396.862C155.331 397.324 154.626 397.572 153.901 397.561C153.75 397.542 153.6 397.511 153.454 397.47L153.423 397.52ZM232.465 391.149C232.379 390.848 232.341 390.536 232.353 390.224C232.352 389.56 232.568 388.914 232.968 388.384C233.367 387.854 233.929 387.469 234.568 387.287C235.344 387.068 236.176 387.165 236.88 387.557C237.585 387.949 238.106 388.605 238.328 389.38C238.408 389.655 238.449 389.938 238.45 390.224C238.449 390.886 238.232 391.53 237.832 392.058C237.432 392.586 236.872 392.97 236.235 393.151C235.964 393.231 235.684 393.272 235.401 393.273C234.748 393.269 234.113 393.056 233.589 392.665C233.066 392.273 232.682 391.724 232.495 391.098L232.465 391.149ZM133.068 392.754C132.432 392.569 131.873 392.18 131.477 391.649C131.081 391.117 130.869 390.47 130.873 389.807C130.874 389.525 130.915 389.244 130.995 388.974C131.23 388.203 131.761 387.556 132.471 387.175C133.181 386.794 134.014 386.71 134.786 386.941C135.422 387.129 135.98 387.52 136.374 388.054C136.768 388.587 136.978 389.235 136.971 389.899C136.969 390.181 136.928 390.461 136.849 390.732C136.662 391.363 136.276 391.917 135.749 392.311C135.221 392.705 134.58 392.918 133.922 392.917C133.639 392.887 133.361 392.815 133.099 392.703L133.068 392.754ZM251.966 384.736C251.809 384.36 251.73 383.955 251.732 383.547C251.737 382.947 251.919 382.362 252.255 381.865C252.591 381.368 253.067 380.981 253.622 380.753C253.992 380.6 254.389 380.521 254.79 380.522C255.191 380.522 255.587 380.601 255.957 380.755C256.327 380.909 256.663 381.134 256.946 381.418C257.229 381.702 257.453 382.039 257.606 382.409C257.764 382.785 257.84 383.19 257.829 383.598C257.823 384.195 257.642 384.778 257.307 385.273C256.973 385.768 256.501 386.154 255.949 386.383C255.58 386.539 255.182 386.618 254.781 386.616C254.183 386.6 253.603 386.408 253.113 386.065C252.624 385.722 252.246 385.242 252.027 384.685L251.966 384.736ZM113.354 385.753C112.801 385.518 112.33 385.126 111.999 384.626C111.668 384.125 111.493 383.538 111.494 382.938C111.496 382.532 111.579 382.132 111.738 381.759C111.886 381.376 112.11 381.027 112.396 380.733C112.683 380.439 113.025 380.206 113.404 380.047C113.783 379.889 114.189 379.808 114.6 379.811C115.01 379.813 115.416 379.899 115.793 380.062C116.345 380.296 116.817 380.688 117.147 381.189C117.478 381.689 117.654 382.276 117.652 382.877C117.656 383.286 117.573 383.691 117.408 384.066C117.175 384.617 116.785 385.087 116.286 385.418C115.787 385.748 115.202 385.925 114.604 385.925C114.207 385.913 113.817 385.823 113.455 385.661L113.354 385.753ZM270.634 376.19C270.389 375.744 270.26 375.245 270.258 374.737C270.253 374.188 270.397 373.648 270.675 373.174C270.952 372.699 271.352 372.309 271.833 372.044C272.181 371.835 272.568 371.698 272.97 371.641C273.372 371.583 273.782 371.607 274.174 371.71C274.567 371.813 274.936 371.994 275.258 372.241C275.58 372.489 275.849 372.798 276.05 373.151C276.294 373.594 276.427 374.089 276.436 374.594C276.441 375.144 276.296 375.684 276.019 376.158C275.742 376.632 275.342 377.022 274.861 377.287C274.41 377.539 273.904 377.672 273.388 377.674C272.838 377.678 272.298 377.534 271.824 377.257C271.35 376.979 270.96 376.579 270.695 376.098L270.634 376.19ZM94.5944 376.515C94.1298 376.233 93.7491 375.832 93.4918 375.353C93.2345 374.874 93.11 374.335 93.131 373.792C93.1237 373.26 93.2607 372.737 93.5273 372.277C93.7239 371.928 93.9875 371.621 94.3029 371.374C94.6182 371.127 94.9793 370.944 95.3653 370.837C95.7513 370.729 96.1548 370.698 96.5526 370.747C96.9504 370.795 97.3348 370.922 97.6837 371.119C98.1497 371.383 98.5378 371.766 98.809 372.228C99.0802 372.69 99.2248 373.215 99.2283 373.751C99.232 374.285 99.0953 374.811 98.832 375.275C98.566 375.744 98.1803 376.134 97.7144 376.406C97.2484 376.677 96.7189 376.82 96.1797 376.82C95.6456 376.824 95.12 376.687 94.6553 376.424L94.5944 376.515ZM288.245 365.459C287.876 364.943 287.677 364.325 287.676 363.69C287.676 363.202 287.793 362.722 288.018 362.288C288.242 361.855 288.567 361.482 288.966 361.201C289.625 360.734 290.443 360.547 291.239 360.683C292.036 360.818 292.746 361.264 293.214 361.922C293.579 362.439 293.775 363.057 293.773 363.69C293.772 364.176 293.656 364.654 293.433 365.085C293.21 365.517 292.888 365.888 292.492 366.17C291.979 366.537 291.365 366.736 290.734 366.739C290.247 366.74 289.767 366.624 289.334 366.402C288.901 366.179 288.527 365.855 288.245 365.459ZM77.0341 365.133C76.6546 364.839 76.35 364.459 76.1452 364.025C75.9403 363.59 75.841 363.114 75.8553 362.634C75.8615 362.002 76.0639 361.387 76.4346 360.876C76.9104 360.222 77.6262 359.784 78.4247 359.659C79.2231 359.533 80.0389 359.729 80.6925 360.205C81.0826 360.492 81.3998 360.867 81.6186 361.3C81.8374 361.732 81.9519 362.21 81.9526 362.695C81.9464 363.326 81.744 363.941 81.3734 364.453C81.0907 364.843 80.7195 365.161 80.2902 365.38C79.8609 365.599 79.3859 365.713 78.904 365.713C78.2443 365.724 77.5989 365.521 77.0646 365.133H77.0341ZM304.514 352.939C304.016 352.379 303.741 351.656 303.742 350.906C303.746 350.482 303.838 350.063 304.013 349.676C304.188 349.29 304.442 348.944 304.758 348.661C305.361 348.124 306.152 347.848 306.958 347.894C307.764 347.94 308.518 348.303 309.057 348.904C309.559 349.463 309.838 350.186 309.839 350.937C309.837 351.363 309.745 351.784 309.57 352.173C309.395 352.561 309.141 352.909 308.823 353.193C308.264 353.691 307.54 353.966 306.791 353.965C306.355 353.961 305.926 353.863 305.532 353.679C305.137 353.495 304.787 353.229 304.504 352.898L304.514 352.939ZM60.8356 351.984C60.518 351.7 60.2634 351.352 60.0884 350.963C59.9133 350.575 59.8217 350.154 59.8194 349.728C59.8239 348.976 60.1062 348.252 60.6121 347.695C60.8815 347.399 61.2068 347.158 61.5692 346.988C61.9316 346.817 62.3242 346.719 62.7243 346.701C63.1245 346.682 63.5244 346.742 63.9013 346.878C64.2782 347.013 64.6247 347.222 64.9208 347.492C65.2385 347.776 65.4931 348.124 65.6681 348.512C65.8431 348.901 65.9348 349.322 65.937 349.748C65.9357 350.503 65.6489 351.229 65.1342 351.78C64.8513 352.097 64.5053 352.351 64.1186 352.526C63.7319 352.701 63.3129 352.793 62.8884 352.797C62.1317 352.773 61.4108 352.469 60.8661 351.943L60.8356 351.984ZM319.31 338.6C318.993 338.316 318.738 337.968 318.563 337.58C318.388 337.191 318.296 336.77 318.294 336.344C318.293 335.595 318.568 334.871 319.066 334.312C319.333 334.012 319.656 333.769 320.017 333.594C320.378 333.42 320.77 333.319 321.17 333.296C321.571 333.273 321.971 333.33 322.35 333.462C322.728 333.595 323.077 333.8 323.375 334.068C323.692 334.351 323.945 334.697 324.12 335.083C324.295 335.47 324.388 335.889 324.391 336.314C324.399 337.064 324.124 337.79 323.619 338.346C323.333 338.666 322.982 338.922 322.59 339.097C322.197 339.273 321.772 339.363 321.343 339.362C320.595 339.366 319.871 339.095 319.31 338.6ZM46.2428 337.015C45.7516 336.452 45.4841 335.729 45.4908 334.982C45.4859 334.548 45.574 334.117 45.7493 333.719C45.9246 333.321 46.1829 332.965 46.507 332.676C47.115 332.144 47.9092 331.875 48.7151 331.929C49.5211 331.982 50.2729 332.353 50.8056 332.96C51.3004 333.521 51.5716 334.244 51.5677 334.992C51.5726 335.427 51.4845 335.858 51.3092 336.256C51.1339 336.654 50.8756 337.01 50.5515 337.299C49.989 337.79 49.2658 338.058 48.5191 338.051C48.0879 338.049 47.6621 337.956 47.2697 337.777C46.8773 337.599 46.5273 337.339 46.2428 337.015ZM332.379 322.727C331.982 322.444 331.659 322.071 331.436 321.638C331.213 321.204 331.098 320.724 331.099 320.237C331.088 319.606 331.284 318.988 331.657 318.479C332.124 317.819 332.833 317.371 333.63 317.234C334.426 317.097 335.245 317.281 335.905 317.747C336.304 318.029 336.629 318.402 336.854 318.835C337.078 319.268 337.196 319.749 337.196 320.237C337.196 320.867 337 321.481 336.637 321.995C336.355 322.394 335.982 322.719 335.549 322.944C335.116 323.168 334.635 323.286 334.147 323.286C333.514 323.288 332.896 323.092 332.379 322.727ZM33.3876 320.542C33.0238 320.021 32.8319 319.399 32.8389 318.764C32.8491 318.274 32.9773 317.793 33.2126 317.363C33.4478 316.934 33.7833 316.567 34.1904 316.294C34.5199 316.065 34.8912 315.904 35.2832 315.819C35.6751 315.734 36.08 315.727 36.4746 315.799C36.8692 315.871 37.2458 316.019 37.5827 316.237C37.9197 316.454 38.2104 316.736 38.4382 317.066C38.8001 317.584 38.9887 318.203 38.9768 318.835C38.9711 319.321 38.8492 319.799 38.6211 320.228C38.3931 320.658 38.0655 321.027 37.6659 321.304C37.1617 321.663 36.5574 321.855 35.9383 321.853C35.4383 321.86 34.944 321.745 34.4992 321.516C34.0544 321.287 33.6726 320.953 33.3876 320.542ZM343.588 305.482C343.111 305.221 342.713 304.837 342.434 304.371C342.156 303.905 342.006 303.372 342.003 302.829C342.01 302.321 342.143 301.822 342.389 301.376C342.779 300.669 343.433 300.146 344.209 299.921C344.984 299.697 345.817 299.788 346.525 300.177C346.999 300.439 347.396 300.823 347.672 301.289C347.949 301.755 348.097 302.287 348.1 302.829C348.101 303.338 347.971 303.838 347.724 304.282C347.463 304.764 347.077 305.166 346.606 305.447C346.136 305.728 345.599 305.877 345.051 305.878C344.537 305.876 344.033 305.739 343.588 305.482ZM22.4633 302.728C22.219 302.282 22.0931 301.782 22.0975 301.274C22.0998 300.726 22.2502 300.188 22.5328 299.717C22.8154 299.247 23.2197 298.861 23.7031 298.602C24.4147 298.22 25.2489 298.136 26.0225 298.368C26.796 298.601 27.4457 299.13 27.8289 299.842C28.0699 300.288 28.1956 300.787 28.1948 301.295C28.1924 301.843 28.042 302.381 27.7594 302.852C27.4769 303.322 27.0725 303.708 26.5891 303.967C26.1472 304.21 25.6504 304.336 25.1461 304.333C24.5956 304.333 24.0555 304.183 23.5832 303.901C23.1108 303.618 22.7239 303.213 22.4633 302.728ZM352.734 287.088C352.179 286.86 351.703 286.473 351.367 285.976C351.031 285.479 350.849 284.894 350.844 284.293C350.834 283.889 350.91 283.487 351.067 283.115C351.374 282.367 351.964 281.772 352.709 281.459C353.454 281.147 354.293 281.143 355.041 281.448C355.596 281.674 356.073 282.058 356.411 282.554C356.749 283.049 356.933 283.633 356.941 284.232C356.943 284.64 356.864 285.045 356.707 285.421C356.477 285.981 356.086 286.46 355.583 286.797C355.079 287.133 354.487 287.313 353.882 287.312C353.502 287.307 353.126 287.231 352.774 287.088H352.734ZM13.6324 283.806C13.4917 283.45 13.4193 283.07 13.419 282.688C13.4163 282.075 13.5981 281.477 13.9407 280.969C14.2833 280.462 14.7707 280.069 15.3396 279.842C16.089 279.545 16.9257 279.557 17.6665 279.875C18.4074 280.193 18.9921 280.791 19.2927 281.539C19.4398 281.894 19.5157 282.274 19.5163 282.657C19.5189 283.27 19.3371 283.869 18.9945 284.376C18.6519 284.884 18.1645 285.276 17.5956 285.503C17.238 285.651 16.8547 285.727 16.4676 285.726C15.857 285.727 15.2603 285.544 14.7548 285.202C14.2493 284.859 13.8583 284.373 13.6324 283.806ZM359.807 267.76C359.17 267.579 358.609 267.195 358.209 266.667C357.809 266.139 357.593 265.495 357.591 264.833C357.594 264.552 357.632 264.272 357.703 264C357.812 263.614 357.996 263.253 358.245 262.938C358.493 262.623 358.801 262.361 359.152 262.165C359.502 261.97 359.887 261.846 360.286 261.799C360.684 261.753 361.088 261.786 361.473 261.896C362.11 262.077 362.671 262.461 363.071 262.989C363.47 263.517 363.687 264.16 363.689 264.823C363.686 265.104 363.649 265.384 363.577 265.656C363.397 266.297 363.013 266.861 362.483 267.263C361.952 267.665 361.305 267.882 360.64 267.882C360.358 267.88 360.077 267.839 359.807 267.76ZM6.99647 263.979C6.91943 263.708 6.88179 263.428 6.88468 263.146C6.89223 262.483 7.11554 261.841 7.52079 261.317C7.92603 260.792 8.49114 260.414 9.13052 260.24C9.90795 260.034 10.735 260.144 11.4316 260.546C12.1282 260.948 12.638 261.608 12.8499 262.384C12.9269 262.655 12.9646 262.935 12.9617 263.217C12.9541 263.88 12.7308 264.522 12.3256 265.046C11.9203 265.571 11.3552 265.949 10.7158 266.123C10.4541 266.195 10.1843 266.232 9.91301 266.235C9.24721 266.229 8.60167 266.006 8.07502 265.598C7.54836 265.191 7.16956 264.622 6.99647 263.979ZM364.603 247.781C363.884 247.662 363.231 247.289 362.763 246.729C362.295 246.17 362.043 245.461 362.052 244.732C362.038 244.577 362.038 244.42 362.052 244.265C362.182 243.467 362.623 242.754 363.279 242.281C363.934 241.808 364.751 241.615 365.548 241.744C366.27 241.861 366.925 242.233 367.395 242.793C367.865 243.353 368.119 244.062 368.109 244.793C368.119 244.949 368.119 245.105 368.109 245.261C367.992 245.982 367.62 246.637 367.061 247.107C366.501 247.577 365.791 247.831 365.06 247.821C364.907 247.816 364.755 247.802 364.603 247.781ZM2.68771 243.543C2.67793 243.387 2.67793 243.231 2.68771 243.076C2.67904 242.342 2.93529 241.63 3.40944 241.07C3.88358 240.51 4.54379 240.139 5.2689 240.027C5.66534 239.965 6.07015 239.982 6.4601 240.076C6.85006 240.171 7.21749 240.342 7.54133 240.579C7.86516 240.816 8.13903 241.114 8.34722 241.457C8.55541 241.8 8.69382 242.181 8.75452 242.578C8.76462 242.73 8.76462 242.883 8.75452 243.035C8.76319 243.769 8.50694 244.481 8.03279 245.041C7.55865 245.601 6.89844 245.971 6.17333 246.084H5.70587C4.98333 246.087 4.28325 245.833 3.73046 245.367C3.17768 244.902 2.80813 244.256 2.68771 243.543ZM367.144 227.375C366.362 227.336 365.625 226.998 365.086 226.43C364.547 225.862 364.247 225.109 364.248 224.326V224.174C364.287 223.367 364.645 222.609 365.244 222.066C365.842 221.522 366.631 221.239 367.438 221.278C368.222 221.314 368.961 221.652 369.503 222.22C370.044 222.787 370.346 223.542 370.345 224.326C370.345 224.377 370.345 224.428 370.345 224.479C370.308 225.263 369.971 226.002 369.403 226.543C368.835 227.085 368.081 227.386 367.296 227.385H367.154L367.144 227.375ZM0.655274 222.741V222.548C0.654644 221.76 0.959047 221.003 1.50467 220.434C2.05029 219.866 2.79475 219.531 3.58198 219.499C3.99248 219.483 4.40206 219.55 4.78613 219.696C5.1702 219.841 5.52084 220.063 5.81697 220.348C6.11311 220.633 6.34864 220.974 6.50942 221.353C6.6702 221.731 6.7529 222.137 6.75258 222.548V222.711C6.75321 223.499 6.4488 224.256 5.90318 224.824C5.35757 225.393 4.6131 225.728 3.82587 225.759H3.70393C2.90063 225.759 2.12978 225.442 1.55891 224.877C0.988046 224.312 0.663307 223.544 0.655274 222.741ZM364.085 203.961V203.809C364.083 203.033 364.378 202.285 364.909 201.719C365.439 201.152 366.166 200.81 366.94 200.76C367.34 200.736 367.741 200.79 368.12 200.92C368.498 201.05 368.848 201.253 369.148 201.519C369.448 201.784 369.693 202.106 369.869 202.465C370.044 202.825 370.147 203.216 370.172 203.616C370.172 203.616 370.172 203.718 370.172 203.779C370.173 204.556 369.877 205.305 369.345 205.872C368.812 206.439 368.083 206.781 367.306 206.827H367.123C366.347 206.826 365.601 206.529 365.036 205.996C364.472 205.464 364.131 204.736 364.085 203.961ZM3.80555 205.1C3.03635 205.043 2.31718 204.697 1.79295 204.131C1.26872 203.566 0.978387 202.822 0.980464 202.051V201.817C1.0088 201.417 1.1157 201.027 1.29505 200.669C1.47439 200.31 1.72266 199.991 2.02565 199.728C2.32864 199.466 2.68039 199.266 3.06079 199.139C3.44119 199.013 3.84276 198.963 4.24252 198.992C5.01353 199.046 5.73521 199.391 6.26156 199.957C6.78792 200.523 7.07966 201.268 7.07776 202.041C7.07776 202.122 7.07776 202.203 7.07776 202.275C7.02366 203.046 6.67874 203.767 6.11276 204.294C5.54679 204.82 4.80202 205.112 4.02911 205.11H3.80555V205.1ZM361.697 183.932C361.682 183.753 361.682 183.572 361.697 183.393C361.7 182.679 361.954 181.988 362.415 181.442C362.876 180.896 363.513 180.529 364.217 180.406C365.012 180.267 365.829 180.449 366.491 180.911C367.151 181.374 367.602 182.08 367.743 182.875C367.775 183.053 367.792 183.233 367.794 183.414C367.791 184.128 367.536 184.818 367.076 185.364C366.615 185.91 365.977 186.277 365.274 186.401C365.096 186.433 364.916 186.45 364.735 186.452C364.012 186.461 363.31 186.212 362.753 185.75C362.196 185.288 361.822 184.644 361.697 183.932ZM6.08187 184.704C5.37353 184.572 4.73484 184.194 4.27908 183.635C3.82332 183.077 3.57995 182.376 3.59214 181.656C3.59794 181.475 3.61833 181.295 3.65311 181.117H3.70393C3.85206 180.324 4.30852 179.622 4.97329 179.165C5.63807 178.708 6.45695 178.533 7.25052 178.678C7.95886 178.81 8.59756 179.189 9.05332 179.747C9.50908 180.305 9.75245 181.006 9.74025 181.727C9.74404 181.908 9.72699 182.088 9.68944 182.265C9.56139 182.965 9.19261 183.598 8.64697 184.055C8.10134 184.511 7.41321 184.763 6.70176 184.765C6.4919 184.755 6.28387 184.721 6.08187 184.664V184.704ZM357.063 164.268C356.832 163.496 356.916 162.664 357.297 161.953C357.678 161.243 358.324 160.712 359.095 160.478C359.867 160.246 360.7 160.331 361.41 160.711C362.12 161.092 362.651 161.739 362.886 162.51C363.117 163.282 363.033 164.114 362.652 164.825C362.271 165.535 361.624 166.066 360.853 166.3C360.569 166.381 360.275 166.422 359.979 166.422C359.322 166.42 358.682 166.205 358.156 165.81C357.631 165.414 357.247 164.859 357.063 164.227V164.268ZM10.6548 164.624C10.0344 164.431 9.49174 164.045 9.10602 163.522C8.72031 162.999 8.5117 162.367 8.51063 161.717C8.50897 161.411 8.5535 161.106 8.64274 160.813C8.7589 160.429 8.94973 160.071 9.2043 159.761C9.45886 159.451 9.77214 159.194 10.1262 159.005C10.4802 158.817 10.8681 158.7 11.2674 158.661C11.6668 158.622 12.0699 158.663 12.4536 158.78C13.0759 158.971 13.6208 159.357 14.0085 159.88C14.3961 160.403 14.6062 161.036 14.6079 161.687C14.6096 161.994 14.5616 162.299 14.4657 162.591C14.2747 163.214 13.8896 163.759 13.3666 164.146C12.8436 164.534 12.2103 164.744 11.5593 164.746C11.2535 164.749 10.9488 164.708 10.6548 164.624ZM17.4838 145.224C16.9448 144.989 16.4853 144.603 16.1608 144.112C15.8362 143.622 15.6604 143.048 15.6546 142.46C15.6568 142.045 15.7396 141.634 15.8985 141.251C16.0584 140.877 16.2912 140.54 16.5833 140.258C16.8754 139.976 17.2209 139.755 17.5996 139.608C17.9782 139.461 18.3824 139.392 18.7883 139.403C19.1942 139.415 19.5937 139.507 19.9634 139.676C20.5119 139.915 20.9779 140.31 21.3032 140.813C21.6284 141.315 21.7986 141.902 21.7926 142.501C21.7924 142.91 21.7058 143.316 21.5385 143.69C21.3012 144.233 20.9104 144.696 20.414 145.021C19.9176 145.346 19.3372 145.519 18.7439 145.519C18.3076 145.512 17.8779 145.411 17.4838 145.224ZM26.4672 126.729C26.0019 126.46 25.6159 126.074 25.3483 125.608C25.0806 125.142 24.9407 124.614 24.9429 124.077C24.9417 123.543 25.0858 123.02 25.3595 122.562C25.7652 121.863 26.432 121.354 27.2134 121.146C27.9947 120.938 28.8266 121.049 29.526 121.455C29.9893 121.725 30.3733 122.112 30.6392 122.578C30.905 123.043 31.0433 123.571 31.0402 124.107C31.0398 124.64 30.8959 125.163 30.6235 125.621C30.3545 126.083 29.9688 126.466 29.505 126.732C29.0413 126.998 28.5158 127.137 27.9813 127.135C27.4498 127.134 26.9278 126.994 26.4672 126.729Z" fill="white"/>
<path opacity="0.42" d="M28.0932 126.942C27.8952 126.942 27.6977 126.922 27.5038 126.881C27.3098 126.839 27.1195 126.781 26.9348 126.709C26.7493 126.632 26.5722 126.537 26.4063 126.424C26.0675 126.207 25.7798 125.919 25.5629 125.581C25.4522 125.417 25.357 125.244 25.2783 125.062C25.2068 124.874 25.1491 124.68 25.1056 124.483C25.0242 124.091 25.0242 123.686 25.1056 123.294C25.1477 123.1 25.2055 122.91 25.2783 122.725C25.3591 122.542 25.4542 122.365 25.5629 122.197C25.6713 122.031 25.7973 121.878 25.9389 121.739C26.2969 121.386 26.7366 121.128 27.2188 120.986C27.7011 120.844 28.2109 120.823 28.703 120.926C28.8982 120.964 29.089 121.022 29.2721 121.099C29.4552 121.176 29.6319 121.268 29.8005 121.373C29.9644 121.488 30.1174 121.617 30.2578 121.76C30.4026 121.898 30.532 122.051 30.644 122.217C30.7533 122.383 30.8452 122.56 30.9183 122.745C31.0003 122.927 31.0584 123.118 31.0911 123.314C31.1724 123.707 31.1724 124.111 31.0911 124.503C31.0153 124.895 30.8634 125.268 30.644 125.601C30.5321 125.77 30.4027 125.927 30.2578 126.068C30.1194 126.21 29.9661 126.336 29.8005 126.444C29.6321 126.553 29.4554 126.648 29.2721 126.729C29.0873 126.802 28.897 126.86 28.703 126.902C28.5017 126.936 28.2974 126.95 28.0932 126.942Z" fill="white"/>
</g>
<path opacity="0.42" d="M114.258 137.013L125.284 124.453L136.3 137.013H114.258Z" fill="url(#paint18_linear)"/>
<g opacity="0.42">
<path opacity="0.42" d="M124.684 150.082C124.482 150.082 124.282 150.062 124.084 150.021C123.89 149.979 123.7 149.921 123.515 149.848C123.332 149.767 123.155 149.672 122.987 149.563C122.821 149.455 122.668 149.329 122.53 149.187C121.959 148.616 121.638 147.841 121.638 147.033C121.638 146.225 121.959 145.45 122.53 144.879C122.668 144.734 122.821 144.604 122.987 144.492C123.155 144.387 123.332 144.295 123.515 144.218C123.698 144.141 123.889 144.083 124.084 144.045C124.502 143.961 124.933 143.964 125.349 144.056C125.766 144.148 126.158 144.327 126.501 144.58C126.844 144.833 127.13 145.155 127.341 145.526C127.552 145.897 127.683 146.307 127.725 146.732C127.767 147.156 127.72 147.584 127.586 147.989C127.452 148.394 127.235 148.766 126.948 149.082C126.662 149.398 126.312 149.65 125.922 149.822C125.532 149.994 125.11 150.083 124.684 150.082Z" fill="white"/>
<path opacity="0.42" d="M121.636 169.481C121.636 168.673 121.957 167.897 122.529 167.326C123.1 166.754 123.876 166.433 124.684 166.433C125.493 166.433 126.268 166.754 126.84 167.326C127.412 167.897 127.733 168.673 127.733 169.481C127.733 170.29 127.412 171.065 126.84 171.637C126.268 172.209 125.493 172.53 124.684 172.53C123.876 172.53 123.1 172.209 122.529 171.637C121.957 171.065 121.636 170.29 121.636 169.481Z" fill="white"/>
<path opacity="0.42" d="M124.684 194.968C124.483 194.969 124.282 194.948 124.084 194.907C123.889 194.87 123.698 194.812 123.515 194.734C123.332 194.657 123.155 194.565 122.987 194.46C122.821 194.348 122.668 194.219 122.53 194.074C121.959 193.502 121.638 192.727 121.638 191.919C121.638 191.112 121.959 190.337 122.53 189.765C122.668 189.624 122.821 189.498 122.987 189.389C123.155 189.28 123.332 189.185 123.515 189.105C123.7 189.032 123.89 188.974 124.084 188.932C124.502 188.847 124.933 188.851 125.35 188.943C125.766 189.035 126.158 189.213 126.501 189.466C126.844 189.72 127.131 190.042 127.341 190.413C127.552 190.783 127.683 191.194 127.725 191.618C127.767 192.042 127.72 192.471 127.586 192.876C127.452 193.281 127.235 193.653 126.948 193.969C126.662 194.284 126.312 194.536 125.922 194.708C125.532 194.881 125.11 194.969 124.684 194.968Z" fill="white"/>
</g>
<path opacity="0.42" d="M287.889 114.352L306.465 93.1838L325.042 114.352H287.889Z" fill="url(#paint19_linear)"/>
<g opacity="0.42">
<path opacity="0.42" d="M305.865 127.42C305.057 127.419 304.282 127.098 303.711 126.526C303.14 125.954 302.819 125.179 302.819 124.371C302.819 123.564 303.14 122.789 303.711 122.217C304.295 121.67 305.065 121.365 305.865 121.365C306.665 121.365 307.436 121.67 308.019 122.217C308.445 122.643 308.735 123.186 308.853 123.777C308.97 124.368 308.91 124.981 308.679 125.538C308.449 126.094 308.058 126.57 307.557 126.905C307.057 127.24 306.468 127.42 305.865 127.42Z" fill="white"/>
<path opacity="0.42" d="M302.817 160.295C302.817 159.486 303.138 158.711 303.71 158.139C304.282 157.567 305.057 157.246 305.866 157.246C306.674 157.246 307.45 157.567 308.021 158.139C308.593 158.711 308.914 159.486 308.914 160.295C308.914 161.103 308.593 161.879 308.021 162.451C307.45 163.022 306.674 163.344 305.866 163.344C305.057 163.344 304.282 163.022 303.71 162.451C303.138 161.879 302.817 161.103 302.817 160.295ZM302.817 142.328C302.817 141.52 303.138 140.744 303.71 140.172C304.282 139.601 305.057 139.28 305.866 139.28C306.674 139.28 307.45 139.601 308.021 140.172C308.593 140.744 308.914 141.52 308.914 142.328C308.914 143.137 308.593 143.912 308.021 144.484C307.45 145.056 306.674 145.377 305.866 145.377C305.057 145.377 304.282 145.056 303.71 144.484C303.138 143.912 302.817 143.137 302.817 142.328Z" fill="white"/>
<path opacity="0.42" d="M305.866 181.3C305.668 181.3 305.47 181.279 305.276 181.239C305.08 181.206 304.888 181.148 304.707 181.066C304.523 180.991 304.346 180.899 304.179 180.792C304.01 180.68 303.853 180.551 303.711 180.406C303.575 180.263 303.449 180.11 303.335 179.948C303.227 179.78 303.131 179.603 303.051 179.42C302.978 179.235 302.92 179.045 302.878 178.851C302.838 178.654 302.817 178.453 302.817 178.251C302.817 178.053 302.838 177.856 302.878 177.662C302.92 177.465 302.978 177.271 303.051 177.083C303.129 176.902 303.225 176.728 303.335 176.564C303.447 176.398 303.572 176.242 303.711 176.097C303.853 175.955 304.01 175.829 304.179 175.721C304.346 175.61 304.523 175.515 304.707 175.436C304.892 175.364 305.082 175.306 305.276 175.264C305.767 175.167 306.274 175.192 306.752 175.338C307.231 175.483 307.666 175.744 308.02 176.097C308.165 176.239 308.294 176.395 308.406 176.564C308.517 176.726 308.609 176.9 308.68 177.083C308.761 177.269 308.823 177.463 308.863 177.662C308.878 177.858 308.878 178.055 308.863 178.251C308.878 178.451 308.878 178.651 308.863 178.851C308.823 179.047 308.761 179.237 308.68 179.42C308.607 179.605 308.515 179.782 308.406 179.948C308.292 180.112 308.162 180.265 308.02 180.406C307.449 180.978 306.674 181.299 305.866 181.3Z" fill="white"/>
</g>
<defs>
<linearGradient id="paint0_linear" x1="305.937" y1="115.246" x2="305.937" y2="66.0003" gradientUnits="userSpaceOnUse">
<stop stop-color="#6CA1C4"/>
<stop offset="0.23" stop-color="#7FABC8"/>
<stop offset="0.68" stop-color="#B0C4D1"/>
<stop offset="1" stop-color="#D6D7D8"/>
</linearGradient>
<linearGradient id="paint1_linear" x1="-111779" y1="8086.57" x2="-111779" y2="1854.13" gradientUnits="userSpaceOnUse">
<stop stop-color="#6CA1C4"/>
<stop offset="0.23" stop-color="#7FABC8"/>
<stop offset="0.68" stop-color="#B0C4D1"/>
<stop offset="1" stop-color="#D6D7D8"/>
</linearGradient>
<linearGradient id="paint2_linear" x1="58574.6" y1="17271.9" x2="58574.6" y2="119629" gradientUnits="userSpaceOnUse">
<stop stop-color="#6CA1C4"/>
<stop offset="0.23" stop-color="#7FABC8"/>
<stop offset="0.68" stop-color="#B0C4D1"/>
<stop offset="1" stop-color="#D6D7D8"/>
</linearGradient>
<linearGradient id="paint3_linear" x1="197.314" y1="43.3382" x2="197.314" y2="105.531" gradientUnits="userSpaceOnUse">
<stop stop-color="#003366"/>
<stop offset="0.34" stop-color="#01315F"/>
<stop offset="0.85" stop-color="#032C4B"/>
<stop offset="1" stop-color="#042A44"/>
</linearGradient>
<linearGradient id="paint4_linear" x1="194.732" y1="159.929" x2="194.732" y2="118.396" gradientUnits="userSpaceOnUse">
<stop stop-color="#F9E2B8"/>
<stop offset="0.32" stop-color="#F8E0B5"/>
<stop offset="0.55" stop-color="#F3D9AC"/>
<stop offset="0.75" stop-color="#EBCD9C"/>
<stop offset="0.94" stop-color="#DFBD86"/>
<stop offset="1" stop-color="#DBB77D"/>
</linearGradient>
<linearGradient id="paint5_linear" x1="3552.8" y1="1344" x2="3552.8" y2="1204.41" gradientUnits="userSpaceOnUse">
<stop stop-color="#F9E2B8"/>
<stop offset="0.32" stop-color="#F8E0B5"/>
<stop offset="0.55" stop-color="#F3D9AC"/>
<stop offset="0.75" stop-color="#EBCD9C"/>
<stop offset="0.94" stop-color="#DFBD86"/>
<stop offset="1" stop-color="#DBB77D"/>
</linearGradient>
<linearGradient id="paint6_linear" x1="4141.79" y1="1339.59" x2="4141.79" y2="1200.12" gradientUnits="userSpaceOnUse">
<stop stop-color="#F9E2B8"/>
<stop offset="0.32" stop-color="#F8E0B5"/>
<stop offset="0.55" stop-color="#F3D9AC"/>
<stop offset="0.75" stop-color="#EBCD9C"/>
<stop offset="0.94" stop-color="#DFBD86"/>
<stop offset="1" stop-color="#DBB77D"/>
</linearGradient>
<linearGradient id="paint7_linear" x1="164.886" y1="272.546" x2="205.088" y2="272.546" gradientUnits="userSpaceOnUse">
<stop stop-color="#F43B56"/>
<stop offset="0.48" stop-color="#F23A53"/>
<stop offset="0.77" stop-color="#EB354B"/>
<stop offset="1" stop-color="#E02D3E"/>
</linearGradient>
<linearGradient id="paint8_linear" x1="244.446" y1="396.758" x2="244.446" y2="365.55" gradientUnits="userSpaceOnUse">
<stop stop-color="#285B84"/>
<stop offset="0.31" stop-color="#21547F"/>
<stop offset="0.76" stop-color="#0D4070"/>
<stop offset="1" stop-color="#003366"/>
</linearGradient>
<linearGradient id="paint9_linear" x1="57.1162" y1="152.267" x2="57.1162" y2="264.345" gradientUnits="userSpaceOnUse">
<stop stop-color="white"/>
<stop offset="0.44" stop-color="#B0CDDF"/>
<stop offset="0.75" stop-color="#7FADCC"/>
<stop offset="0.9" stop-color="#6CA1C4"/>
</linearGradient>
<linearGradient id="paint10_linear" x1="8486.78" y1="5417.03" x2="8486.78" y2="12735.7" gradientUnits="userSpaceOnUse">
<stop stop-color="white"/>
<stop offset="0.44" stop-color="#B0CDDF"/>
<stop offset="0.75" stop-color="#7FADCC"/>
<stop offset="0.9" stop-color="#6CA1C4"/>
</linearGradient>
<linearGradient id="paint11_linear" x1="17789.3" y1="29036.7" x2="17789.3" y2="72006" gradientUnits="userSpaceOnUse">
<stop stop-color="white"/>
<stop offset="0.44" stop-color="#B0CDDF"/>
<stop offset="0.75" stop-color="#7FADCC"/>
<stop offset="0.9" stop-color="#6CA1C4"/>
</linearGradient>
<linearGradient id="paint12_linear" x1="32426.4" y1="26172.2" x2="32426.4" y2="67499.5" gradientUnits="userSpaceOnUse">
<stop stop-color="white"/>
<stop offset="0.44" stop-color="#B0CDDF"/>
<stop offset="0.75" stop-color="#7FADCC"/>
<stop offset="0.9" stop-color="#6CA1C4"/>
</linearGradient>
<linearGradient id="paint13_linear" x1="7581.34" y1="16553" x2="7581.34" y2="7510.49" gradientUnits="userSpaceOnUse">
<stop stop-color="#285B84"/>
<stop offset="0.31" stop-color="#21547F"/>
<stop offset="0.76" stop-color="#0D4070"/>
<stop offset="1" stop-color="#003366"/>
</linearGradient>
<linearGradient id="paint14_linear" x1="2226.64" y1="11663" x2="2226.64" y2="5349.27" gradientUnits="userSpaceOnUse">
<stop stop-color="#285B84"/>
<stop offset="0.31" stop-color="#21547F"/>
<stop offset="0.76" stop-color="#0D4070"/>
<stop offset="1" stop-color="#003366"/>
</linearGradient>
<linearGradient id="paint15_linear" x1="5967.59" y1="14862.1" x2="5967.59" y2="6764.81" gradientUnits="userSpaceOnUse">
<stop stop-color="#285B84"/>
<stop offset="0.31" stop-color="#21547F"/>
<stop offset="0.76" stop-color="#0D4070"/>
<stop offset="1" stop-color="#003366"/>
</linearGradient>
<linearGradient id="paint16_linear" x1="10513.3" y1="742.439" x2="10513.3" y2="1745.6" gradientUnits="userSpaceOnUse">
<stop stop-color="#003366"/>
<stop offset="0.34" stop-color="#01315F"/>
<stop offset="0.85" stop-color="#032C4B"/>
<stop offset="1" stop-color="#042A44"/>
</linearGradient>
<linearGradient id="paint17_linear" x1="4257.96" y1="5504.89" x2="5257.78" y2="5504.89" gradientUnits="userSpaceOnUse">
<stop stop-color="#F43B56"/>
<stop offset="0.48" stop-color="#F23A53"/>
<stop offset="0.77" stop-color="#EB354B"/>
<stop offset="1" stop-color="#E02D3E"/>
</linearGradient>
<linearGradient id="paint18_linear" x1="125.274" y1="124.453" x2="125.274" y2="137.023" gradientUnits="userSpaceOnUse">
<stop stop-color="#D6D7D8"/>
<stop offset="0.17" stop-color="#CCD2D6"/>
<stop offset="0.46" stop-color="#B0C3D1"/>
<stop offset="0.83" stop-color="#82ACC8"/>
<stop offset="1" stop-color="#6CA1C4"/>
</linearGradient>
<linearGradient id="paint19_linear" x1="-9757.14" y1="-37070.7" x2="-9757.14" y2="-36629.8" gradientUnits="userSpaceOnUse">
<stop stop-color="#D6D7D8"/>
<stop offset="0.17" stop-color="#CCD2D6"/>
<stop offset="0.46" stop-color="#B0C3D1"/>
<stop offset="0.83" stop-color="#82ACC8"/>
<stop offset="1" stop-color="#6CA1C4"/>
</linearGradient>
</defs>
</svg>
