<svg width="316" height="400" viewBox="0 0 316 400" fill="none" xmlns="http://www.w3.org/2000/svg">
<path d="M235.65 400H21.2614L27.0715 394.19H241.46L235.65 400Z" fill="url(#paint0_linear)"/>
<path d="M200.915 165.239L209.306 156.207H238.551L216.835 178.892C216.166 176.96 215.498 175.235 215.498 175.235L213.298 175.797C213.298 175.797 214.08 179.046 214.595 181.246L211.326 184.656L206.645 181.64L201.41 184.428L202.246 186.434L199.839 186.548L198.381 186.615L191.154 186.942L180.296 187.444L190.552 176.385L200.915 165.239Z" fill="#042A44"/>
<path d="M162.25 241.233C154.554 257.186 136.589 294.608 135.506 298.639C134.101 303.781 126.814 347.996 126.419 356.099C126.025 364.203 124.928 388.192 124.928 388.192C124.928 388.192 117.146 390.439 109.256 388.574C108.77 388.467 108.282 388.34 107.792 388.192C106.12 362.391 108.24 325.036 110.921 318.116C113.602 311.196 115.294 288.249 117.654 277.752C119.874 267.91 124.801 237.509 125.41 233.745C132.096 235.296 152.461 239.401 156.486 232.842C159.161 228.529 160.886 217.384 162.009 206.379L167.739 210.123L171.289 206.111C172.7 218.781 174.592 230.956 176.792 233.437C180.356 237.449 186.152 237.241 190.164 236.426C190.164 236.426 194.804 290.148 194.791 304.069C194.791 308.963 198.341 384.722 198.341 384.722C192.653 385.993 186.862 386.745 181.038 386.969C181.038 386.969 174.913 333.253 174.913 325.511C174.913 317.768 176.738 308.575 176.738 308.575L162.404 241.306L162.25 241.233Z" fill="url(#paint1_linear)"/>
<path d="M202.259 186.441L204.606 192.084L201.738 189.73L199.852 186.555L202.259 186.441Z" fill="url(#paint2_linear)"/>
<path d="M199.852 191.121L203.195 194.07C196.589 193.715 191.16 187.083 191.16 187.083V186.949L198.388 186.621L199.852 191.121Z" fill="url(#paint3_linear)"/>
<path d="M199.953 162.05C200.283 163.155 200.604 164.218 200.916 165.239L190.566 176.391V170.969L189.322 168.054C187.891 167.292 184.555 165.941 184.555 165.941L189.703 165.66L195.961 168.301L198.375 165.941L192.177 162.712L199.17 163.661L199.839 162.077L199.953 162.05Z" fill="url(#paint4_linear)"/>
<path d="M131.046 197.633L133.466 186.541C143.81 185.491 153.384 183.907 161.688 181.419C161.688 181.419 161.508 180.804 161.294 179.815L163.821 179.32C163.821 179.32 163.386 192.726 161.996 206.345C160.873 217.35 159.127 228.496 156.473 232.809C152.461 239.368 132.076 235.262 125.396 233.711C124.059 233.404 123.27 233.196 123.27 233.196L131.046 197.633Z" fill="url(#paint5_linear)"/>
<path d="M161.294 179.855C161.508 180.844 161.688 181.46 161.688 181.46C153.384 183.947 143.81 185.531 133.466 186.581C129.943 186.942 126.339 187.25 122.655 187.484L118.737 184.615C117.4 182.035 116.002 169.772 116.156 158.834C116.31 148.21 119.693 131.702 124.28 124.153L139.939 117.24L138.321 122.435L143.382 121.994L138.321 129.028C138.321 129.028 160.11 162.511 164.216 165.975C159.295 168.021 160.518 176.298 161.294 179.855Z" fill="url(#paint6_linear)"/>
<path d="M191.174 187.082L194.804 235.048C193.305 235.632 191.757 236.08 190.178 236.385C186.126 237.201 180.342 237.415 176.805 233.397C174.606 230.916 172.714 218.741 171.303 206.071C169.571 190.486 168.555 174.145 168.555 174.145L170.721 173.684C170.721 173.684 173.589 174.834 175.963 174.546C178.337 174.259 184.08 168.662 184.08 168.662L187.182 169.458L188.773 171.143L190.592 170.962V176.385L180.336 187.443L191.194 186.942L191.174 187.082Z" fill="url(#paint7_linear)"/>
<path d="M174.613 131.668H174.512L169.311 127.991L164.156 124.361C164.156 124.361 168.435 121.954 170.313 118.865V116.19L173.275 119.145C174.091 121.593 174.552 126.193 174.613 131.668Z" fill="white"/>
<path d="M164.156 124.361L158.593 126.768L152.174 129.542H152.081C150.075 121.365 148.738 114.606 148.738 112.312L150.783 110.066C151.726 112.887 157.075 122.181 164.156 124.361Z" fill="white"/>
<path d="M162.631 134.189C162.631 134.189 160.478 154.448 160.572 157.383H160.511C157.193 148.276 154.379 138.992 152.08 129.576H152.174L158.593 126.801L162.631 134.189Z" fill="white"/>
<path d="M174.492 131.668H174.612C174.686 139.692 173.85 149.661 171.938 157.383C171.978 155.444 167.565 133.801 167.565 133.801L169.277 128.018L174.492 131.668Z" fill="white"/>
<path d="M189.79 159.703L185.979 158.801L175.281 164.257L171.323 165.146V165.079C178.049 157.885 183.251 132.825 183.251 132.825L177.521 126.139L180.824 124.381L190.231 129.315C191.635 132.658 196.249 149.601 199.966 162.077H199.866L189.79 159.703Z" fill="url(#paint8_linear)"/>
<path d="M171.269 206.078L167.719 210.089L161.989 206.345C163.38 192.726 163.814 179.32 163.814 179.32C163.575 177.968 163.432 176.601 163.387 175.228L168.521 174.145C168.521 174.145 169.544 190.492 171.269 206.078Z" fill="url(#paint9_linear)"/>
<path d="M167.559 133.801C167.559 133.801 171.972 155.444 171.931 157.383C171.29 160.257 170.288 163.038 168.949 165.66L165.713 166.383C166.142 165.958 166.648 165.619 167.204 165.386L164.216 165.941C162.82 163.168 161.583 160.317 160.512 157.403H160.572C160.478 154.461 162.631 134.209 162.631 134.209L158.62 126.794L164.182 124.387L169.317 128.011L167.559 133.801Z" fill="url(#paint10_linear)"/>
<path d="M190.218 85.5347L185.404 88.0219L183.004 87.8013L177.655 87.2998L169.505 83.5289L168.869 90.4088L162.685 92.3077L160.291 99.9298L158.566 98.1714C158.952 96.5999 159.089 94.978 158.974 93.3641C158.958 92.6781 158.717 92.0163 158.289 91.4802C157.86 90.9442 157.268 90.5635 156.602 90.3965C155.937 90.2296 155.235 90.2855 154.604 90.5559C153.973 90.8262 153.449 91.296 153.11 91.8932C151.145 95.2964 152.716 98.5057 153.919 99.2812L152.683 104.015L149.206 101.755L148.089 85.1536L156.179 73.2123L176.619 72.1626L190.218 85.5347Z" fill="url(#paint11_linear)"/>
<path d="M124.915 388.166L124.982 393.862L122.976 396.623H109.704L107.752 393.675L109.236 388.56C117.112 390.412 124.915 388.166 124.915 388.166Z" fill="#003366"/>
<path d="M229.492 394.751L229.806 396.624H190.993L188.987 394.357L187.075 396.624H181.392L181.024 386.935C186.848 386.712 192.64 385.96 198.328 384.689L206.197 390.84L229.492 394.751Z" fill="#003366"/>
<path d="M160.512 157.403C161.584 160.317 162.82 163.168 164.216 165.941C160.111 162.478 138.321 128.994 138.321 128.994L143.382 121.96L138.321 122.402L139.939 117.207L148.731 112.326C148.731 114.619 150.068 121.379 152.074 129.556C154.373 138.986 157.19 148.283 160.512 157.403Z" fill="#4278A5"/>
<path d="M218.072 183.198L217.637 189.663L211.947 194.096L205.455 196.102L203.209 194.096L199.866 191.148L198.408 186.648L199.866 186.581L201.751 189.757L204.619 192.11L202.272 186.467L201.437 184.462L206.672 181.674L211.352 184.689L214.762 186.895C214.931 185.672 215.027 184.439 215.05 183.205C215.016 183.011 214.842 182.249 214.622 181.279C214.107 179.079 213.325 175.83 213.325 175.83L215.524 175.268C215.524 175.268 216.193 176.993 216.861 178.926C217.364 180.32 217.769 181.747 218.072 183.198Z" fill="#F9E2B8"/>
<path d="M199.852 162.077L199.184 163.661L192.19 162.712L198.388 165.941L195.975 168.301L189.716 165.66L184.568 165.941C184.568 165.941 187.911 167.278 189.335 168.054L190.579 170.969L188.76 171.15L187.169 169.465L184.067 168.669C184.067 168.669 178.33 174.265 175.95 174.553C173.57 174.84 170.708 173.69 170.708 173.69L168.542 174.152L163.407 175.235C163.3 172.266 163.634 168.415 165.727 166.383L168.963 165.66L171.336 165.132L175.295 164.256L185.992 158.801L189.803 159.703L199.852 162.077Z" fill="#F9E2B8"/>
<path d="M177.508 126.126L183.238 132.812C183.238 132.812 178.036 157.871 171.31 165.065V165.132L168.936 165.66C170.281 163.039 171.29 160.258 171.938 157.383C173.837 149.661 174.673 139.719 174.613 131.669C174.572 126.193 174.111 121.593 173.275 119.159L180.81 124.361L177.508 126.126Z" fill="#4278A5"/>
<path d="M177.668 87.2997L183.017 87.8012V88.0218C182.876 88.998 181.679 93.8855 180.931 97.155H180.844L178.316 96.259C178.316 96.259 175.455 101.173 179.192 103.085L179.386 103.166C178.187 105.8 176.743 108.316 175.074 110.681C173.569 112.954 172.52 115.542 170.313 116.11C170.094 116.165 169.87 116.201 169.645 116.217C165.265 116.545 159.141 112.626 156.647 109.531C153.885 106.088 153.885 99.3012 153.885 99.3012C152.682 98.5256 151.111 95.2895 153.076 91.9131C153.415 91.3159 153.939 90.8462 154.57 90.5758C155.201 90.3055 155.903 90.2495 156.568 90.4165C157.234 90.5834 157.826 90.9641 158.255 91.5002C158.683 92.0362 158.924 92.698 158.94 93.384C159.055 94.9979 158.918 96.6199 158.532 98.1913L160.304 99.9497L162.698 92.3276L168.882 90.4288L169.517 83.5488L177.668 87.2997ZM175.04 95.6105L168.08 94.0392C168.08 94.0392 166.001 100.772 170.286 101.294C174.572 101.815 175.04 95.6105 175.04 95.6105Z" fill="#F9E2B8"/>
<path d="M180.811 97.1351H180.898C180.617 98.3453 180.403 99.3348 180.329 99.8095C180.14 100.959 179.812 102.082 179.353 103.153L179.159 103.072C175.422 101.16 178.283 96.2458 178.283 96.2458L180.811 97.1351Z" fill="url(#paint12_linear)"/>
<path d="M168.08 94.0527L175.041 95.6106C175.041 95.6106 174.573 101.822 170.287 101.294C166.001 100.766 168.08 94.0527 168.08 94.0527Z" fill="url(#paint13_linear)"/>
<path d="M170.313 116.204V118.878C168.434 121.967 164.155 124.374 164.155 124.374C157.075 122.188 151.726 112.894 150.783 110.106L152.655 104.022L153.892 99.2878C153.892 99.2878 153.892 106.074 156.654 109.518C159.147 112.613 165.272 116.531 169.651 116.204C169.877 116.188 170.101 116.152 170.32 116.097L170.313 116.204Z" fill="url(#paint14_linear)"/>
<path d="M166.636 165.493L164.216 165.941C164.216 165.941 160.131 167.693 160.612 175.629C160.866 179.821 161.281 179.821 161.281 179.821L163.808 179.327C163.808 179.327 161.996 167.773 166.636 165.493Z" fill="white"/>
<path d="M167.786 210.531L161.815 206.633L162.183 206.071L167.666 209.655L171.029 205.857L171.53 206.298L167.786 210.531Z" fill="#E02D3E"/>
<path d="M173.081 221.817C172.359 217.624 171.637 212.342 170.949 206.111C169.23 190.733 168.207 174.332 168.194 174.172L168.862 174.132C168.862 174.292 169.899 190.639 171.61 206.037C172.279 212.255 173.021 217.524 173.743 221.703L173.081 221.817Z" fill="#003366"/>
<path d="M192.07 203.256L190.86 187.297L179.493 187.818L180.035 187.223L190.298 176.164L209.139 155.872H239.333L217.076 179.119L216.594 178.658L237.769 156.541H209.453L190.813 176.599C186.326 181.426 182.502 185.558 181.111 187.056L191.481 186.581L192.732 203.183L192.07 203.256Z" fill="#003366"/>
<path d="M192.943 206.021L192.277 206.071L192.431 208.111L193.097 208.061L192.943 206.021Z" fill="#003366"/>
<path d="M185.658 237.208C182.938 237.309 180.258 236.531 178.016 234.988L178.41 234.453C181.887 237.034 186.687 236.753 190.111 236.064C191.59 235.769 193.043 235.355 194.457 234.828L193.955 228.182L194.624 228.135L195.165 235.262L194.945 235.356C193.428 235.942 191.862 236.39 190.264 236.693C188.75 237.016 187.206 237.188 185.658 237.208Z" fill="#003366"/>
<path d="M175.87 232.608C175.639 232.137 175.435 231.652 175.261 231.157L175.89 230.93C176.053 231.398 176.245 231.856 176.465 232.3L175.87 232.608Z" fill="#003366"/>
<path d="M231.458 145.763H230.789V54.2773H262.22V54.9459H231.458V145.763Z" fill="#34679A"/>
<path d="M217.978 145.763H217.31V55.1466H125.249V54.478H217.978V145.763Z" fill="#34679A"/>
<path d="M224.798 145.763H224.13V17.6111H281.182V18.2797H224.798V145.763Z" fill="#34679A"/>
<path d="M210.978 145.763H210.309V33.5641H175.936V32.8955H210.978V145.763Z" fill="#34679A"/>
<path d="M159.423 74.9895L157.747 75.0747L157.781 75.7425L159.457 75.6573L159.423 74.9895Z" fill="white"/>
<path d="M175.024 74.2105L161.275 74.9094L161.309 75.5772L175.058 74.8783L175.024 74.2105Z" fill="white"/>
<path d="M157.764 111.182C157.273 110.725 156.813 110.236 156.387 109.718L156.908 109.304C157.321 109.798 157.767 110.263 158.245 110.694L157.764 111.182Z" fill="#DBC197"/>
<path d="M169.11 116.551C165.767 116.551 161.863 114.459 159.228 112.419L159.636 111.891C162.204 113.897 166.322 116.11 169.625 115.863C169.817 115.844 170.006 115.813 170.193 115.769C171.805 115.354 172.794 113.703 173.837 111.965L173.884 111.891L174.452 112.239L174.412 112.306C173.289 114.171 172.233 115.929 170.401 116.411C170.181 116.467 169.958 116.507 169.732 116.531C169.491 116.545 169.304 116.551 169.11 116.551Z" fill="#DBC197"/>
<path d="M156.928 157.169L155.932 155.765L156.48 155.377L157.47 156.781L156.928 157.169Z" fill="#003366"/>
<path d="M154.822 154.18C147.333 143.483 138.107 129.315 138.04 129.175L138.601 128.813C138.695 128.954 147.888 143.075 155.37 153.799L154.822 154.18Z" fill="#003366"/>
<path d="M143.364 121.616L138.302 122.058L138.36 122.724L143.422 122.282L143.364 121.616Z" fill="#003366"/>
<path d="M175.95 158.045L175.281 157.791C175.522 157.236 175.769 156.668 176.003 156.093L176.625 156.347C176.411 156.915 176.164 157.49 175.95 158.045Z" fill="#003366"/>
<path d="M177.441 154.327L176.819 154.093C179.325 147.122 181.36 139.989 182.91 132.745L183.579 132.879C182.016 140.158 179.965 147.324 177.441 154.327Z" fill="#003366"/>
<path d="M180.66 124.053L177.356 125.815L177.671 126.405L180.974 124.643L180.66 124.053Z" fill="#003366"/>
<path d="M158.886 126.628L158.299 126.947L162.337 134.364L162.925 134.044L158.886 126.628Z" fill="#E02D3E"/>
<path d="M170.705 147.937L170.048 148.062L170.341 149.612L170.998 149.488L170.705 147.937Z" fill="#E02D3E"/>
<path d="M169.652 146.05C168.502 140.08 167.245 133.928 167.231 133.868V133.788L168.963 127.924L169.631 128.112L167.927 133.815C168.08 134.564 169.264 140.327 170.327 145.923L169.652 146.05Z" fill="#E02D3E"/>
<path d="M190.58 171.941L189.913 171.988L190.221 176.43L190.888 176.384L190.58 171.941Z" fill="#003366"/>
<path d="M189.5 151.315L188.832 151.346L189.139 157.931L189.807 157.9L189.5 151.315Z" fill="#003366"/>
<path d="M163.427 175.569H163.394V174.9L170.748 173.343L170.842 173.376C170.842 173.376 173.663 174.493 175.917 174.219C177.782 173.998 182.268 169.966 183.84 168.428L183.98 168.295L187.323 169.164L188.981 170.922L188.493 171.377L186.969 169.766L184.141 169.037C183.231 169.913 178.25 174.606 175.963 174.887C174.154 174.981 172.345 174.692 170.655 174.038L163.427 175.569Z" fill="#DBC197"/>
<path d="M195.834 168.609L189.649 165.995L184.575 166.276L184.541 165.607L189.763 165.32L196.095 167.994L195.834 168.609Z" fill="#DBC197"/>
<path d="M199.378 164.029L192.137 163.039L192.224 162.377L198.963 163.293L199.472 162.117L200.087 162.377L199.378 164.029Z" fill="#DBC197"/>
<path d="M205.368 196.423L202.981 194.317L203.423 193.815L205.529 195.674L211.787 193.769L217.31 189.463L217.731 183.185C217.419 181.763 217.01 180.365 216.507 178.999C215.839 177.1 215.17 175.375 215.17 175.355L215.792 175.115C215.792 175.115 216.461 176.866 217.129 178.785C217.643 180.2 218.063 181.647 218.386 183.118V183.158L217.938 189.81L212.054 194.39L205.368 196.423Z" fill="#DBC197"/>
<path d="M202.988 194.317L199.565 191.308L198.081 186.721L198.716 186.514L200.147 190.927L203.43 193.815L202.988 194.317Z" fill="#DBC197"/>
<path d="M200.688 193.989C200.002 193.794 199.332 193.549 198.682 193.254L198.957 192.646C199.586 192.924 200.234 193.159 200.895 193.348L200.688 193.989Z" fill="#003366"/>
<path d="M196.583 192.144C194.461 190.824 192.552 189.19 190.92 187.297L191.435 186.869C193.025 188.693 194.877 190.27 196.931 191.549L196.583 192.144Z" fill="#003366"/>
<path d="M161.24 215.331L160.572 215.238C160.946 212.563 161.307 209.555 161.641 206.318C163.012 192.866 163.46 179.447 163.46 179.313H164.129C164.129 179.447 163.681 192.886 162.303 206.359C161.996 209.628 161.641 212.617 161.24 215.331Z" fill="#003366"/>
<path d="M160.746 218.721L160.077 218.614C160.15 218.126 160.231 217.631 160.304 217.136L160.973 217.237C160.906 217.738 160.826 218.233 160.746 218.721Z" fill="#003366"/>
<path d="M131.481 235.309L129.883 235.015L130.01 234.346L131.595 234.647L131.481 235.309Z" fill="#003366"/>
<path d="M128.091 234.681C127.021 234.453 126.085 234.246 125.323 234.072C123.986 233.758 123.19 233.551 123.19 233.551L122.876 233.471L124.594 225.635L125.263 225.775L123.685 232.982C124.033 233.069 124.654 233.223 125.497 233.417C126.339 233.611 127.182 233.805 128.252 234.026L128.091 234.681Z" fill="#003366"/>
<path d="M125.393 221.97L124.984 223.845L125.637 223.988L126.046 222.113L125.393 221.97Z" fill="#003366"/>
<path d="M128.794 206.384L128.391 208.233L129.044 208.376L129.447 206.527L128.794 206.384Z" fill="#003366"/>
<path d="M133.138 186.484L129.285 204.155L129.939 204.297L133.791 186.627L133.138 186.484Z" fill="#003366"/>
<path d="M162.741 241.225L162.088 241.365L171.597 285.913L172.251 285.774L162.741 241.225Z" fill="#003366"/>
<path d="M173.486 291.555L172.832 291.694L173.541 295.016L174.195 294.876L173.486 291.555Z" fill="#003366"/>
<path d="M178.323 365.326C178.176 363.989 178.029 362.612 177.882 361.228L178.551 361.161C178.698 362.547 178.845 363.911 178.992 365.253L178.323 365.326Z" fill="#003366"/>
<path d="M180.757 387.276L180.724 386.975C180.724 386.975 179.888 379.621 178.831 370.006L179.5 369.933C180.429 378.417 181.192 385.117 181.359 386.594C186.962 386.365 192.535 385.647 198.014 384.448L197.699 377.662H198.368L198.709 385.016L198.442 385.083C192.726 386.353 186.908 387.107 181.058 387.336L180.757 387.276Z" fill="#003366"/>
<path d="M197.906 368.241L197.238 368.271L197.499 373.922L198.167 373.891L197.906 368.241Z" fill="#003366"/>
<path d="M191.492 248.203L190.825 248.258L191.176 252.583L191.843 252.529L191.492 248.203Z" fill="#003366"/>
<path d="M190.545 244.71C190.124 239.628 189.843 236.392 189.843 236.392L190.512 236.339C190.512 236.339 190.793 239.568 191.214 244.656L190.545 244.71Z" fill="#003366"/>
<path d="M123.03 250.125L122.361 250.012C123.611 242.61 124.668 236.111 125.035 233.664L125.704 233.771C125.33 236.225 124.273 242.704 123.03 250.125Z" fill="#003366"/>
<path d="M121.866 256.938L121.198 256.825C121.391 255.688 121.592 254.551 121.779 253.428L122.448 253.542C122.254 254.665 122.06 255.802 121.866 256.938Z" fill="#003366"/>
<path d="M106.983 377.628C106.936 376.064 106.91 374.479 106.89 372.881H107.558C107.558 374.479 107.605 376.064 107.652 377.628H106.983Z" fill="#003366"/>
<path d="M115.936 389.616C113.659 389.63 111.389 389.381 109.169 388.874C108.675 388.761 108.173 388.634 107.685 388.487L107.464 388.42V388.186C107.331 386.12 107.217 383.913 107.13 381.633H107.799C107.886 383.82 107.993 385.939 108.12 387.938C108.521 388.052 108.929 388.159 109.337 388.246C116.303 389.891 123.277 388.279 124.614 387.932C124.735 385.391 125.737 363.735 126.092 356.113C126.473 347.962 133.774 303.774 135.191 298.579C136.288 294.568 154.287 257.045 161.969 241.112C164.089 236.726 165.433 233.965 165.433 233.965L166.034 234.259C166.034 234.259 164.697 237.021 162.571 241.407C154.895 257.319 136.923 294.768 135.827 298.753C134.409 303.935 127.135 348.016 126.747 356.139C126.359 364.263 125.256 388.232 125.256 388.232V388.473L125.022 388.54C122.05 389.276 118.997 389.638 115.936 389.616Z" fill="#003366"/>
<path d="M143.723 204.246L143.061 204.192L143.502 199.158L131.019 197.967L131.08 197.299L144.231 198.556L143.723 204.246Z" fill="#003366"/>
<path d="M184.227 203.998L183.579 198.563L191.923 197.66L191.996 198.329L184.321 199.151L184.889 203.918L184.227 203.998Z" fill="#003366"/>
<path d="M172.774 130.057L172.387 130.603L173.092 131.101L173.478 130.555L172.774 130.057Z" fill="#F5F4F6"/>
<path d="M170.46 129.228L164.115 124.748L156.848 127.891L156.58 127.282L164.196 123.986L170.848 128.68L170.46 129.228Z" fill="#F5F4F6"/>
<path d="M154.472 128.187L153.416 128.643L153.681 129.257L154.737 128.801L154.472 128.187Z" fill="#F5F4F6"/>
<path d="M164.871 168.114L164.276 167.807C164.585 167.191 164.991 166.629 165.479 166.142L165.947 166.623C165.509 167.058 165.145 167.561 164.871 168.114Z" fill="#F5F4F6"/>
<path d="M161.327 180.156H161.287V179.487L163.427 179.059C163.223 177.798 163.098 176.525 163.052 175.248C162.997 173.96 163.056 172.669 163.226 171.39L163.895 171.477C163.73 172.718 163.674 173.971 163.727 175.221C163.777 176.567 163.918 177.907 164.149 179.233L164.215 179.561L161.327 180.156Z" fill="#F5F4F6"/>
<path d="M134.193 149.872L133.526 149.918L133.595 150.899L134.261 150.852L134.193 149.872Z" fill="#003366"/>
<path d="M131.949 169.077L131.635 168.489L134.717 166.824L133.728 152.77L134.396 152.723L135.413 167.212L131.949 169.077Z" fill="#003366"/>
<path d="M161.194 170.641L160.525 170.501C160.627 169.998 160.77 169.503 160.953 169.023L161.581 169.264C161.415 169.712 161.285 170.173 161.194 170.641Z" fill="#003366"/>
<path d="M122.555 187.791L118.45 184.803V184.736C117.895 183.646 117.326 180.958 116.845 177.174L117.514 177.094C117.968 180.664 118.517 183.305 119.018 184.361L122.769 187.109C126.627 186.849 130.124 186.554 133.467 186.213C144.612 185.083 153.725 183.439 161.314 181.199C161.24 180.918 161.127 180.47 161.006 179.862C160.454 177.496 160.216 175.068 160.298 172.641L160.966 172.674C160.88 175.042 161.105 177.411 161.635 179.721C161.842 180.691 162.023 181.299 162.023 181.306L162.116 181.627L161.802 181.72C154.106 184.02 144.86 185.732 133.513 186.855C130.17 187.196 126.607 187.524 122.695 187.758L122.555 187.791Z" fill="#003366"/>
<path d="M116.611 175.268C116.544 174.66 116.484 174.038 116.424 173.396L117.092 173.336C117.153 173.971 117.22 174.593 117.28 175.195L116.611 175.268Z" fill="#003366"/>
<path d="M164.201 165.602L136.028 168.086L136.087 168.752L164.26 166.268L164.201 165.602Z" fill="#003366"/>
<path d="M129.799 301.641L127.891 302.68L128.21 303.267L130.119 302.228L129.799 301.641Z" fill="#003366"/>
<path d="M125.989 303.716L119.888 307.039L120.208 307.626L126.309 304.304L125.989 303.716Z" fill="#003366"/>
<path d="M128.864 307.044L118.947 312.444L119.267 313.032L129.184 307.631L128.864 307.044Z" fill="#003366"/>
<path d="M315.635 28.5895H280.867V7.29443H315.635V28.5895ZM281.536 27.9209H314.966V7.96304H281.536V27.9209Z" fill="#34679A"/>
<path d="M298.238 22.4786L280.968 7.88958L281.396 7.37476L298.238 21.6027L315.08 7.37476L315.515 7.88958L298.238 22.4786Z" fill="#34679A"/>
<path d="M125.584 62.3743H100.752V47.0967H125.584V62.3743ZM101.42 61.7057H124.915V47.7653H101.42V61.7057Z" fill="#34679A"/>
<path d="M113.168 58.075L100.865 47.6849L101.3 47.1768L113.168 57.1992L125.035 47.1768L125.47 47.6849L113.168 58.075Z" fill="#34679A"/>
<path d="M210.122 12.7704H189.443V0H210.122V12.7704ZM190.111 12.1018H209.454V0.668606H190.111V12.1018Z" fill="#34679A"/>
<path d="M199.779 9.22016L189.562 0.588463L189.99 0.0803223L199.779 8.34429L209.574 0.0803223L210.002 0.588463L199.779 9.22016Z" fill="#34679A"/>
<path d="M278.714 105.64H251.876V89.1721H278.714V105.64ZM252.545 104.971H278.046V89.8407H252.545V104.971Z" fill="#34679A"/>
<path d="M265.296 101L251.997 89.7603L252.425 89.2522L265.296 100.124L278.167 89.2522L278.594 89.7603L265.296 101Z" fill="#34679A"/>
<path d="M269.307 58.8975C269.113 58.8999 268.919 58.8751 268.732 58.8239C267.575 58.5164 266.586 57.226 267.288 54.5248C268.338 50.5132 270.497 50.2925 271.126 50.3126C271.676 50.3393 272.201 50.5524 272.614 50.9169C273.027 51.2814 273.304 51.7757 273.399 52.3184V52.412V52.4923C273.399 52.4923 273.025 53.4885 272.229 56.4036C272.084 57.0829 271.719 57.6954 271.191 58.1463C270.663 58.5972 270.001 58.8612 269.307 58.8975ZM271.032 50.9812C270.457 50.9812 268.819 51.2954 267.937 54.6986C267.355 56.9184 268.057 57.9548 268.906 58.1821C269.869 58.4362 271.179 57.7141 271.58 56.2231C272.249 53.7225 272.617 52.6661 272.724 52.3652C272.641 51.9888 272.438 51.6497 272.144 51.3998C271.851 51.1499 271.484 51.0029 271.099 50.9812H271.032Z" fill="#34679A"/>
<path d="M270.651 63.3773C268.326 63.3773 266.097 62.4538 264.453 60.8099C262.809 59.1661 261.885 56.9366 261.885 54.6119C261.885 52.2871 262.809 50.0576 264.453 48.4138C266.097 46.7699 268.326 45.8464 270.651 45.8464C274.81 45.8464 277.879 48.5209 278.674 51.0616C279.018 52.0997 279.115 53.2039 278.956 54.286C278.797 55.368 278.387 56.3978 277.758 57.293C277.435 57.7992 276.997 58.2226 276.48 58.5291C275.964 58.8356 275.382 59.0168 274.783 59.0581C274.315 59.0773 273.847 58.9999 273.41 58.8308C272.973 58.6618 272.576 58.4046 272.242 58.0752C272.012 57.8413 271.833 57.5614 271.718 57.2538C271.603 56.9462 271.554 56.6179 271.574 56.2901L272.242 56.3369C272.229 56.5716 272.264 56.8065 272.347 57.0265C272.43 57.2465 272.558 57.4466 272.724 57.6139C272.994 57.8776 273.316 58.0826 273.669 58.216C274.022 58.3495 274.399 58.4085 274.776 58.3895C275.269 58.3421 275.745 58.1833 276.168 57.925C276.591 57.6667 276.949 57.3157 277.217 56.8985C277.78 56.0865 278.147 55.1543 278.287 54.1759C278.428 53.1975 278.338 52.1999 278.026 51.2621C277.31 48.9621 274.489 46.515 270.671 46.515C268.524 46.515 266.464 47.3681 264.946 48.8865C263.427 50.405 262.574 52.4644 262.574 54.6119C262.574 56.7593 263.427 58.8187 264.946 60.3372C266.464 61.8556 268.524 62.7087 270.671 62.7087C271.793 62.7165 272.905 62.4887 273.934 62.0401L274.201 62.6485C273.083 63.1397 271.873 63.3881 270.651 63.3773Z" fill="#34679A"/>
<path d="M169.21 37.5757C169.064 37.5749 168.918 37.5569 168.776 37.5223C167.96 37.3016 167.178 36.3455 167.692 34.3731C168.448 31.4714 170.026 31.3109 170.494 31.331C170.906 31.3537 171.299 31.5154 171.607 31.7899C171.915 32.0643 172.122 32.4352 172.192 32.842V32.9289V33.0159C172.192 33.0159 171.945 33.6845 171.383 35.7438C171.275 36.2468 171.003 36.6998 170.61 37.0314C170.217 37.3631 169.724 37.5546 169.21 37.5757ZM170.42 31.9996C169.752 31.9996 168.829 32.6682 168.341 34.5403C168.013 35.7973 168.247 36.6865 168.949 36.8737C169.355 36.9262 169.765 36.8198 170.094 36.5768C170.423 36.3338 170.645 35.973 170.715 35.5699C171.176 33.8717 171.43 33.1161 171.517 32.8955C171.46 32.6559 171.327 32.4412 171.137 32.2834C170.948 32.1256 170.713 32.0331 170.467 32.0196L170.42 31.9996Z" fill="#34679A"/>
<path d="M170.153 40.7313C168.49 40.7313 166.895 40.0705 165.719 38.8944C164.542 37.7183 163.882 36.1231 163.882 34.4598C163.882 32.7964 164.542 31.2013 165.719 30.0251C166.895 28.849 168.49 28.1882 170.153 28.1882C173.129 28.1882 175.335 30.1138 175.897 31.9324C176.141 32.6786 176.208 33.4715 176.092 34.2481C175.976 35.0247 175.68 35.7634 175.228 36.4054C174.991 36.7745 174.672 37.0829 174.294 37.3058C173.917 37.5288 173.492 37.6601 173.055 37.6891C172.711 37.7015 172.368 37.6433 172.047 37.5179C171.726 37.3926 171.434 37.2028 171.19 36.9603C171.019 36.7843 170.887 36.5742 170.803 36.3438C170.719 36.1134 170.684 35.8678 170.701 35.6231L171.37 35.6632C171.363 35.8155 171.388 35.9676 171.442 36.1101C171.496 36.2526 171.578 36.3827 171.684 36.4923C171.867 36.6676 172.083 36.8037 172.32 36.8923C172.557 36.9808 172.809 37.0199 173.062 37.0071C173.394 36.9737 173.714 36.8648 173.998 36.6886C174.282 36.5125 174.522 36.2738 174.7 35.9909C175.088 35.4326 175.341 34.7911 175.437 34.1178C175.534 33.4444 175.471 32.7578 175.255 32.1129C174.767 30.5284 172.808 28.8435 170.153 28.8435C169.32 28.8439 168.497 29.0303 167.744 29.3891C166.992 29.7478 166.329 30.27 165.804 30.9174C165.279 31.5648 164.905 32.3212 164.71 33.1314C164.514 33.9417 164.502 34.7853 164.673 35.601C164.845 36.4166 165.197 37.1837 165.703 37.8462C166.208 38.5087 166.856 39.0501 167.597 39.4308C168.339 39.8115 169.156 40.0219 169.989 40.0468C170.822 40.0717 171.65 39.9104 172.413 39.5746L172.681 40.183C171.886 40.5422 171.025 40.7291 170.153 40.7313Z" fill="#34679A"/>
<path d="M16.7281 311.443L16.1531 311.102C16.5217 310.485 16.9212 309.887 17.3499 309.31L17.8848 309.705C17.4903 310.266 17.0825 310.848 16.7281 311.443Z" fill="#34679A"/>
<path d="M15.0032 329.937L16.0462 327.196C16.3177 326.407 16.3561 325.557 16.1569 324.747C15.9577 323.937 15.5293 323.202 14.923 322.629C13.8131 321.586 13.4119 319.694 13.793 317.28L14.4616 317.381C14.1207 319.54 14.4616 321.225 15.3977 322.114C15.9356 322.616 16.3533 323.232 16.6196 323.917C16.8859 324.603 16.9939 325.339 16.9355 326.072C17.9057 325.029 19.0955 324.214 20.4189 323.686C21.3386 323.371 22.2792 323.12 23.2338 322.937C25.7128 322.416 28.1164 321.584 30.3878 320.463C35.5294 317.996 47.3036 308.776 48.5271 306.576C49.3361 305.118 49.744 301.896 48.6274 300.558C48.0791 299.89 47.2033 299.803 46.0265 300.231L45.5117 300.418L45.5786 299.87C45.6512 299.283 45.5538 298.687 45.2978 298.154C45.0417 297.62 44.6379 297.172 44.1344 296.861C41.5602 294.962 36.3518 294.608 34.0518 295.658C30.916 297.095 25.5003 300.766 20.5593 306.395L20.0579 305.954C25.0657 300.244 30.575 296.513 33.771 295.049C36.2849 293.899 41.7408 294.267 44.5355 296.326C45.0558 296.664 45.4859 297.124 45.7888 297.666C46.0916 298.208 46.2581 298.815 46.2739 299.435C47.805 299.034 48.6675 299.562 49.1355 300.104C50.4728 301.702 50.0181 305.239 49.1355 306.877C47.8518 309.19 36.0643 318.47 30.7021 321.038C28.3803 322.195 25.9231 323.057 23.3875 323.605C22.4566 323.793 21.5405 324.048 20.6462 324.368C19.0417 325.029 17.6528 326.124 16.6346 327.53L15.0032 329.937Z" fill="#34679A"/>
<path d="M31.9925 308.702L31.6516 308.127C32.387 307.692 33.1425 307.291 33.8981 306.93C42.1888 302.972 43.9272 301.775 45.6522 299.696L46.167 300.117C44.3885 302.29 42.5966 303.547 34.2056 307.559C33.4501 307.886 32.7079 308.281 31.9925 308.702Z" fill="#34679A"/>
<path d="M25.0922 314.191L24.6108 313.723C25.0722 313.248 25.5469 312.794 26.0082 312.386L26.4629 312.874C26.0082 313.275 25.5469 313.723 25.0922 314.191Z" fill="#34679A"/>
<path d="M18.5398 322.81L17.9648 322.475C19.266 320.238 20.758 318.117 22.4244 316.137L22.9326 316.565C21.2958 318.52 19.8264 320.609 18.5398 322.81Z" fill="#34679A"/>
<path d="M32.2397 281.811C30.06 281.811 27.8469 281.63 25.7141 281.45C17.2763 280.734 7.13352 271.721 5.93003 267.77C5.13478 265.509 3.59541 263.586 1.56404 262.314L0.775085 261.859L1.67102 261.699C2.75416 261.505 3.18207 260.843 3.77712 259.927C4.71317 258.483 6.00358 256.511 10.7774 255.762L10.8777 256.43C6.39806 257.132 5.25474 258.884 4.33875 260.302C3.93285 261.088 3.29592 261.732 2.51346 262.147C4.40663 263.483 5.82565 265.387 6.56521 267.583C7.59486 270.926 17.1091 280.059 25.7743 280.788C34.894 281.557 41.667 281.583 45.6452 274.837C46.5813 270.825 43.9135 267.944 40.5972 264.841C39.26 263.578 30.5682 259.265 21.9298 257.213L22.0835 256.544C30.8155 258.623 39.6612 263.029 41.0586 264.333C44.4016 267.469 47.3301 270.652 46.2871 275.031L46.247 275.118C43.031 280.62 37.7423 281.811 32.2397 281.811Z" fill="#34679A"/>
<path d="M17.2696 256.357C16.4606 256.257 15.6917 256.196 14.9763 256.17V255.501C15.7051 255.501 16.5007 255.595 17.3231 255.695L17.2696 256.357Z" fill="#34679A"/>
<path d="M52.6856 282.459C50.2653 276.977 44.1676 274.436 39.1196 272.878L39.3202 272.209C44.5019 273.834 50.7734 276.428 53.3008 282.158L52.6856 282.459Z" fill="#34679A"/>
<path d="M34.62 271.601L32.6142 271.079L32.7747 270.411L34.7805 270.932L34.62 271.601Z" fill="#34679A"/>
<path d="M28.5155 270.01C27.1783 269.635 26.0885 269.301 25.119 268.967C22.5722 268.038 20.0982 266.921 17.7175 265.624C15.0431 264.24 12.6963 263.043 9.50037 262.582L9.59397 261.913C12.937 262.388 15.2771 263.611 18.0184 265.029C20.3861 266.298 22.8443 267.391 25.3731 268.298C26.3292 268.633 27.3789 268.967 28.7161 269.335L28.5155 270.01Z" fill="#34679A"/>
<path d="M82.1577 321.472L81.683 320.998C82.1376 320.55 82.5722 320.082 82.9801 319.614L83.4815 320.048C83.067 320.53 82.619 321.011 82.1577 321.472Z" fill="#34679A"/>
<path d="M63.0491 329.455C60.8037 329.455 58.564 329.231 56.363 328.787L56.022 328.72L56.1023 328.379C57.279 323.458 60.6755 320.229 63.9584 317.113C64.627 316.478 65.2956 315.849 65.9174 315.214C70.2633 310.868 78.2799 303.848 83.1206 305.533C84.5406 306.042 85.9178 306.664 87.2392 307.391C88.4762 308.06 89.2985 308.488 90.2546 308.421L91.0369 308.368L90.5355 308.969C89.2991 310.441 88.2565 312.066 87.4331 313.803C87.0141 314.836 86.5086 315.831 85.9221 316.779L85.3538 316.431C85.9186 315.515 86.4061 314.553 86.8113 313.556C87.5465 311.946 88.4834 310.436 89.5994 309.063C88.6519 308.863 87.7468 308.499 86.925 307.986C85.6399 307.271 84.2982 306.663 82.9134 306.168C78.2331 304.523 69.8221 312.279 66.4122 315.689C65.7436 316.357 65.075 316.959 64.4063 317.594C61.2706 320.576 58.0279 323.652 56.8244 328.198C63.2898 329.449 70.0628 328.713 74.5692 326.273C75.0773 325.999 75.5654 325.711 76.0401 325.43L76.3878 325.999C75.9064 326.293 75.4049 326.58 74.8901 326.861C71.7142 328.559 67.502 329.455 63.0491 329.455Z" fill="#34679A"/>
<path d="M52.866 332.652L52.3044 332.284C54.5308 328.941 58.2282 326.413 60.4346 324.929L61.3774 324.261L64.1721 322.255C68.1838 319.38 74.8698 314.566 76.9158 313.148C80.5931 310.594 83.2943 309.585 86.2161 309.678V310.347C83.448 310.26 80.8672 311.236 77.3169 313.69C75.3111 315.107 68.5849 319.921 64.6134 322.796L61.812 324.802L60.8558 325.471C58.6428 326.948 55.0122 329.395 52.866 332.652Z" fill="#34679A"/>
<path d="M50.078 315.829C50.078 315.762 49.61 309.183 48.5135 306.87L49.1219 306.583C50.2719 309.016 50.7266 315.508 50.7466 315.783L50.078 315.829Z" fill="#34679A"/>
<path d="M68.1105 273.052L68.0102 272.383C68.5518 272.296 69.1268 272.229 69.7085 272.183L69.7619 272.851C69.2003 272.905 68.6454 272.972 68.1105 273.052Z" fill="#34679A"/>
<path d="M73.386 290.549C70.5503 290.523 67.719 290.322 64.908 289.947C63.1403 289.662 61.3482 289.556 59.5592 289.633L59.2316 289.667L59.1915 289.332C59.0486 288.148 58.8455 286.972 58.583 285.809C57.9144 282.466 57.2458 279.363 60.0339 276.194C60.7384 275.398 61.5671 274.72 62.4877 274.188L62.822 274.77C61.9679 275.259 61.1962 275.879 60.5354 276.609C57.9412 279.53 58.5295 282.365 59.1982 285.642C59.4255 286.691 59.6528 287.774 59.7865 288.911C61.505 288.877 63.2232 288.994 64.9214 289.259C69.1671 289.753 74.9505 290.442 82.8534 288.944C89.1049 287.748 89.5395 282.024 89.2186 278.721C89.1249 277.672 89.8872 276.261 90.4154 275.492L89.7869 275.546C87.1716 275.877 84.5155 275.489 82.1046 274.422C80.4879 273.828 78.8142 273.403 77.1101 273.152L77.2171 272.483C78.9703 272.75 80.6912 273.199 82.352 273.821C84.6578 274.849 87.2021 275.224 89.7066 274.904C90.1813 274.857 90.6226 274.81 91.0438 274.81H91.7124L91.3113 275.345C90.8767 275.927 89.7668 277.652 89.8604 278.688C90.4154 284.706 87.8947 288.717 82.947 289.64C79.7959 290.244 76.5946 290.549 73.386 290.549Z" fill="#34679A"/>
<path d="M69.548 282.987L69.2404 282.392C72.7573 280.56 75.8262 279.257 77.6582 278.829C80.4556 278.121 83.3195 277.709 86.2029 277.598V278.267C83.3718 278.381 80.5599 278.786 77.8119 279.477C76.0602 279.892 72.9846 281.202 69.548 282.987Z" fill="#34679A"/>
<path d="M53.5948 299.301L52.9864 299.02C55.1727 294.28 57.894 290.329 60.8559 287.654C62.4444 286.353 64.1474 285.198 65.944 284.204L66.2983 284.826C64.5392 285.786 62.8719 286.905 61.3172 288.169C58.3954 290.79 55.7277 294.641 53.5948 299.301Z" fill="#34679A"/>
<path d="M55.8481 261.271L55.7746 259.854C55.6676 257.687 52.2844 254.137 49.3025 251.001C47.523 249.271 45.8967 247.389 44.4417 245.378C42.7085 242.468 41.8433 239.123 41.9478 235.737H42.6164C42.5123 238.995 43.3404 242.214 45.0033 245.017C46.4361 246.995 48.0354 248.848 49.7839 250.553C52.5719 253.482 55.4403 256.49 56.2359 258.817C56.617 258.042 57.1452 257.072 57.7603 255.929C60.1272 251.543 63.7042 244.91 63.8379 241.266C64.0853 234.721 61.8321 225.801 57.64 222.211C56.0411 220.845 54.1666 219.839 52.144 219.263C51.2387 219.051 50.393 218.637 49.6702 218.052C49.5365 219.209 48.908 221.021 46.7283 223.201C46.0917 223.861 45.5515 224.609 45.1237 225.42L44.542 225.093C44.9942 224.226 45.5659 223.427 46.2402 222.719C49.6501 219.303 48.9548 216.936 48.9147 216.876L49.5833 216.662C49.9711 217.832 50.867 218.126 52.3513 218.614C54.454 219.221 56.4029 220.269 58.0679 221.69C62.5743 225.554 64.7539 234.667 64.4999 241.28C64.3595 245.077 60.7356 251.79 58.342 256.236C57.4996 257.801 56.7641 259.152 56.4097 259.974L55.8481 261.271Z" fill="#34679A"/>
<path d="M43.1045 231.11L42.4359 230.977C42.4827 230.749 42.5362 230.529 42.583 230.308L43.2516 230.462C43.1981 230.669 43.1513 230.89 43.1045 231.11Z" fill="#34679A"/>
<path d="M51.3952 223.983C51.1546 222.817 50.8077 221.676 50.3589 220.573L50.9606 220.279C51.4344 221.425 51.7993 222.614 52.0505 223.829L51.3952 223.983Z" fill="#34679A"/>
<path d="M52.8128 349.681H52.1442C52.1442 349.333 52.2311 315.134 52.4718 308.588C52.7393 301.294 54.725 268.472 54.7451 268.144C54.8521 266.854 55.046 265.47 55.2532 263.972C55.7547 260.315 56.3297 256.17 55.8817 252.158C55.4337 248.146 53.6954 235.175 52.0372 226.925L52.7058 226.791C54.3707 235.062 56.1157 248.059 56.5637 252.084C57.0117 256.109 56.4367 260.368 55.8951 264.066C55.6945 265.537 55.5006 266.927 55.3936 268.191C55.3936 268.512 53.3878 301.327 53.1204 308.615C52.9265 315.154 52.8128 349.34 52.8128 349.681Z" fill="#34679A"/>
<path d="M52.726 288.59L52.0574 288.53C53.1205 276.803 54.3106 267.703 55.601 261.498L56.2697 261.632C54.9659 267.81 53.7824 276.883 52.726 288.59Z" fill="#34679A"/>
<path d="M52.0705 296.366L51.4019 296.313L51.5824 294.02L52.251 294.073L52.0705 296.366Z" fill="#34679A"/>
<path d="M50.252 324.601L49.5834 324.568C50.0314 315.936 50.5329 307.853 51.0677 300.605L51.7363 300.658C51.2081 307.92 50.7067 315.976 50.252 324.601Z" fill="#34679A"/>
<path d="M49.3566 329.119L49.2283 331.851L49.8961 331.882L50.0245 329.151L49.3566 329.119Z" fill="#34679A"/>
<path d="M49.1489 349.681H48.4803C48.6474 345.228 48.828 340.762 49.0219 336.416H49.6905C49.4966 340.782 49.316 345.248 49.1489 349.681Z" fill="#34679A"/>
<path d="M68.3045 394.959H36.0844L32.1998 359.249H72.1356L68.3045 394.959ZM36.6928 394.29H67.7027L71.4202 359.917H32.9687L36.6928 394.29Z" fill="#34679A"/>
<path d="M38.7266 359.548L38.0618 359.62L39.4983 372.908L40.1631 372.836L38.7266 359.548Z" fill="#34679A"/>
<path d="M40.5804 376.526L39.9157 376.598L40.28 379.968L40.9448 379.896L40.5804 376.526Z" fill="#34679A"/>
<path d="M73.6533 359.917H30.7221V349.353H73.6533V359.917ZM31.3907 359.248H72.9847V350.022H31.3907V359.248Z" fill="#34679A"/>
<path d="M35.1411 349.688H34.4725V353.131H35.1411V349.688Z" fill="#34679A"/>
<path d="M35.1411 354.635H34.4725V356.627H35.1411V354.635Z" fill="#34679A"/>
<defs>
<linearGradient id="paint0_linear" x1="24.1631" y1="397.092" x2="131.357" y2="504.286" gradientUnits="userSpaceOnUse">
<stop stop-color="#4278A5"/>
<stop offset="1" stop-color="#4278A5"/>
</linearGradient>
<linearGradient id="paint1_linear" x1="152.769" y1="389.289" x2="152.769" y2="206.078" gradientUnits="userSpaceOnUse">
<stop stop-color="#285B84"/>
<stop offset="0.31" stop-color="#21547F"/>
<stop offset="0.76" stop-color="#0D4070"/>
<stop offset="1" stop-color="#003366"/>
</linearGradient>
<linearGradient id="paint2_linear" x1="199.852" y1="189.262" x2="204.606" y2="189.262" gradientUnits="userSpaceOnUse">
<stop stop-color="#336699"/>
<stop offset="1" stop-color="#285B84"/>
</linearGradient>
<linearGradient id="paint3_linear" x1="3618.22" y1="2307.07" x2="3834.97" y2="2307.07" gradientUnits="userSpaceOnUse">
<stop stop-color="#336699"/>
<stop offset="1" stop-color="#285B84"/>
</linearGradient>
<linearGradient id="paint4_linear" x1="4681.64" y1="3791.77" x2="5081.99" y2="3791.77" gradientUnits="userSpaceOnUse">
<stop stop-color="#336699"/>
<stop offset="1" stop-color="#285B84"/>
</linearGradient>
<linearGradient id="paint5_linear" x1="8782.52" y1="20365.5" x2="8782.52" y2="15491.2" gradientUnits="userSpaceOnUse">
<stop stop-color="#336699"/>
<stop offset="1" stop-color="#285B84"/>
</linearGradient>
<linearGradient id="paint6_linear" x1="10139" y1="12431" x2="10139" y2="19810.8" gradientUnits="userSpaceOnUse">
<stop stop-color="#336699"/>
<stop offset="1" stop-color="#285B84"/>
</linearGradient>
<linearGradient id="paint7_linear" x1="7270.35" y1="24331.9" x2="7270.35" y2="17374.4" gradientUnits="userSpaceOnUse">
<stop stop-color="#336699"/>
<stop offset="1" stop-color="#285B84"/>
</linearGradient>
<linearGradient id="paint8_linear" x1="8090.56" y1="7707.06" x2="8090.56" y2="10192.5" gradientUnits="userSpaceOnUse">
<stop stop-color="#336699"/>
<stop offset="1" stop-color="#285B84"/>
</linearGradient>
<linearGradient id="paint9_linear" x1="161.996" y1="192.124" x2="171.276" y2="192.124" gradientUnits="userSpaceOnUse">
<stop stop-color="#F43B56"/>
<stop offset="0.48" stop-color="#F23A53"/>
<stop offset="0.77" stop-color="#EB354B"/>
<stop offset="1" stop-color="#E02D3E"/>
</linearGradient>
<linearGradient id="paint10_linear" x1="3433.69" y1="10574.9" x2="3433.69" y2="7935.9" gradientUnits="userSpaceOnUse">
<stop stop-color="#F43B56"/>
<stop offset="0.48" stop-color="#F23A53"/>
<stop offset="0.77" stop-color="#EB354B"/>
<stop offset="1" stop-color="#E02D3E"/>
</linearGradient>
<linearGradient id="paint11_linear" x1="169.157" y1="72.1626" x2="169.157" y2="104.015" gradientUnits="userSpaceOnUse">
<stop stop-color="#003366"/>
<stop offset="0.34" stop-color="#01315F"/>
<stop offset="0.85" stop-color="#032C4B"/>
<stop offset="1" stop-color="#042A44"/>
</linearGradient>
<linearGradient id="paint12_linear" x1="179.066" y1="103.146" x2="179.066" y2="96.2392" gradientUnits="userSpaceOnUse">
<stop stop-color="#F9E2B8"/>
<stop offset="0.32" stop-color="#F8E0B5"/>
<stop offset="0.55" stop-color="#F3D9AC"/>
<stop offset="0.75" stop-color="#EBCD9C"/>
<stop offset="0.94" stop-color="#DFBD86"/>
<stop offset="1" stop-color="#DBB77D"/>
</linearGradient>
<linearGradient id="paint13_linear" x1="2071.48" y1="1196.4" x2="2071.48" y2="1117.13" gradientUnits="userSpaceOnUse">
<stop stop-color="#F9E2B8"/>
<stop offset="0.32" stop-color="#F8E0B5"/>
<stop offset="0.55" stop-color="#F3D9AC"/>
<stop offset="0.75" stop-color="#EBCD9C"/>
<stop offset="0.94" stop-color="#DFBD86"/>
<stop offset="1" stop-color="#DBB77D"/>
</linearGradient>
<linearGradient id="paint14_linear" x1="4819.26" y1="4765.55" x2="4819.26" y2="3824.32" gradientUnits="userSpaceOnUse">
<stop stop-color="#F9E2B8"/>
<stop offset="0.32" stop-color="#F8E0B5"/>
<stop offset="0.55" stop-color="#F3D9AC"/>
<stop offset="0.75" stop-color="#EBCD9C"/>
<stop offset="0.94" stop-color="#DFBD86"/>
<stop offset="1" stop-color="#DBB77D"/>
</linearGradient>
</defs>
</svg>
