<svg width="387" height="355" viewBox="0 0 387 355" fill="none" xmlns="http://www.w3.org/2000/svg">
<path d="M381.738 347.873H7.12524V354.885H381.738V347.873Z" fill="url(#paint0_linear)"/>
<path d="M221.195 69.3056L219.545 71.5474L220.394 76.3173L220.126 79.1792L220.766 84.2161L221.004 84.6168L217.808 94.8719L212.323 112.539L165.913 98.2585L187.062 30.2312L233.472 44.6552L223.761 75.8784C223.437 75.3633 223.131 74.8672 222.807 74.4093C222.091 72.7698 221.551 71.059 221.195 69.3056Z" fill="white"/>
<path d="M283.947 167.163V167.173L283.899 167.24L282.583 169.243L280.904 168.108L271.364 161.659L272.766 159.827L283.947 167.163Z" fill="white"/>
<path d="M235.542 88.0223L229.962 100.567L229.933 100.557L227.892 99.5272L228.302 98.6209L233.472 87.0588L235.542 88.0223Z" fill="white"/>
<path d="M301.719 65.194L304.333 70.727L302.406 74.6764L300.145 106.987V106.997L296.635 123.891L288.831 134.929L291.254 116.222L298.59 73.98L297.77 69.0861V69.0766L301.719 65.194Z" fill="url(#paint1_linear)"/>
<path d="M297.77 69.0862L298.59 73.98L291.254 116.212L291.559 109.487L292.599 85.6947L296.635 70.1928L297.77 69.0862Z" fill="white"/>
<path d="M297.77 69.0766V69.0861L296.635 70.1927L298.132 60.634L298.123 60.6244L301.204 56.5701L301.719 65.1939L297.77 69.0766Z" fill="white"/>
<path d="M304.333 70.7269L301.719 65.1939L324.185 43.1192L324.28 43.1001L325.358 48.118L304.276 87.0588L300.145 106.987L302.406 74.6763L304.333 70.7269Z" fill="white"/>
<path d="M324.175 338.686V351.288L312.499 351.279V348.741L296.377 351.25L274.388 351.288V349.075L284.414 346.595L302.539 339.774L302.787 338.515L324.175 338.686Z" fill="#003366"/>
<path d="M381.728 326.514L386.317 338.276L375.432 342.493L374.516 340.136L360.398 348.331L348.998 351.288H339.124L338.313 349.228L347.319 346.938L360.894 335.223L381.728 326.514Z" fill="#003366"/>
<path d="M381.728 326.514L360.894 335.223L328.02 262.951L320.665 246.314L320.655 246.295L319.31 241.201L315.752 239.684L319.148 237.795L331.159 201.182L337.741 232.5L336.262 235.906L340.431 236.097L352.67 255.386L381.738 326.504L381.728 326.514Z" fill="url(#paint2_linear)"/>
<path d="M302.788 338.515L299.783 338.486L297.045 242.45V230.812L298.075 190.583V190.564L293.153 167.287L316.849 166.257L341.528 162.68L339.821 174.805L331.159 201.182L319.148 237.795L315.752 239.684L319.31 241.201L320.655 246.295L320.665 246.314L325.082 262.941L324.214 338.686H324.176L302.788 338.515Z" fill="url(#paint3_linear)"/>
<path d="M298.132 60.6341L296.635 70.1928L292.599 85.6947L291.56 109.487L280.207 120.705L274.283 123.262H270.086L229.409 101.798L229.962 100.567L235.543 88.0224L235.867 87.2974L271.717 101.511L274.016 104.85V101.511L293.706 66.4628L298.123 60.6245L298.132 60.6341Z" fill="url(#paint4_linear)"/>
<path d="M296.635 123.891L300.145 106.997V106.987L304.276 87.0589L325.359 48.118L334.478 66.9398L337.235 115.239L343.57 162.384L341.528 162.68L316.849 166.257L293.153 167.287L290.558 167.402L290.062 161.602L284.834 167.745L283.947 167.173V167.163L272.766 159.827L271.717 159.141L290.539 132.506L296.635 123.891Z" fill="url(#paint5_linear)"/>
<path d="M88.9085 146.748L65.2788 132.391L66.3759 127.316H60.6712L56.4355 121.516L59.0971 114.896L76.6119 131.428L78.7106 133.402L88.6319 146.252L88.9085 146.748Z" fill="#4278A5"/>
<path d="M90.7307 150.001L103.724 173.116C103.724 173.116 117.079 154.991 125.36 144.411L126.027 144.86L133.659 149.944L134.394 150.44C134.394 150.44 126.829 163.939 118.348 178.582L95.5482 176.369H92.3334L92.6291 174.461L91.4366 172.324C91.4366 172.324 95.6722 162.785 94.6706 159.055C93.6029 155.936 92.2854 152.908 90.7307 150.001Z" fill="url(#paint6_linear)"/>
<path d="M88.4698 190.068L86.2662 192.31L92.0472 211.465C73.7406 210.826 44.8354 214.957 44.8354 214.957L49.3954 183.371L48.4891 145.814L56.4261 121.516L60.6617 127.316H66.3855L65.2885 132.382L88.9086 146.748L90.7307 150.002C92.2854 152.908 93.6029 155.936 94.6706 159.055C95.6723 162.813 91.4366 172.324 91.4366 172.324L92.6291 174.461L92.3334 176.369H95.5673L118.367 178.582L139.66 180.652L139.478 181.998L138.391 190.163V190.574H93.3827L88.4698 190.068Z" fill="url(#paint7_linear)"/>
<path d="M119.684 247.163H112.615V213.354L136.884 216.149C133.627 216.995 130.661 218.706 128.298 221.101C123.872 225.346 119.474 233.12 119.684 247.163Z" fill="url(#paint8_linear)"/>
<path d="M104.601 212.62V247.163C92.4669 247.067 80.1798 249.29 64.6206 248.117C62.3644 247.968 60.1279 247.601 57.9429 247.02C40.9337 242.355 44.8354 225.842 44.8354 214.957C44.8354 214.957 73.731 210.817 92.0376 211.465L104.582 212.62H104.601Z" fill="url(#paint9_linear)"/>
<path d="M161.963 226.462V234.351L156.726 228.828L128.26 221.101C130.622 218.706 133.589 216.995 136.845 216.149L156.974 219.784L161.963 226.462Z" fill="url(#paint10_linear)"/>
<path d="M143.886 246.619L141.587 253.116C141.587 253.116 138.801 261.568 138.648 264.515C138.162 273.511 138.648 290.368 138.648 299.373C138.324 302.96 138.887 311.088 138.648 312.004C134.375 309.867 131.541 310.268 131.541 310.268C130.158 303.704 124.596 294.918 124.596 294.918C134.212 290.444 132.228 271.069 135.968 255.167C135.968 255.167 136.922 250.349 138.706 247.64L142.044 247.716L143.886 246.619Z" fill="url(#paint11_linear)"/>
<path d="M138.725 247.64L119.645 247.163C119.436 233.12 123.833 225.346 128.231 221.101L156.697 228.828L161.935 234.351L163.843 240.237C163.843 240.237 148.579 313.998 149.982 318.624C151.384 323.251 152.843 329.213 153.654 331.713C150.657 331.758 147.664 331.955 144.687 332.304L145.221 331.093L138.543 321.057C138.543 321.057 138.543 315.018 138.677 312.004C138.916 311.05 138.353 302.96 138.677 299.373C138.677 290.368 138.171 273.511 138.677 264.515C138.83 261.568 141.615 253.116 141.615 253.116L143.914 246.619L142.092 247.716L138.725 247.64Z" fill="#F9E2B8"/>
<path d="M308.521 46.0383L301.204 53.2026V48.118L308.521 46.0383Z" fill="url(#paint12_linear)"/>
<path d="M299.887 23.4103L295.614 29.1723L294.345 25.7666L292.16 22.3705L299.887 23.4103Z" fill="url(#paint13_linear)"/>
<path d="M79.8366 114.476C79.1011 115.959 78.4637 117.488 77.9286 119.055C74.3036 117.786 72.2716 115.449 70.917 111.814C72.1381 113.446 76.1543 114.237 79.8366 114.476Z" fill="url(#paint14_linear)"/>
<path d="M84.4536 93.1356L85.15 97.5525L78.1765 94.8146L84.8066 90.7507L84.4536 93.1356Z" fill="url(#paint15_linear)"/>
<path d="M88.0403 93.3932L92.3904 99.0216L89.3186 101.292L89.3663 106.959C89.3663 106.959 88.9561 113.55 85.5505 114.218C83.657 114.508 81.7368 114.581 79.8267 114.438C76.1444 114.237 72.1282 113.484 70.9644 111.786L78.3004 109.878L73.1489 95.8258L85.5505 80.9725L87.5824 89.1099L88.0403 93.3932ZM85.1784 97.5525L84.482 93.1356L84.835 90.7507L78.1573 94.8146L85.1784 97.5525Z" fill="#F9E2B8"/>
<path d="M76.6121 131.428L59.145 114.896L71.0123 111.786C72.367 115.42 74.3989 117.757 78.024 119.026C76.822 122.451 75.7154 127.24 76.6121 131.428Z" fill="#F9E2B8"/>
<path d="M168.565 190.583H165.226H138.391V190.163L139.478 181.998L143.447 182.398L153.368 179.078L165.331 182.102L172.094 190.583H168.565Z" fill="#F9E2B8"/>
<path d="M146.967 139.88L154.456 132.668L156.487 133.154L153.463 138.048L160.446 135.558L160.265 138.258L146.709 146.31L135.1 147.483L133.678 149.944L126.027 144.86L130.702 139.069L137.131 133.975L145.488 129.997V133.059L140.795 135.911L138.562 139.145L146.967 139.88Z" fill="#F9E2B8"/>
<path d="M267.853 166.457L262.139 174.28L261.338 175.396L256.768 175.835L255.309 173.803L260.346 172.305L267.853 166.457Z" fill="#F9E2B8"/>
<path d="M280.913 168.108L279.177 169.806L274.35 179.04L269.905 185.126L267.853 190.535H266.346L267.3 185.25L268.884 179.956L261.643 190.535H257.083L259.659 183.219C259.659 183.219 255.29 187.454 255.29 187.712C255.29 187.969 253.124 186.882 253.124 186.882L261.386 175.396L262.187 174.28L267.911 166.457L271.431 161.688L280.913 168.108Z" fill="#F9E2B8"/>
<path d="M221.004 84.7408L220.766 84.3401L220.127 79.3032L220.394 76.4413L219.545 71.6714L221.195 69.401C221.566 71.123 222.116 72.8015 222.836 74.4093C223.132 74.8672 223.437 75.3633 223.79 75.8784C226.251 79.866 229.246 85.2464 229.246 85.2464L233.501 87.0589L228.331 98.621L224.181 96.3982L217.78 94.9959L221.004 84.7408Z" fill="#F9E2B8"/>
<path d="M322.85 34.4286L324.281 43.1001H324.185L301.719 65.194L301.204 56.6083V53.2026L308.521 46.0384L301.204 48.118L294.584 45.9048L291.55 35.5257L287.601 34.8006L289.184 22.0175L287.601 20.7106V15.0631L296.444 18.0299L301.061 17.2954L306.689 22.4086L307.825 29.9736L309.78 30.7558C309.78 30.7558 310.639 26.2722 311.784 25.1561C312.928 24.0399 317.326 22.7998 316.868 28.5426C316.41 34.2855 312.766 35.9263 312.766 35.9263L313.854 41.0205L322.85 34.4286ZM295.614 29.1723L299.888 23.4485L292.161 22.4086L294.345 25.7571L295.614 29.1723Z" fill="#F9E2B8"/>
<path d="M287.6 15.0631L281.505 13.0121L300.317 0L325.358 5.83827L327.056 18.8885L324.643 33.0835L322.849 34.4286L313.854 41.0205L312.814 35.9645C312.814 35.9645 316.467 34.3237 316.916 28.5808C317.364 22.8379 312.842 24.1926 311.831 25.1942C310.82 26.1959 309.828 30.794 309.828 30.794L307.872 30.0117L306.737 22.4468L301.109 17.3335L296.491 18.0681L287.6 15.0631Z" fill="url(#paint16_linear)"/>
<path d="M85.6079 80.9631L73.2063 95.8163L78.3577 109.868L71.0218 111.776L59.1449 114.896L47.6973 111.614L39.8557 103.295L52.5435 75.2106L71.6895 71.7764L86.7049 79.6561L85.6079 80.9631Z" fill="url(#paint17_linear)"/>
<path d="M258.552 198.635H250.53V351.717H258.552V198.635Z" fill="url(#paint18_linear)"/>
<path d="M266.346 190.583H267.853H274.35V198.635H258.552H250.529H112.615H104.592H93.3826V190.583H138.391H165.226H168.565H172.094H257.102H261.662H266.346Z" fill="url(#paint19_linear)"/>
<path d="M112.615 247.163V351.717H104.592V248.079V247.163V212.62V198.635H112.615V213.354V247.163Z" fill="url(#paint20_linear)"/>
<path d="M132.696 331.827C132.696 331.827 134.308 332.657 136.101 333.735C136.846 340.06 137.513 349.113 137.513 349.113L135.977 350.859H134.718C134.872 344.454 134.193 338.057 132.696 331.827Z" fill="#042A44"/>
<path d="M117.003 320.799C118.679 314.898 119.592 308.807 119.722 302.674C119.724 302.693 119.724 302.712 119.722 302.731C119.722 302.731 120.971 304.029 122.345 305.727C121.487 311.889 119.903 320.466 119.903 320.466L118.119 321.419L117.003 320.799Z" fill="#042A44"/>
<path d="M164.463 349.094L164.205 351.956L148.083 351.441L144.649 348.827C144.649 348.827 142.178 339.068 140.585 337.074C139.257 335.756 137.747 334.635 136.101 333.745C134.308 332.676 132.696 331.837 132.696 331.837C132.696 331.837 131.971 330.883 132.457 328.546L143.838 334.269L144.715 332.276C147.693 331.927 150.686 331.729 153.683 331.684L157.003 342.989L164.463 349.094Z" fill="#003366"/>
<path d="M138.534 321.057L145.212 331.093L144.677 332.304L143.8 334.298L132.419 328.574L127.163 325.903L125.798 323.041C125.875 321.648 125.961 314.77 125.798 311.851C125.703 310.268 123.891 307.74 122.326 305.755C120.952 304.057 119.703 302.76 119.703 302.76C119.705 302.741 119.705 302.722 119.703 302.703C119.646 301.196 120.06 299.709 120.886 298.448C121.764 296.964 123.048 295.763 124.587 294.985C124.587 294.985 130.149 303.771 131.532 310.334C131.532 310.334 134.394 309.934 138.639 312.071C138.562 315.018 138.534 321.057 138.534 321.057Z" fill="#003366"/>
<path d="M228.073 99.0406L224.057 96.856L217.713 95.4632L217.923 94.5283L224.448 95.9879L228.531 98.2011L228.073 99.0406Z" fill="#DBC197"/>
<path d="M212.638 113.264L165.312 98.5541L186.747 29.6111L234.064 44.3212L224.21 76.0215L223.303 75.7353L232.872 44.9508L187.367 30.8035L166.504 97.9245L212.008 112.062L220.546 84.5976L221.453 84.8838L212.638 113.264Z" fill="#F5F4F6"/>
<path d="M268.302 190.745L267.405 190.411L269.523 184.878L273.968 178.802L278.843 169.501L280.57 167.774L281.247 168.451L279.568 170.13L274.779 179.307L270.324 185.394L268.302 190.745Z" fill="#DBC197"/>
<path d="M20.0896 264.973C12.7727 264.973 7.57354 263.18 4.58763 259.612C-1.66084 252.123 2.95635 238.758 6.00904 229.906C6.24753 229.209 6.47648 228.541 6.68636 227.912C14.6806 204.282 11.2272 187.969 6.43832 165.389L6.03766 163.481C5.70377 161.888 5.08369 159.665 4.35868 157.137C2.03101 148.914 -1.16478 137.629 0.428344 130.55C1.51586 125.666 4.59717 120.371 9.01403 119.58C11.6851 119.103 15.9112 120.142 20.8814 127.803C43.7765 163.157 19.9274 219.727 17.1132 226.061C14.7283 231.442 14.3944 235.963 16.1115 239.493C18.2389 243.872 22.9133 245.284 23.4189 245.427C24.5923 245.474 44.492 246.304 57.962 246.543V247.497C44.139 247.258 23.5525 246.381 23.3426 246.381H23.2472C21.5491 245.899 19.9662 245.079 18.5939 243.969C17.2216 242.859 16.0884 241.482 15.2625 239.922C13.4118 236.106 13.7362 231.337 16.2165 225.67C18.9925 219.383 42.7176 163.252 20.0323 128.366C16.3309 122.642 12.5532 119.942 9.12851 120.562C5.14093 121.278 2.32673 126.219 1.30599 130.798C-0.220352 137.638 2.92773 148.79 5.22679 156.927C5.9518 159.493 6.58142 161.697 6.92485 163.338L7.32551 165.246C12.0953 187.969 15.6155 204.358 7.54492 228.265C7.33505 228.894 7.1061 229.562 6.85807 230.259C3.9294 238.873 -0.582859 251.923 5.32219 259.002C9.2239 263.666 17.2849 265.097 29.3049 263.237C35.105 262.34 40.2373 261.501 44.5683 260.785L45.1407 260.69C52.7724 259.431 59.4502 258.343 66.0325 257.58C74.5115 256.589 83.0432 256.117 91.5797 256.168C103.418 256.168 104.115 248.374 104.143 248.05L105.097 248.107C105.097 248.203 104.353 257.122 91.5893 257.122C83.0943 257.073 74.6042 257.541 66.1661 258.525C59.5646 259.297 52.9632 260.375 45.3124 261.625L44.74 261.72C40.3899 262.445 35.2576 263.285 29.4766 264.182C26.3725 264.686 23.2343 264.951 20.0896 264.973Z" fill="#404040"/>
<path d="M168.231 190.917L162.269 185.088L156.612 183.724L156.831 182.799L162.746 184.22L168.899 190.24L168.231 190.917Z" fill="#DBC197"/>
<path d="M171.713 190.879L165.054 182.522L153.387 179.584L143.495 182.885L139.431 182.474L139.526 181.53L143.39 181.912L153.349 178.592L165.598 181.673L172.457 190.278L171.713 190.879Z" fill="#DBC197"/>
<path d="M164.94 190.965L159.97 187.378L155.829 186.977L155.915 186.033L160.323 186.462L165.503 190.192L164.94 190.965Z" fill="#DBC197"/>
<path d="M160.733 258.143L159.779 257.952C161.687 248.413 163.146 241.286 163.356 240.266L161.525 234.599L156.449 229.257L128.117 221.558L128.365 220.604L156.984 228.37L162.421 234.17L164.329 240.17V240.294C164.32 240.399 162.765 247.926 160.733 258.143Z" fill="#DBC197"/>
<path d="M158.221 265.851L157.368 270.233L158.304 270.415L159.157 266.033L158.221 265.851Z" fill="#DBC197"/>
<path d="M130.358 289.252L129.49 288.851C131.598 284.224 132.352 277.594 133.153 270.564C133.642 265.355 134.432 260.179 135.519 255.062C135.519 254.871 136.473 250.13 138.324 247.373L138.725 247.63H139.202V247.773L139.125 247.897C137.408 250.502 136.464 255.214 136.454 255.262C135.369 260.35 134.582 265.498 134.098 270.678C133.287 277.776 132.524 284.482 130.358 289.252Z" fill="#DBC197"/>
<path d="M137.971 279.311C137.971 277.909 137.971 276.526 137.971 275.171H138.925C138.925 276.526 138.925 277.909 138.925 279.302L137.971 279.311Z" fill="#DBC197"/>
<path d="M138.944 270.354H137.99C137.99 268.045 138.086 266.128 138.171 264.506C138.324 261.539 141.033 253.325 141.138 252.982L143.046 247.735L142.245 248.212L138.763 248.136L119.684 247.659V246.705L141.93 247.258L144.792 245.541L142.045 253.287C142.045 253.364 139.278 261.711 139.125 264.563C139.03 266.156 138.973 268.064 138.944 270.354Z" fill="#DBC197"/>
<path d="M138.954 139.412L138.171 138.869L140.547 135.501L145.011 132.792V129.997H145.965V133.326L141.129 136.264L138.954 139.412Z" fill="#DBC197"/>
<path d="M134.088 150.183L133.268 149.706L134.804 147.035L146.557 145.842L159.807 137.972L159.97 135.52L160.924 135.587L160.723 138.535L146.757 146.787L135.386 147.931L134.088 150.183Z" fill="#DBC197"/>
<path d="M145.087 142.37L144.429 141.683L154.312 132.143L157.231 132.849L153.864 138.296L153.053 137.8L155.734 133.469L154.598 133.193L145.087 142.37Z" fill="#DBC197"/>
<path d="M255.299 188.255C254.463 188.071 253.664 187.748 252.934 187.302L253.344 186.443C253.973 186.739 254.727 187.063 255.099 187.197C255.519 186.662 256.597 185.537 259.354 182.866L260.012 183.552C258.171 185.336 256.196 187.368 255.786 187.826V187.941L255.586 188.103C255.551 188.146 255.507 188.182 255.458 188.209C255.409 188.235 255.355 188.251 255.299 188.255Z" fill="#DBC197"/>
<path d="M260.069 178L259.296 177.447L261.748 174.003L270.982 161.382L271.755 161.945L260.069 178Z" fill="#DBC197"/>
<path d="M256.549 176.331L254.917 174.089L255.69 173.526L256.997 175.329L261.29 174.919L261.385 175.873L256.549 176.331Z" fill="#DBC197"/>
<path d="M268.517 179.732L261.285 190.318L262.072 190.856L269.305 180.27L268.517 179.732Z" fill="#DBC197"/>
<path d="M233.282 87.4977L228.884 85.5898L228.808 85.4467C228.808 85.4467 225.784 80.0377 223.351 76.0978C223.036 75.5827 222.721 75.1439 222.397 74.6383C221.768 73.2788 221.275 71.8599 220.928 70.4027L219.974 71.6619L220.804 76.3363L220.527 79.3127L219.573 79.2269L219.84 76.365L218.963 71.4139L221.367 68.1132L221.586 69.1625C221.95 70.8957 222.5 72.5844 223.227 74.1995C223.494 74.6192 223.809 75.1534 224.124 75.6304C226.384 79.1792 229.065 83.949 229.561 84.9029L233.654 86.6487L233.282 87.4977Z" fill="#DBC197"/>
<path d="M97.9331 336.101H12.8394V328.727L46.5429 317.871V309.886H64.5252V317.966L97.914 328.727L97.9331 336.101ZM13.7933 335.147H96.9791V329.423L63.5712 318.624V310.802H47.4969V318.758H46.791L13.7933 329.414V335.147Z" fill="#404040"/>
<path d="M88.9563 352.194C87.5849 352.161 86.2539 351.723 85.13 350.937C84.006 350.15 83.1389 349.05 82.6374 347.773C82.1358 346.496 82.022 345.099 82.3101 343.758C82.5983 342.417 83.2756 341.191 84.2574 340.232C85.2391 339.274 86.4817 338.627 87.8295 338.371C89.1773 338.116 90.5706 338.264 91.8348 338.796C93.0991 339.329 94.1782 340.222 94.9371 341.365C95.6961 342.508 96.1011 343.849 96.1015 345.221C96.0764 347.092 95.31 348.878 93.9706 350.185C92.6311 351.492 90.8279 352.215 88.9563 352.194ZM88.9563 339.201C87.7737 339.235 86.6272 339.617 85.6601 340.298C84.6931 340.98 83.9483 341.931 83.5189 343.034C83.0895 344.136 82.9946 345.341 83.2459 346.497C83.4972 347.653 84.0836 348.71 84.9319 349.534C85.7801 350.359 86.8527 350.916 88.0154 351.134C89.1782 351.353 90.3796 351.224 91.4695 350.764C92.5595 350.304 93.4896 349.532 94.1438 348.547C94.7979 347.561 95.1471 346.404 95.1475 345.221C95.1224 343.602 94.4566 342.06 93.296 340.932C92.1355 339.803 90.5749 339.181 88.9563 339.201Z" fill="#404040"/>
<path d="M21.8067 352.194C20.4352 352.161 19.1043 351.723 17.9803 350.937C16.8563 350.15 15.9893 349.05 15.4877 347.773C14.9861 346.496 14.8723 345.099 15.1605 343.758C15.4486 342.417 16.126 341.191 17.1077 340.232C18.0895 339.274 19.332 338.627 20.6798 338.371C22.0277 338.116 23.4209 338.264 24.6852 338.796C25.9494 339.329 27.0286 340.222 27.7875 341.365C28.5464 342.508 28.9514 343.849 28.9519 345.221C28.9267 347.092 28.1604 348.878 26.8209 350.185C25.4814 351.492 23.6782 352.215 21.8067 352.194ZM21.8067 339.201C20.624 339.235 19.4775 339.617 18.5105 340.298C17.5434 340.98 16.7987 341.931 16.3693 343.034C15.9399 344.136 15.8449 345.341 16.0962 346.497C16.3475 347.653 16.9339 348.71 17.7822 349.534C18.6305 350.359 19.703 350.916 20.8657 351.134C22.0285 351.353 23.2299 351.224 24.3199 350.764C25.4098 350.304 26.34 349.532 26.9941 348.547C27.6483 347.561 27.9974 346.404 27.9979 345.221C27.9728 343.602 27.3069 342.06 26.1464 340.932C24.9858 339.803 23.4252 339.181 21.8067 339.201Z" fill="#404040"/>
<path d="M55.3862 352.194C54.0148 352.161 52.6839 351.723 51.5599 350.937C50.4359 350.15 49.5689 349.05 49.0673 347.773C48.5657 346.496 48.4519 345.099 48.7401 343.758C49.0282 342.417 49.7055 341.191 50.6873 340.232C51.669 339.274 52.9116 338.627 54.2594 338.371C55.6073 338.116 57.0005 338.264 58.2648 338.796C59.529 339.329 60.6081 340.222 61.3671 341.365C62.126 342.508 62.531 343.849 62.5314 345.221C62.5063 347.092 61.74 348.878 60.4005 350.185C59.061 351.492 57.2578 352.215 55.3862 352.194ZM55.3862 339.201C54.2036 339.235 53.0571 339.617 52.0901 340.298C51.123 340.98 50.3782 341.931 49.9489 343.034C49.5195 344.136 49.4245 345.341 49.6758 346.497C49.9271 347.653 50.5135 348.71 51.3618 349.534C52.2101 350.359 53.2826 350.916 54.4453 351.134C55.6081 351.353 56.8095 351.224 57.8994 350.764C58.9894 350.304 59.9196 349.532 60.5737 348.547C61.2279 347.561 61.577 346.404 61.5775 345.221C61.5524 343.602 60.8865 342.06 59.726 340.932C58.5654 339.803 57.0048 339.181 55.3862 339.201Z" fill="#404040"/>
<path d="M80.0837 140.828L79.5881 141.643L82.0824 143.16L82.578 142.345L80.0837 140.828Z" fill="#003366"/>
<path d="M65.5265 131.97L65.031 132.785L76.1505 139.543L76.6459 138.728L65.5265 131.97Z" fill="#003366"/>
<path d="M66.3761 126.839H60.6714V127.793H66.3761V126.839Z" fill="#003366"/>
<path d="M91.8754 172.515L90.9978 172.124C90.9978 172.028 95.1571 162.727 94.2031 159.179L95.1571 158.931C96.1683 162.813 92.0472 172.124 91.8754 172.515Z" fill="#003366"/>
<path d="M93.335 191.051L82.0591 189.877L74.1126 181.396L56.0254 150.679L56.8458 150.192L74.9044 180.862L82.517 188.971L93.4304 190.106L93.335 191.051Z" fill="#003366"/>
<path d="M138.868 190.23L137.923 190.106L139.125 181.082L110.659 178.315L110.754 177.371L140.194 180.223L138.868 190.23Z" fill="#003366"/>
<path d="M92.8008 176.445L91.8659 176.302L92.133 174.547L81.2483 154.905L82.0782 154.447L93.1252 174.375L92.8008 176.445Z" fill="#003366"/>
<path d="M78.5075 147.996L77.6731 148.459L79.0282 150.903L79.8626 150.441L78.5075 147.996Z" fill="#003366"/>
<path d="M93.1061 212.305H92.4288C89.7386 212.162 86.705 212.124 83.2993 212.181V211.227C86.4092 211.17 89.2616 211.227 91.8087 211.322L86.1612 192.586L88.0691 189.83L88.8514 190.383L87.201 192.701L93.1061 212.305Z" fill="#003366"/>
<path d="M44.282 215.52L46.9245 197.232L47.8784 197.366L45.4077 214.404C46.4284 214.261 48.6416 213.965 51.6275 213.602L51.742 214.556C47.5922 215.052 44.9307 215.424 44.9116 215.434L44.282 215.52Z" fill="#003366"/>
<path d="M48.488 186.418L47.9607 190.082L48.9049 190.218L49.4322 186.554L48.488 186.418Z" fill="#003366"/>
<path d="M74.2271 248.918C71.1458 248.918 67.9405 248.813 64.573 248.556C62.2983 248.398 60.0435 248.028 57.838 247.449C43.0134 243.414 43.6621 230.545 44.1867 220.194C44.2726 218.344 44.368 216.588 44.368 214.957H45.322C45.322 216.617 45.2266 218.382 45.1312 220.242C44.6065 230.736 44.0055 242.698 58.086 246.524C60.2341 247.093 62.432 247.454 64.6493 247.602C74.1317 248.336 82.2976 247.802 90.1869 247.287C95.1666 246.963 99.8792 246.657 104.592 246.686V247.64C99.9078 247.64 95.2143 247.907 90.2823 248.241C85.1214 248.575 79.8746 248.918 74.2271 248.918Z" fill="#003366"/>
<path d="M92.0866 210.978L91.9993 211.928L104.539 213.08L104.626 212.13L92.0866 210.978Z" fill="#003366"/>
<path d="M118.777 178.821L117.957 178.344C125.541 165.236 132.486 152.902 133.783 150.593L125.77 145.26L126.294 144.469L135.042 150.288L134.832 150.669C134.756 150.803 127.163 164.34 118.777 178.821Z" fill="#003366"/>
<path d="M120.065 152.062L119.302 151.49C121.448 148.628 123.366 146.186 125.026 144.116L125.293 143.772L126.333 144.459L125.808 145.251L125.503 145.05C123.9 147.044 122.107 149.4 120.065 152.062Z" fill="#003366"/>
<path d="M66.5859 269.867H44.1868V261.253L45.1407 261.224V268.913H65.6319V258.048L66.5859 258.029V269.867Z" fill="#404040"/>
<path d="M51.1031 269.39H50.1492V291.828H51.1031V269.39Z" fill="#404040"/>
<path d="M60.6236 269.39H59.6697V291.828H60.6236V269.39Z" fill="#404040"/>
<path d="M62.7892 310.363H61.8352V292.304H48.9376V310.363H47.9836V291.351H62.7892V310.363Z" fill="#404040"/>
<path d="M250.539 198.158H112.615V199.112H250.539V198.158Z" fill="#404040"/>
<path d="M259.029 352.194H250.052V198.158H259.029V352.194ZM251.006 351.24H258.075V199.112H251.006V351.24Z" fill="#404040"/>
<path d="M120.199 247.64H112.567V246.686H119.245C119.13 232.376 123.91 224.678 127.973 220.757C129.896 218.878 132.163 217.388 134.651 216.369L112.567 213.831L112.672 212.877L140.098 216.044L136.979 216.626C133.81 217.437 130.917 219.084 128.603 221.396C124.635 225.212 119.96 232.844 120.17 247.106L120.199 247.64Z" fill="#003366"/>
<path d="M71.9166 75.2711L69.3667 75.8005L69.5606 76.7346L72.1106 76.2051L71.9166 75.2711Z" fill="white"/>
<path d="M66.064 76.4981L56.3445 78.5356L56.5402 79.4693L66.2597 77.4317L66.064 76.4981Z" fill="white"/>
<path d="M229.723 100.977L227.272 99.7466L233.234 86.4292L235.743 87.593L235.333 88.4516L233.711 87.698L228.512 99.3077L230.153 100.128L229.723 100.977Z" fill="#F5F4F6"/>
<path d="M290.128 167.898L289.585 161.64L290.529 161.564L290.997 166.906L316.83 165.79L341.461 162.212L341.604 163.157L316.925 166.734L290.128 167.898Z" fill="#003366"/>
<path d="M341.604 163.147L341.461 162.203L343.035 161.974L340.755 145.022L341.7 144.898L344.104 162.794L341.604 163.147Z" fill="#003366"/>
<path d="M341.033 139.842L340.087 139.969L340.298 141.539L341.244 141.412L341.033 139.842Z" fill="#003366"/>
<path d="M282.716 169.911L270.687 161.773L272.385 159.541L273.138 160.114L272.051 161.544L282.449 168.575L283.499 166.982L284.3 167.507L282.716 169.911Z" fill="#F5F4F6"/>
<path d="M331.607 201.325L330.71 201.029L339.363 174.661L341.061 162.613L342.015 162.68L340.288 174.871L331.607 201.325Z" fill="#003366"/>
<path d="M315.981 240.094L315.523 239.264L318.747 237.471L330.71 201.039L331.607 201.334L319.539 238.129L315.981 240.094Z" fill="#003366"/>
<path d="M321.816 240.567L320.891 240.815L322.258 245.914L323.183 245.666L321.816 240.567Z" fill="#003366"/>
<path d="M324.681 339.163H324.214L299.315 338.953L299.048 329.442L300.002 329.414L300.25 338.009L323.737 338.2L324.605 262.999L320.207 246.428L321.123 246.19L325.559 262.884V262.951L324.681 339.163Z" fill="#003366"/>
<path d="M299.693 319.492L298.739 319.52L298.84 323.029L299.793 323.001L299.693 319.492Z" fill="#003366"/>
<path d="M297.568 190.55L297.299 201.154L298.253 201.179L298.521 190.574L297.568 190.55Z" fill="#003366"/>
<path d="M297.941 176.24L297.579 190.536L298.533 190.56L298.895 176.265L297.941 176.24Z" fill="#003366"/>
<path d="M301.49 94.6047L300.536 94.5379L301.977 74.4665L303.904 70.5171L304.762 70.9368L302.874 74.8004L301.49 94.6047Z" fill="#E02D3E"/>
<path d="M300.378 96.7754L300.25 98.593L301.202 98.6601L301.33 96.8425L300.378 96.7754Z" fill="#E02D3E"/>
<path d="M329.985 268.408L327.591 263.151L320.226 246.505L320.655 246.295L321.113 246.142L328.459 262.76L330.853 268.007L329.985 268.408Z" fill="#003366"/>
<path d="M334.565 276.243L333.697 276.638L335.901 281.483L336.769 281.088L334.565 276.243Z" fill="#003366"/>
<path d="M360.655 335.843L357.421 328.736L358.289 328.336L361.142 334.613L381.118 326.247L375.852 313.358L376.729 312.996L382.301 326.619L381.919 326.952L360.655 335.843Z" fill="#003366"/>
<path d="M371.599 300.435L370.716 300.796L372.439 305.008L373.322 304.647L371.599 300.435Z" fill="#003366"/>
<path d="M336.701 236.097L335.823 235.715L337.245 232.453L330.682 201.182H331.178L331.626 201.086L338.237 232.548L336.701 236.097Z" fill="#003366"/>
<path d="M297.598 190.583L292.685 167.392L293.62 167.192L298.552 190.564L297.598 190.583Z" fill="#003366"/>
<path d="M301.053 3.97226L299.621 4.98657L300.172 5.76514L301.605 4.75083L301.053 3.97226Z" fill="white"/>
<path d="M297.315 6.61987L290.845 11.2008L291.397 11.9794L297.867 7.39844L297.315 6.61987Z" fill="white"/>
<path d="M222.693 88.423L220.289 84.4068L219.649 79.3603L220.594 79.2363L221.223 84.1874L223.503 87.927L222.693 88.423Z" fill="#DBC197"/>
<path d="M296.739 81.8638L296.427 83.6591L297.367 83.8223L297.679 82.027L296.739 81.8638Z" fill="#E02D3E"/>
<path d="M298.104 79.5798L297.159 79.4176L298.104 73.98L297.293 69.1625L298.247 69.0767V69.0862L299.077 73.98L298.104 79.5798Z" fill="#E02D3E"/>
<path d="M190.117 39.4203L189.833 40.3313L224.625 51.141L224.908 50.2299L190.117 39.4203Z" fill="#F5F4F6"/>
<path d="M220.948 55.8793L220.665 56.7903L222.651 57.4077L222.934 56.4967L220.948 55.8793Z" fill="#F5F4F6"/>
<path d="M188.151 45.6827L187.868 46.5936L215.889 55.3051L216.172 54.3942L188.151 45.6827Z" fill="#F5F4F6"/>
<path d="M186.163 51.9268L185.88 52.8378L220.66 63.6507L220.943 62.7397L186.163 51.9268Z" fill="#F5F4F6"/>
<path d="M196.633 62.0399L196.35 62.9509L218.651 69.88L218.934 68.969L196.633 62.0399Z" fill="#F5F4F6"/>
<path d="M184.141 58.1636L183.858 59.0746L189.835 60.9314L190.118 60.0204L184.141 58.1636Z" fill="#F5F4F6"/>
<path d="M207.532 72.3115L207.249 73.2224L216.677 76.1536L216.961 75.2427L207.532 72.3115Z" fill="#F5F4F6"/>
<path d="M182.177 64.433L181.894 65.344L199.411 70.7901L199.694 69.8791L182.177 64.433Z" fill="#F5F4F6"/>
<path d="M192.783 74.5894L192.5 75.5004L214.692 82.3954L214.975 81.4844L192.783 74.5894Z" fill="#F5F4F6"/>
<path d="M180.19 70.6921L179.907 71.6031L186.621 73.6892L186.904 72.7782L180.19 70.6921Z" fill="#F5F4F6"/>
<path d="M205.544 85.4347L205.261 86.3457L212.704 88.6595L212.987 87.7486L205.544 85.4347Z" fill="#F5F4F6"/>
<path d="M178.179 76.9238L177.896 77.8348L195.469 83.2949L195.752 82.3839L178.179 76.9238Z" fill="#F5F4F6"/>
<path d="M113.092 352.194H104.124V198.158H113.092V352.194ZM105.078 351.24H112.138V199.112H105.078V351.24Z" fill="#404040"/>
<path d="M274.827 199.112H258.552V198.158H273.873V191.06H93.8597V198.158H104.592V199.112H92.9058V190.106H274.827V199.112Z" fill="#404040"/>
<path d="M274.379 123.739H269.962L228.798 102.017L235.619 86.6868L243.546 89.8348L243.193 90.722L236.115 87.9078L235.972 88.2227L230.029 101.588L270.2 122.785H274.178L279.931 120.305L288.497 111.843L289.165 112.52L280.398 121.144L274.379 123.739Z" fill="#003366"/>
<path d="M249.558 92.2231L249.206 93.11L252.133 94.2699L252.484 93.383L249.558 92.2231Z" fill="#003366"/>
<path d="M274.493 101.511H273.539V106.997H274.493V101.511Z" fill="#003366"/>
<path d="M311.718 79.37L311.257 80.7852L312.164 81.0803L312.625 79.6651L311.718 79.37Z" fill="#003366"/>
<path d="M300.069 124.111L298.294 120.753L310.295 83.8154L311.202 84.1112L299.325 120.658L300.918 123.663L300.069 124.111Z" fill="#003366"/>
<path d="M296.246 123.611L286.917 136.807L287.696 137.357L297.025 124.162L296.246 123.611Z" fill="#003366"/>
<path d="M284.92 168.375L271.049 159.274L273.997 155.096L274.77 155.649L272.394 159.016L284.738 167.116L311.612 135.501L315.342 128.938L330.834 89.4819L331.721 89.8349L316.2 129.348L312.384 136.045L284.92 168.375Z" fill="#003366"/>
<path d="M304.963 73.1691L301.576 66.0048L298.104 69.42L297.436 68.7331L301.862 64.3831L305.821 72.7589L304.963 73.1691Z" fill="#F5F4F6"/>
<path d="M297.417 68.7286L296.642 69.4912L297.311 70.1713L298.086 69.4086L297.417 68.7286Z" fill="#F5F4F6"/>
<path d="M144.067 334.956L126.981 326.294L127.41 325.445L143.599 333.649L144.811 330.902L145.688 331.283L144.067 334.956Z" fill="#042A44"/>
<defs>
<linearGradient id="paint0_linear" x1="7.12524" y1="351.384" x2="381.738" y2="351.384" gradientUnits="userSpaceOnUse">
<stop stop-color="#4278A5"/>
<stop offset="1" stop-color="#4278A5"/>
</linearGradient>
<linearGradient id="paint1_linear" x1="296.577" y1="134.929" x2="296.577" y2="65.194" gradientUnits="userSpaceOnUse">
<stop stop-color="#F43B56"/>
<stop offset="0.48" stop-color="#F23A53"/>
<stop offset="0.77" stop-color="#EB354B"/>
<stop offset="1" stop-color="#E02D3E"/>
</linearGradient>
<linearGradient id="paint2_linear" x1="348.75" y1="201.182" x2="348.75" y2="335.233" gradientUnits="userSpaceOnUse">
<stop stop-color="#003366"/>
<stop offset="0.24" stop-color="#0D4070"/>
<stop offset="0.69" stop-color="#21547F"/>
<stop offset="1" stop-color="#285B84"/>
</linearGradient>
<linearGradient id="paint3_linear" x1="16385.8" y1="30177.1" x2="16385.8" y2="62650.3" gradientUnits="userSpaceOnUse">
<stop stop-color="#003366"/>
<stop offset="0.24" stop-color="#0D4070"/>
<stop offset="0.69" stop-color="#21547F"/>
<stop offset="1" stop-color="#285B84"/>
</linearGradient>
<linearGradient id="paint4_linear" x1="229.409" y1="91.9432" x2="298.132" y2="91.9432" gradientUnits="userSpaceOnUse">
<stop stop-color="#336699"/>
<stop offset="1" stop-color="#285B84"/>
</linearGradient>
<linearGradient id="paint5_linear" x1="307.643" y1="167.745" x2="307.643" y2="48.118" gradientUnits="userSpaceOnUse">
<stop stop-color="#285B84"/>
<stop offset="1" stop-color="#336699"/>
</linearGradient>
<linearGradient id="paint6_linear" x1="4243.52" y1="5929.22" x2="6242.85" y2="5929.22" gradientUnits="userSpaceOnUse">
<stop stop-color="#336699"/>
<stop offset="1" stop-color="#285B84"/>
</linearGradient>
<linearGradient id="paint7_linear" x1="4502.52" y1="16600.8" x2="13927.1" y2="16600.8" gradientUnits="userSpaceOnUse">
<stop stop-color="#336699"/>
<stop offset="1" stop-color="#285B84"/>
</linearGradient>
<linearGradient id="paint8_linear" x1="2977.56" y1="8373.72" x2="3594.96" y2="8373.72" gradientUnits="userSpaceOnUse">
<stop stop-color="#003366"/>
<stop offset="0.24" stop-color="#0D4070"/>
<stop offset="0.69" stop-color="#21547F"/>
<stop offset="1" stop-color="#285B84"/>
</linearGradient>
<linearGradient id="paint9_linear" x1="44.4538" y1="229.915" x2="104.601" y2="229.915" gradientUnits="userSpaceOnUse">
<stop stop-color="#285B84"/>
<stop offset="0.31" stop-color="#21547F"/>
<stop offset="0.76" stop-color="#0D4070"/>
<stop offset="1" stop-color="#003366"/>
</linearGradient>
<linearGradient id="paint10_linear" x1="128.26" y1="225.25" x2="161.963" y2="225.25" gradientUnits="userSpaceOnUse">
<stop stop-color="#DBB77D"/>
<stop offset="0.06" stop-color="#DFBD86"/>
<stop offset="0.25" stop-color="#EBCD9C"/>
<stop offset="0.45" stop-color="#F3D9AC"/>
<stop offset="0.68" stop-color="#F8E0B5"/>
<stop offset="1" stop-color="#F9E2B8"/>
</linearGradient>
<linearGradient id="paint11_linear" x1="124.616" y1="279.311" x2="143.886" y2="279.311" gradientUnits="userSpaceOnUse">
<stop stop-color="#F9E2B8"/>
<stop offset="0.32" stop-color="#F8E0B5"/>
<stop offset="0.55" stop-color="#F3D9AC"/>
<stop offset="0.75" stop-color="#EBCD9C"/>
<stop offset="0.94" stop-color="#DFBD86"/>
<stop offset="1" stop-color="#DBB77D"/>
</linearGradient>
<linearGradient id="paint12_linear" x1="2636.77" y1="391.715" x2="2641.61" y2="441.527" gradientUnits="userSpaceOnUse">
<stop stop-color="#DBB77D"/>
<stop offset="0.06" stop-color="#DFBD86"/>
<stop offset="0.25" stop-color="#EBCD9C"/>
<stop offset="0.45" stop-color="#F3D9AC"/>
<stop offset="0.68" stop-color="#F8E0B5"/>
<stop offset="1" stop-color="#F9E2B8"/>
</linearGradient>
<linearGradient id="paint13_linear" x1="2689.96" y1="230.369" x2="2689.96" y2="181.872" gradientUnits="userSpaceOnUse">
<stop stop-color="#F9E2B8"/>
<stop offset="0.32" stop-color="#F8E0B5"/>
<stop offset="0.55" stop-color="#F3D9AC"/>
<stop offset="0.75" stop-color="#EBCD9C"/>
<stop offset="0.94" stop-color="#DFBD86"/>
<stop offset="1" stop-color="#DBB77D"/>
</linearGradient>
<linearGradient id="paint14_linear" x1="787.427" y1="956.141" x2="766.829" y2="1004.94" gradientUnits="userSpaceOnUse">
<stop stop-color="#DBB77D"/>
<stop offset="0.06" stop-color="#DFBD86"/>
<stop offset="0.25" stop-color="#EBCD9C"/>
<stop offset="0.45" stop-color="#F3D9AC"/>
<stop offset="0.68" stop-color="#F8E0B5"/>
<stop offset="1" stop-color="#F9E2B8"/>
</linearGradient>
<linearGradient id="paint15_linear" x1="675.107" y1="786.3" x2="675.107" y2="737.804" gradientUnits="userSpaceOnUse">
<stop stop-color="#F9E2B8"/>
<stop offset="0.32" stop-color="#F8E0B5"/>
<stop offset="0.55" stop-color="#F3D9AC"/>
<stop offset="0.75" stop-color="#EBCD9C"/>
<stop offset="0.94" stop-color="#DFBD86"/>
<stop offset="1" stop-color="#DBB77D"/>
</linearGradient>
<linearGradient id="paint16_linear" x1="304.276" y1="0" x2="304.276" y2="40.9823" gradientUnits="userSpaceOnUse">
<stop stop-color="#003366"/>
<stop offset="0.34" stop-color="#01315F"/>
<stop offset="0.85" stop-color="#032C4B"/>
<stop offset="1" stop-color="#042A44"/>
</linearGradient>
<linearGradient id="paint17_linear" x1="3147.37" y1="3317.79" x2="3147.37" y2="5265.06" gradientUnits="userSpaceOnUse">
<stop stop-color="#003366"/>
<stop offset="0.34" stop-color="#01315F"/>
<stop offset="0.85" stop-color="#032C4B"/>
<stop offset="1" stop-color="#042A44"/>
</linearGradient>
<linearGradient id="paint18_linear" x1="254.546" y1="198.635" x2="254.546" y2="351.717" gradientUnits="userSpaceOnUse">
<stop stop-color="#5593B5"/>
<stop offset="0.55" stop-color="#659DBF"/>
<stop offset="1" stop-color="#6CA1C4"/>
</linearGradient>
<linearGradient id="paint19_linear" x1="34973" y1="1799.03" x2="34973" y2="1867.06" gradientUnits="userSpaceOnUse">
<stop stop-color="#5593B5"/>
<stop offset="0.55" stop-color="#659DBF"/>
<stop offset="1" stop-color="#6CA1C4"/>
</linearGradient>
<linearGradient id="paint20_linear" x1="1017.99" y1="32073.5" x2="1017.99" y2="56638.7" gradientUnits="userSpaceOnUse">
<stop stop-color="#5593B5"/>
<stop offset="0.55" stop-color="#659DBF"/>
<stop offset="1" stop-color="#6CA1C4"/>
</linearGradient>
</defs>
</svg>
