<svg width="424" height="369" viewBox="0 0 424 369" fill="none" xmlns="http://www.w3.org/2000/svg">
<path opacity="0.42" d="M356.281 37.2727L319.814 29.4061C321.655 20.9171 326.4 13.3364 333.231 7.97061C340.061 2.60486 348.55 -0.209676 357.234 0.0121815C365.917 0.23404 374.251 3.47839 380.799 9.18596C387.347 14.8935 391.698 22.7067 393.103 31.2786L356.281 37.2727Z" fill="url(#paint0_linear)"/>
<path opacity="0.42" d="M356.281 37.2727L393.02 43.7376C392.936 44.2083 392.842 44.6791 392.748 45.1498C391.522 50.8263 388.988 56.1384 385.348 60.6636C381.709 65.1888 377.063 68.8023 371.781 71.2166C366.5 73.6309 360.727 74.7795 354.924 74.571C349.12 74.3625 343.445 72.8026 338.351 70.0155L356.281 37.2727Z" fill="url(#paint1_linear)"/>
<path opacity="0.42" d="M356.281 37.2727L331.99 65.5905C327.673 61.8885 324.26 57.2483 322.012 52.0247C319.764 46.8011 318.74 41.1325 319.019 35.4525L356.281 37.2727Z" fill="url(#paint2_linear)"/>
<path d="M411.922 369H11.4563L15.8185 364.638H416.285L411.922 369Z" fill="url(#paint3_linear)"/>
<path d="M244.244 359.355L245.185 366.709H213.279V362.88L224.117 352.995L227.255 347.356L238.731 346.969L236.576 355.087L237.643 356.196L243.177 352.995L244.244 359.355Z" fill="#003366"/>
<path d="M300.21 362.88V366.709H268.294L269.245 359.355L270.312 352.995L275.836 356.196L276.913 355.087L274.748 346.969L286.224 347.356L289.362 352.995L300.21 362.88Z" fill="#003366"/>
<path d="M240.928 341.163L243.177 352.995L237.643 356.196L236.597 355.087L238.752 346.969L227.245 347.356L226.45 343.82L224.588 335.609C229.469 334.576 234.393 333.708 239.359 333.004L240.928 341.163Z" fill="url(#paint4_linear)"/>
<path d="M288.891 335.514L287.029 343.8L286.223 347.356L274.716 346.969L276.882 355.087L275.836 356.196L270.312 352.995L272.551 341.153L274.099 333.014C279.466 333.736 284.477 334.552 288.891 335.514Z" fill="url(#paint5_linear)"/>
<path d="M224.609 335.609C223.426 335.839 222.255 336.1 221.073 336.372C221.073 336.372 205.643 275.51 202.348 252.319C201.605 247.088 201.124 240.885 200.82 235.424C200.726 233.719 200.643 232.108 200.569 230.612C200.36 225.601 200.297 222.065 200.297 222.065L207.557 211.217L220.173 207.713L234.254 208.529L241.984 189.291H245.959L244.913 195.233L253.512 201.876V212.724L256.138 215.287L250.614 216.521L256.106 218.519L253.481 220.611V222.149H229.651L230.927 230.696L231.638 235.508L245.991 332.251C243.783 332.502 241.576 332.774 239.379 333.088C234.372 333.729 229.448 334.57 224.609 335.609Z" fill="url(#paint6_linear)"/>
<path d="M274.099 333.014C271.944 332.721 269.737 332.429 267.488 332.167L281.851 235.424L282.562 230.612L283.828 222.065H253.491V220.528L256.117 218.436L250.614 216.521L256.106 215.297L253.481 212.734V201.876L261.452 195.233L260.615 189.291H264.224L272.718 208.529L287.228 207.692L305.932 211.249L313.255 222.097C313.255 222.097 313.171 225.633 312.941 230.643C312.857 232.139 312.773 233.782 312.669 235.456C312.345 240.916 311.842 247.151 311.11 252.35C307.846 275.51 292.542 336.372 292.542 336.372C291.402 336.069 290.188 335.787 288.933 335.515C284.477 334.552 279.466 333.736 274.099 333.014Z" fill="url(#paint7_linear)"/>
<path d="M266.662 170.535V175.159H265.856H251.65V172.407V170.535H258.837H264.224H266.662Z" fill="#003366"/>
<path d="M370.068 170.535H266.661V175.169H370.068V170.535Z" fill="#003366"/>
<path d="M382.349 99.9652L370.068 170.535H266.661L278.189 99.4526L382.349 99.9652Z" fill="#003366"/>
<path d="M251.65 172.407V175.159H246.43V170.535L247.382 170.87L251.65 172.407Z" fill="#F9E2B8"/>
<path d="M260.615 189.26L261.452 195.202L253.481 201.844L244.882 195.202L245.959 189.26H260.615Z" fill="url(#paint8_linear)"/>
<path d="M220.173 207.682L207.557 211.186L200.297 222.034H193.362C193.054 222.033 192.746 222.054 192.441 222.097L197.232 207.452L199.324 197.357L203.98 196.666L203.007 189.197H241.942L234.212 208.435L220.173 207.682Z" fill="url(#paint9_linear)"/>
<path d="M302.846 196.583L307.48 197.44L309.834 208.247L320.295 222.065H313.244L305.922 211.217L287.217 207.661L272.708 208.498L264.214 189.26H305.597L302.846 196.583Z" fill="url(#paint10_linear)"/>
<path d="M221.209 167.009L213.353 173.631L214.033 175.127H156.874L152.637 170.493L193.529 105.938L222.642 95.1741L217.882 102.821L226.146 104.014L215.131 112.309L233.961 165.66L229.619 164.499L224.807 167.501L221.209 167.009ZM198.896 141.422L189.324 158.442L184.428 161.245L190.412 160.503L201.291 162.114L198.896 141.422Z" fill="url(#paint11_linear)"/>
<path d="M292.824 99.5259L282.541 99.4526L280.365 95.1846L292.824 99.5259Z" fill="url(#paint12_linear)"/>
<path d="M280.365 95.1846L282.541 99.4526H278.19L266.662 170.535H264.224V170.503L269.915 112.707L272.133 90.1947L280.365 95.1846Z" fill="#4278A5"/>
<path d="M241.503 162.71H235.854L233.971 165.608L215.141 112.257L226.125 103.972L217.861 102.779L222.642 95.1741L230.875 90.1842C230.875 90.1842 236.722 135.02 241.503 162.71Z" fill="#4278A5"/>
<path d="M268.618 84.7131L269.486 88.6464C265.311 96.0819 259.555 102.51 252.623 107.476C245.285 102.267 238.835 95.9092 233.521 88.6464L234.41 84.6085C234.768 85.3497 235.203 86.051 235.708 86.7007C239.411 91.3349 244.076 96.4085 251.598 96.4085C259.443 96.4085 264.925 90.4353 267.477 86.7007C267.91 86.0697 268.291 85.405 268.618 84.7131Z" fill="url(#paint13_linear)"/>
<path d="M269.915 112.707L264.224 170.503V170.535H258.837V170.503L255.29 121.881L258.617 112.309L263.429 116.159L268 112.508L269.915 112.707Z" fill="#404040"/>
<path d="M247.56 170.493L247.435 170.828L246.483 170.493L241.556 162.668C236.775 134.978 230.927 90.1528 230.927 90.1528L233.574 88.6255C238.887 95.8882 245.337 102.246 252.675 107.455L246.347 112.33L250.667 121.881L247.56 170.493Z" fill="#404040"/>
<path d="M272.133 90.1947L269.915 112.707L268.001 112.508L263.429 116.159L258.617 112.309L252.623 107.497C259.555 102.531 265.312 96.1028 269.486 88.6674L272.133 90.1947Z" fill="#404040"/>
<path d="M258.837 170.503V170.535H251.65V172.407L247.382 170.87L247.508 170.535L250.615 121.923L246.284 112.372L252.623 107.497L258.617 112.309L255.291 121.881L258.837 170.503Z" fill="url(#paint14_linear)"/>
<path d="M262.289 27.7009L278.629 46.9282L273.179 61.291L273.461 61.6467C272.279 63.059 271.85 66.3018 271.85 66.3018L268.063 68.5928L270.271 57.6402L266.39 55.3597L262.885 50.4849H240.917L236.837 43.0158L239.442 51.6356L236.754 55.3597L232.915 57.6402L235.122 68.5928L231.335 66.3018C231.151 65.0199 230.8 63.7677 230.289 62.5777L225.372 46.6457L235.321 38.1305L238.459 31.9167L262.289 27.7009Z" fill="url(#paint15_linear)"/>
<path d="M248.606 67.0446C248.606 67.0446 250.824 76.8255 242.874 77.6624C234.923 78.4993 237.434 67.0446 237.434 67.0446H248.606Z" fill="url(#paint16_linear)"/>
<path d="M265.48 67.0446C265.48 67.0446 267.99 78.5516 260.04 77.6624C252.09 76.7732 254.307 67.0446 254.307 67.0446H265.48Z" fill="url(#paint17_linear)"/>
<path d="M224.818 167.449L229.63 164.447L233.971 165.608L235.854 162.71H241.514L246.43 170.535V175.159H242.528H214.033L213.353 173.663L221.209 167.009L224.818 167.449Z" fill="#F9E2B8"/>
<path d="M237.475 67.0446C237.475 67.0446 234.954 78.5516 242.915 77.6624C250.876 76.7732 248.606 67.0446 248.606 67.0446H237.475ZM260.04 77.6624C267.99 78.5098 265.479 67.0446 265.479 67.0446H254.307C254.307 67.0446 252.089 76.8256 260.04 77.6624ZM235.122 68.5928L232.914 57.6402L236.785 55.3597L239.473 51.6356L236.869 43.0157L240.948 50.4849H262.916L266.389 55.3597L270.26 57.6402L268.063 68.5928L271.85 66.3018C271.85 66.3018 272.279 63.0589 273.461 61.6467C273.569 61.4775 273.711 61.3334 273.88 61.2241C274.048 61.1148 274.237 61.0429 274.436 61.0131C274.634 60.9834 274.836 60.9965 275.029 61.0517C275.222 61.1069 275.401 61.2027 275.553 61.3329C278.367 63.2472 276.495 67.6618 275.355 71.7938C274.539 74.7647 271.233 73.3211 271.233 73.3211C271.046 77.2438 270.16 81.1015 268.618 84.7131C268.279 85.4172 267.884 86.0924 267.436 86.7321C264.883 90.4666 259.402 96.4398 251.556 96.4398C243.993 96.4398 239.369 91.3663 235.666 86.7321C235.161 86.0824 234.726 85.3811 234.369 84.6399C232.13 80.0161 231.9 73.3734 231.9 73.3734C231.9 73.3734 228.594 74.817 227.778 71.8461C226.638 67.6618 224.776 63.2577 227.579 61.3852C228.814 60.5483 229.672 61.3852 230.268 62.63C230.779 63.82 231.13 65.0722 231.314 66.3541L235.122 68.5928Z" fill="#F9E2B8"/>
<path d="M404.558 189.647H390.592V366.709H404.558V189.647Z" fill="url(#paint18_linear)"/>
<path d="M138.191 189.647H124.225V366.709H138.191V189.647Z" fill="url(#paint19_linear)"/>
<path d="M423.105 175.159H105.605V189.26H423.105V175.159Z" fill="url(#paint20_linear)"/>
<path d="M215.874 347.461H188.518L190.611 346.467C200.329 341.893 210.496 338.338 220.947 335.86L221.188 336.906C211.589 339.187 202.23 342.378 193.236 346.436H215.696C219.221 345.243 222.799 344.197 226.345 343.297L226.596 344.343C223.05 345.212 219.472 346.258 215.957 347.482L215.874 347.461Z" fill="#404040"/>
<path d="M325.065 347.461H297.626C294.017 346.237 290.408 345.18 286.903 344.323L287.144 343.276C290.659 344.124 294.268 345.18 297.877 346.415H320.347C316.163 344.542 311.926 342.837 307.647 341.352C302.641 339.599 297.546 338.108 292.385 336.885L292.625 335.839C303.075 338.323 313.241 341.877 322.962 346.446L325.065 347.461Z" fill="#404040"/>
<path d="M201.908 367.232C200.335 367.234 198.797 366.77 197.488 365.897C196.18 365.025 195.159 363.784 194.556 362.331C193.952 360.879 193.793 359.28 194.099 357.737C194.405 356.194 195.161 354.777 196.272 353.664C197.384 352.551 198.8 351.793 200.343 351.485C201.885 351.177 203.485 351.334 204.938 351.936C206.391 352.537 207.634 353.556 208.508 354.864C209.382 356.171 209.848 357.709 209.848 359.282C209.845 361.388 209.008 363.407 207.52 364.897C206.032 366.387 204.014 367.227 201.908 367.232ZM201.908 352.378C200.542 352.375 199.206 352.779 198.07 353.536C196.933 354.293 196.046 355.371 195.522 356.632C194.998 357.894 194.86 359.282 195.125 360.622C195.39 361.962 196.047 363.193 197.012 364.16C197.977 365.127 199.207 365.785 200.547 366.053C201.887 366.32 203.275 366.184 204.538 365.661C205.8 365.139 206.879 364.254 207.638 363.119C208.397 361.983 208.802 360.648 208.802 359.282C208.799 357.453 208.072 355.7 206.781 354.407C205.489 353.113 203.737 352.383 201.908 352.378Z" fill="#404040"/>
<path d="M313.286 367.232C311.713 367.234 310.175 366.77 308.866 365.897C307.557 365.025 306.537 363.784 305.933 362.331C305.33 360.879 305.171 359.28 305.477 357.737C305.782 356.194 306.539 354.777 307.65 353.664C308.761 352.551 310.178 351.793 311.721 351.485C313.263 351.177 314.862 351.334 316.315 351.936C317.769 352.537 319.011 353.556 319.885 354.864C320.759 356.171 321.226 357.709 321.226 359.282C321.226 361.389 320.39 363.409 318.901 364.9C317.412 366.391 315.393 367.229 313.286 367.232ZM313.286 352.378C311.92 352.375 310.584 352.779 309.447 353.536C308.311 354.293 307.424 355.371 306.9 356.632C306.376 357.894 306.237 359.282 306.503 360.622C306.768 361.962 307.425 363.193 308.39 364.16C309.355 365.127 310.585 365.785 311.925 366.053C313.264 366.32 314.653 366.184 315.915 365.661C317.177 365.139 318.256 364.254 319.015 363.119C319.774 361.983 320.18 360.648 320.18 359.282C320.18 357.452 319.454 355.698 318.161 354.403C316.869 353.109 315.115 352.38 313.286 352.378Z" fill="#404040"/>
<path d="M282.562 230.089H230.927V231.135H282.562V230.089Z" fill="#404040"/>
<path d="M281.851 234.901H231.659V235.947H281.851V234.901Z" fill="#404040"/>
<path d="M324.354 235.937H312.7V234.891H323.308V230.612H324.354V235.937Z" fill="#404040"/>
<path d="M200.82 235.937H189.125V230.612H190.171V234.891H200.82V235.937Z" fill="#404040"/>
<path d="M200.601 231.166H185.139V230.633C185.255 223.31 190.234 221.898 192.368 221.636C192.715 221.591 193.064 221.57 193.414 221.574H200.318V222.62H193.383C193.097 222.6 192.81 222.6 192.525 222.62C190.715 222.839 186.552 224.011 186.248 230.068H200.601V231.166Z" fill="#404040"/>
<path d="M328.433 231.166H312.983V230.12H327.366C327 223.038 321.466 222.63 320.337 222.62H313.286V221.574H320.337C321.163 221.574 328.297 221.888 328.423 230.643L328.433 231.166Z" fill="#404040"/>
<path d="M253.491 202.514L244.306 195.421L245.447 189.166L246.482 189.354L245.447 194.982L253.47 201.175L260.887 194.993L260.102 189.333L261.138 189.187L262.006 195.421L253.491 202.514Z" fill="#E02D3E"/>
<path d="M266.39 89.0335L265.584 88.364C266.097 87.7363 266.63 87.0877 267.038 86.4287C267.454 85.8204 267.821 85.1803 268.137 84.5143C269.641 80.9694 270.512 77.188 270.71 73.342H271.756C271.569 77.3354 270.662 81.2621 269.078 84.9328C268.742 85.6593 268.35 86.3588 267.907 87.025C267.436 87.7049 266.944 88.3849 266.39 89.0335Z" fill="#DBC197"/>
<path d="M263.68 91.8998L262.979 91.1152C263.356 90.7804 263.711 90.4352 264.025 90.0691L264.778 90.8014C264.444 91.1884 264.067 91.5441 263.68 91.8998Z" fill="#DBC197"/>
<path d="M251.598 96.9629C247.997 96.9698 244.497 95.7772 241.65 93.5735L242.277 92.7262C244.949 94.7784 248.229 95.8826 251.598 95.8645C255.156 95.8137 258.598 94.5891 261.389 92.381L262.017 93.2179C259.053 95.582 255.389 96.8987 251.598 96.9629Z" fill="#DBC197"/>
<path d="M239.191 91.4081C237.821 90.037 236.535 88.5837 235.342 87.0564C234.81 86.3755 234.354 85.6389 233.982 84.8596C231.722 80.1835 231.471 73.6559 231.461 73.3525H232.507C232.507 73.4153 232.758 79.9429 234.923 84.4098C235.264 85.1202 235.678 85.7933 236.158 86.4183C237.324 87.9139 238.581 89.3358 239.923 90.6759L239.191 91.4081Z" fill="#DBC197"/>
<path d="M242.453 38.3344L241.434 38.5715L243.684 48.2406L244.703 48.0035L242.453 38.3344Z" fill="#404040"/>
<path d="M241.424 33.937L240.406 34.174L240.775 35.7635L241.794 35.5265L241.424 33.937Z" fill="#404040"/>
<path d="M156.487 175.514L151.978 170.566L157.512 161.842L158.39 162.396L153.296 170.451L157.261 174.813L156.487 175.514Z" fill="#003366"/>
<path d="M160.195 157.589L159.064 159.373L159.947 159.933L161.079 158.149L160.195 157.589Z" fill="#003366"/>
<path d="M224.755 167.972L221.146 167.533L221.272 166.497L224.881 166.926L224.755 167.972Z" fill="#DBC197"/>
<path d="M221.627 167.355L220.958 166.549L221.962 165.712L196.155 161.884L196.312 160.848L224.441 165.022L221.627 167.355Z" fill="#003366"/>
<path d="M184.689 161.706L184.166 160.796L188.937 158.055L202.776 133.451L203.686 133.974L189.711 158.818L184.689 161.706Z" fill="#003366"/>
<path d="M230.112 153.106L229.126 153.455L233.478 165.785L234.464 165.437L230.112 153.106Z" fill="#003366"/>
<path d="M228.392 148.206L227.405 148.554L228.091 150.497L229.077 150.149L228.392 148.206Z" fill="#003366"/>
<path d="M215.66 112.134L214.673 112.482L223.934 138.722L224.921 138.374L215.66 112.134Z" fill="#003366"/>
<path d="M217.96 102.32L217.811 103.355L226.084 104.546L226.233 103.51L217.96 102.32Z" fill="#003366"/>
<path d="M246.953 175.159H245.907V170.681L241.221 163.233H236.137L234.212 166.214L229.714 165.011L224.117 168.505L221.115 170.943L220.466 170.127L223.51 167.658L229.546 163.882L233.741 165.001L235.572 162.187H241.796L246.953 170.378V175.159Z" fill="#DBC197"/>
<path d="M252.173 175.159H251.127V172.784L246.252 171.027L246.608 170.043L252.173 172.041V175.159Z" fill="#DBC197"/>
<path d="M236.844 167.881L236.056 168.57L242.137 175.523L242.924 174.835L236.844 167.881Z" fill="#DBC197"/>
<path d="M213.551 175.378L212.715 173.516L220.958 166.539L221.617 167.355L221.544 167.417L213.991 173.809L214.503 174.949L213.551 175.378Z" fill="#003366"/>
<path d="M247.521 162.081L246.985 170.495L248.029 170.562L248.565 162.147L247.521 162.081Z" fill="#E02D3E"/>
<path d="M247.908 155.949L247.801 157.64L248.845 157.707L248.952 156.015L247.908 155.949Z" fill="#E02D3E"/>
<path d="M250.855 126.254L249.82 126.18L250.081 122.017L245.813 112.581L246.263 112.309L246.755 112.121L246.776 112.184L251.138 121.829L250.855 126.254Z" fill="#E02D3E"/>
<path d="M258.314 170.545L254.757 121.818L254.788 121.714L258.125 112.131L259.109 112.476L255.813 121.954L259.36 170.472L258.314 170.545Z" fill="#E02D3E"/>
<path d="M264.371 260.415H263.325V331.958H264.371V260.415Z" fill="#404040"/>
<path d="M250.269 260.415H249.223V331.958H250.269V260.415Z" fill="#404040"/>
<path d="M267.436 332.69C266.233 332.606 265.019 332.533 263.806 332.491C259.161 332.272 254.391 332.272 249.746 332.491C248.491 332.491 247.256 332.606 246.012 332.7L245.938 331.654C247.183 331.56 248.438 331.497 249.704 331.445C254.422 331.236 259.182 331.236 263.847 331.445C265.071 331.445 266.295 331.56 267.498 331.644L267.436 332.69Z" fill="#404040"/>
<path d="M240.991 341.686L240.865 340.64C251.379 339.327 262.016 339.327 272.53 340.64L272.405 341.686C261.974 340.384 251.421 340.384 240.991 341.686Z" fill="#404040"/>
<path d="M405.081 367.232H389.934V189.26H390.98V366.186H404.035V189.5H405.081V367.232Z" fill="#404040"/>
<path d="M226.753 347.471L224.086 335.609L224.63 335.598L225.121 335.494L227.768 347.241L226.753 347.471Z" fill="#E02D3E"/>
<path d="M239.88 332.912L238.853 333.107L240.839 343.591L241.867 343.396L239.88 332.912Z" fill="#E02D3E"/>
<path d="M242.462 346.342L241.434 346.536L241.878 348.88L242.906 348.685L242.462 346.342Z" fill="#E02D3E"/>
<path d="M288.392 335.398L285.71 347.244L286.73 347.475L289.412 335.629L288.392 335.398Z" fill="#E02D3E"/>
<path d="M272.551 343.977L271.526 343.779L273.587 332.91L274.622 333.056L274.612 333.108L272.551 343.977Z" fill="#E02D3E"/>
<path d="M270.853 347.282L270.325 350.078L271.353 350.272L271.881 347.476L270.853 347.282Z" fill="#E02D3E"/>
<path d="M309.677 263.867L308.631 263.679C309.51 259.108 310.169 255.258 310.598 252.245C311.225 247.779 311.759 242.109 312.156 235.393C312.261 233.688 312.345 232.077 312.428 230.591C312.627 226.25 312.721 222.976 312.742 222.222L305.597 211.688L287.134 208.152L287.333 207.106L306.236 210.694L313.809 221.867V222.034C313.809 222.034 313.726 225.633 313.495 230.602C313.412 232.087 313.328 233.74 313.223 235.414C312.815 242.161 312.292 247.862 311.654 252.35C311.225 255.415 310.556 259.286 309.677 263.867Z" fill="#003366"/>
<path d="M307.923 267.525L307.528 269.473L308.553 269.681L308.949 267.734L307.923 267.525Z" fill="#003366"/>
<path d="M294.883 324.513L294.646 325.478L295.662 325.727L295.899 324.762L294.883 324.513Z" fill="#003366"/>
<path d="M292.887 337.01L292.375 336.874C291.329 336.602 290.115 336.32 288.776 336.017C284.675 335.127 279.853 334.311 274.037 333.527C271.882 333.234 269.664 332.952 267.425 332.68L266.892 332.617L266.976 332.083L273.587 287.53L274.633 287.687L268.095 331.707C270.187 331.958 272.196 332.219 274.183 332.491C280.031 333.276 284.885 334.102 289.006 335.002C290.157 335.253 291.182 335.494 292.145 335.734C292.375 334.835 292.887 332.795 293.599 329.897L294.645 330.148C293.661 334.134 293.065 336.498 293.065 336.498L292.887 337.01Z" fill="#003366"/>
<path d="M275.612 273.776L274.818 279.137L275.852 279.29L276.647 273.93L275.612 273.776Z" fill="#003366"/>
<path d="M220.686 337L220.56 336.498C220.56 336.498 219.817 333.59 218.635 328.799L219.681 328.537C220.581 332.177 221.219 334.73 221.481 335.755C222.527 335.515 223.51 335.295 224.546 335.096C229.358 334.05 234.337 333.192 239.338 332.481C241.283 332.209 243.334 331.947 245.426 331.707L229.044 221.542H284.435L280.491 248.134L279.445 247.988L283.211 222.589H230.257L246.597 332.638L246.054 332.701C243.773 332.962 241.555 333.244 239.453 333.537C234.473 334.249 229.515 335.117 224.724 336.142C223.531 336.372 222.359 336.634 221.188 336.906L220.686 337Z" fill="#003366"/>
<path d="M217.641 324.781L216.92 321.842L217.934 321.591L218.656 324.53L217.641 324.781Z" fill="#003366"/>
<path d="M201.532 249.996C201.385 248.804 201.249 247.569 201.124 246.314L202.17 246.209C202.285 247.454 202.421 248.678 202.568 249.871L201.532 249.996Z" fill="#003366"/>
<path d="M200.569 239.745C200.465 238.28 200.371 236.836 200.297 235.445C200.203 233.75 200.119 232.129 200.046 230.644C199.837 225.675 199.774 222.118 199.774 222.076V221.919L201.929 218.687L202.797 219.262L200.82 222.222C200.82 222.976 200.914 226.25 201.092 230.591C201.166 232.077 201.249 233.729 201.343 235.393C201.417 236.774 201.511 238.217 201.615 239.671L200.569 239.745Z" fill="#003366"/>
<path d="M205.34 213.594L203.586 216.209L204.455 216.792L206.209 214.177L205.34 213.594Z" fill="#003366"/>
<path d="M213.978 208.874L211.63 209.527L211.91 210.535L214.258 209.882L213.978 208.874Z" fill="#003366"/>
<path d="M220.032 207.184L213.974 208.867L214.254 209.875L220.312 208.192L220.032 207.184Z" fill="#003366"/>
<path d="M266.201 260.938H247.319V235.414H248.366V259.892H265.155V235.414H266.201V260.938Z" fill="#404040"/>
<path d="M197.745 207.64L196.719 207.42L198.927 196.959L207.431 195.704L207.588 196.729L199.805 197.89L197.745 207.64Z" fill="#003366"/>
<path d="M211.857 195.041L210.078 195.305L210.231 196.34L212.011 196.076L211.857 195.041Z" fill="#003366"/>
<path d="M203.56 189.2L202.523 189.336L203.498 196.804L204.535 196.669L203.56 189.2Z" fill="#003366"/>
<path d="M309.321 208.362L307.041 197.89L296.716 195.986L296.904 194.951L307.92 196.991L310.347 208.142L309.321 208.362Z" fill="#003366"/>
<path d="M290.92 193.843L290.73 194.872L293.096 195.309L293.286 194.28L290.92 193.843Z" fill="#003366"/>
<path d="M303.275 196.917L302.302 196.541L302.355 196.394L305.116 189.072L306.1 189.448L303.275 196.917Z" fill="#003366"/>
<path d="M234.599 209.042L211.731 207.713L211.794 206.677L233.908 207.954L241.503 189.061L242.465 189.459L234.599 209.042Z" fill="#003366"/>
<path d="M272.384 209.042L263.743 189.469L264.705 189.051L273.043 207.954L295.178 206.677L295.241 207.713L272.384 209.042Z" fill="#003366"/>
<path d="M254.004 220.528H252.958V222.065H254.004V220.528Z" fill="#003366"/>
<path d="M250.797 216.013L250.44 216.996L255.935 218.995L256.293 218.012L250.797 216.013Z" fill="#003366"/>
<path d="M255.74 215.632L252.958 212.912V205.15H254.004V212.473L256.472 214.889L255.74 215.632Z" fill="#003366"/>
<path d="M200.768 162.124L198.383 141.474L199.419 141.359L201.804 162.051L200.768 162.124Z" fill="#003366"/>
<path d="M252.633 108.135L252.32 107.916C244.936 102.677 238.444 96.2835 233.092 88.9812L233.94 88.364C239.151 95.4709 245.453 101.709 252.612 106.849C259.355 101.967 264.955 95.6773 269.026 88.4163L269.946 88.9289C265.729 96.4223 259.923 102.903 252.937 107.916L252.633 108.135Z" fill="#F5F4F6"/>
<path d="M241.284 116.88L236.691 111.179L237.507 110.52L241.451 115.426L252.634 106.828L263.429 115.489L267.677 112.1L268.325 112.916L263.429 116.828L252.613 108.156L241.284 116.88Z" fill="#F5F4F6"/>
<path d="M423.639 189.783H105.082V174.677H423.639V189.783ZM106.128 188.737H422.593V175.723H106.128V188.737Z" fill="#404040"/>
<path d="M138.776 367.232H123.639V189.26H124.686V366.186H137.73V189.5H138.776V367.232Z" fill="#404040"/>
<path d="M68.4998 367.326H36.1441L32.2631 331.456H72.3704L68.4998 367.326ZM37.1169 366.28H67.5583L71.2092 332.502H33.4347L37.1169 366.28Z" fill="#404040"/>
<path d="M39.1561 331.913L38.116 332.025L39.5439 345.233L40.584 345.121L39.1561 331.913Z" fill="#404040"/>
<path d="M40.9578 348.792L39.9178 348.905L40.2792 352.254L41.3193 352.141L40.9578 348.792Z" fill="#404040"/>
<path d="M73.8452 332.502H30.7983V321.622H73.8452V332.502ZM31.8444 331.456H72.7991V322.668H31.8444V331.456Z" fill="#404040"/>
<path d="M35.5687 322.145H34.5226V325.566H35.5687V322.145Z" fill="#404040"/>
<path d="M35.5687 327.062H34.5226V329.039H35.5687V327.062Z" fill="#404040"/>
<defs>
<linearGradient id="paint0_linear" x1="330.329" y1="7.65996" x2="400.923" y2="22.7871" gradientUnits="userSpaceOnUse">
<stop stop-color="#D6D7D8"/>
<stop offset="0.17" stop-color="#CCD2D6"/>
<stop offset="0.46" stop-color="#B0C3D1"/>
<stop offset="0.83" stop-color="#82ACC8"/>
<stop offset="1" stop-color="#6CA1C4"/>
</linearGradient>
<linearGradient id="paint1_linear" x1="-146406" y1="13301.3" x2="-148908" y2="13301.3" gradientUnits="userSpaceOnUse">
<stop stop-color="#D6D7D8"/>
<stop offset="0.17" stop-color="#CCD2D6"/>
<stop offset="0.46" stop-color="#B0C3D1"/>
<stop offset="0.83" stop-color="#82ACC8"/>
<stop offset="1" stop-color="#6CA1C4"/>
</linearGradient>
<linearGradient id="paint2_linear" x1="323.452" y1="42.1065" x2="359.527" y2="49.8371" gradientUnits="userSpaceOnUse">
<stop stop-color="#6CA1C4"/>
<stop offset="0.17" stop-color="#82ACC8"/>
<stop offset="0.54" stop-color="#B0C3D1"/>
<stop offset="0.83" stop-color="#CCD2D6"/>
<stop offset="1" stop-color="#D6D7D8"/>
</linearGradient>
<linearGradient id="paint3_linear" x1="13.6217" y1="366.824" x2="213.861" y2="567.063" gradientUnits="userSpaceOnUse">
<stop stop-color="#4278A5"/>
<stop offset="1" stop-color="#4278A5"/>
</linearGradient>
<linearGradient id="paint4_linear" x1="233.898" y1="356.196" x2="233.898" y2="333.004" gradientUnits="userSpaceOnUse">
<stop stop-color="#F43B56"/>
<stop offset="0.48" stop-color="#F23A53"/>
<stop offset="0.77" stop-color="#EB354B"/>
<stop offset="1" stop-color="#E02D3E"/>
</linearGradient>
<linearGradient id="paint5_linear" x1="5223.94" y1="8226.77" x2="5223.94" y2="7713.07" gradientUnits="userSpaceOnUse">
<stop stop-color="#F43B56"/>
<stop offset="0.48" stop-color="#F23A53"/>
<stop offset="0.77" stop-color="#EB354B"/>
<stop offset="1" stop-color="#E02D3E"/>
</linearGradient>
<linearGradient id="paint6_linear" x1="228.197" y1="336.372" x2="228.197" y2="189.26" gradientUnits="userSpaceOnUse">
<stop stop-color="#285B84"/>
<stop offset="0.31" stop-color="#21547F"/>
<stop offset="0.76" stop-color="#0D4070"/>
<stop offset="1" stop-color="#003366"/>
</linearGradient>
<linearGradient id="paint7_linear" x1="17092.7" y1="47486.1" x2="17092.7" y2="26802.1" gradientUnits="userSpaceOnUse">
<stop stop-color="#285B84"/>
<stop offset="0.31" stop-color="#21547F"/>
<stop offset="0.76" stop-color="#0D4070"/>
<stop offset="1" stop-color="#003366"/>
</linearGradient>
<linearGradient id="paint8_linear" x1="4244.25" y1="2617.7" x2="4244.25" y2="2466.3" gradientUnits="userSpaceOnUse">
<stop stop-color="#F43B56"/>
<stop offset="0.48" stop-color="#F23A53"/>
<stop offset="0.77" stop-color="#EB354B"/>
<stop offset="1" stop-color="#E02D3E"/>
</linearGradient>
<linearGradient id="paint9_linear" x1="192.441" y1="205.694" x2="241.984" y2="205.694" gradientUnits="userSpaceOnUse">
<stop stop-color="#336699"/>
<stop offset="1" stop-color="#285B84"/>
</linearGradient>
<linearGradient id="paint10_linear" x1="14392.7" y1="6639.49" x2="17400.9" y2="6639.49" gradientUnits="userSpaceOnUse">
<stop stop-color="#336699"/>
<stop offset="1" stop-color="#285B84"/>
</linearGradient>
<linearGradient id="paint11_linear" x1="15127.5" y1="7371.7" x2="15127.5" y2="13484.1" gradientUnits="userSpaceOnUse">
<stop stop-color="#336699"/>
<stop offset="1" stop-color="#285B84"/>
</linearGradient>
<linearGradient id="paint12_linear" x1="3611.4" y1="499.316" x2="3759.79" y2="499.316" gradientUnits="userSpaceOnUse">
<stop stop-color="#336699"/>
<stop offset="1" stop-color="#285B84"/>
</linearGradient>
<linearGradient id="paint13_linear" x1="251.504" y1="107.497" x2="251.504" y2="84.6294" gradientUnits="userSpaceOnUse">
<stop stop-color="#F9E2B8"/>
<stop offset="0.32" stop-color="#F8E0B5"/>
<stop offset="0.55" stop-color="#F3D9AC"/>
<stop offset="0.75" stop-color="#EBCD9C"/>
<stop offset="0.94" stop-color="#DFBD86"/>
<stop offset="1" stop-color="#DBB77D"/>
</linearGradient>
<linearGradient id="paint14_linear" x1="3268.83" y1="10806.6" x2="3268.83" y2="6778.97" gradientUnits="userSpaceOnUse">
<stop stop-color="#F43B56"/>
<stop offset="0.48" stop-color="#F23A53"/>
<stop offset="0.77" stop-color="#EB354B"/>
<stop offset="1" stop-color="#E02D3E"/>
</linearGradient>
<linearGradient id="paint15_linear" x1="225.393" y1="48.1521" x2="278.629" y2="48.1521" gradientUnits="userSpaceOnUse">
<stop stop-color="#003366"/>
<stop offset="0.34" stop-color="#01315F"/>
<stop offset="0.85" stop-color="#032C4B"/>
<stop offset="1" stop-color="#042A44"/>
</linearGradient>
<linearGradient id="paint16_linear" x1="2978.27" y1="859.307" x2="2978.27" y2="750.559" gradientUnits="userSpaceOnUse">
<stop stop-color="#F9E2B8"/>
<stop offset="0.32" stop-color="#F8E0B5"/>
<stop offset="0.55" stop-color="#F3D9AC"/>
<stop offset="0.75" stop-color="#EBCD9C"/>
<stop offset="0.94" stop-color="#DFBD86"/>
<stop offset="1" stop-color="#DBB77D"/>
</linearGradient>
<linearGradient id="paint17_linear" x1="3186.57" y1="859.7" x2="3186.57" y2="750.898" gradientUnits="userSpaceOnUse">
<stop stop-color="#F9E2B8"/>
<stop offset="0.32" stop-color="#F8E0B5"/>
<stop offset="0.55" stop-color="#F3D9AC"/>
<stop offset="0.75" stop-color="#EBCD9C"/>
<stop offset="0.94" stop-color="#DFBD86"/>
<stop offset="1" stop-color="#DBB77D"/>
</linearGradient>
<linearGradient id="paint18_linear" x1="397.57" y1="366.709" x2="397.57" y2="189.647" gradientUnits="userSpaceOnUse">
<stop stop-color="#6CA1C4"/>
<stop offset="0.45" stop-color="#659DBF"/>
<stop offset="1" stop-color="#5593B5"/>
</linearGradient>
<linearGradient id="paint19_linear" x1="1866.68" y1="62262.3" x2="1866.68" y2="32292.8" gradientUnits="userSpaceOnUse">
<stop stop-color="#6CA1C4"/>
<stop offset="0.45" stop-color="#659DBF"/>
<stop offset="1" stop-color="#5593B5"/>
</linearGradient>
<linearGradient id="paint20_linear" x1="80134.8" y1="2536.57" x2="80134.8" y2="2726.66" gradientUnits="userSpaceOnUse">
<stop stop-color="#6CA1C4"/>
<stop offset="0.45" stop-color="#659DBF"/>
<stop offset="1" stop-color="#5593B5"/>
</linearGradient>
</defs>
</svg>
