<svg width="168" height="49" viewBox="0 0 168 49" fill="none" xmlns="http://www.w3.org/2000/svg">
<path d="M154.622 0.000159249H13.386C12.8712 0.000159249 12.3626 0.00015925 11.8491 0.00260924C11.4193 0.00505923 10.9929 0.0121765 10.559 0.0181667C9.61624 0.0278464 8.67574 0.100212 7.74562 0.234636C6.81682 0.371985 5.91711 0.630929 5.07692 1.00271C4.23776 1.37763 3.471 1.86481 2.80445 2.44656C2.1344 3.02668 1.57586 3.69722 1.15031 4.43239C0.723586 5.1661 0.427694 5.95234 0.272854 6.76395C0.116542 7.57454 0.0324285 8.39447 0.0212695 9.21639C0.00824107 9.59198 0.00686522 9.96881 0 10.3444V38.6593C0.00686522 39.0397 0.00824107 39.4082 0.0212695 39.7886C0.0324319 40.6105 0.116545 41.4304 0.272854 42.241C0.427266 43.053 0.723176 43.8397 1.15031 44.5737C1.57567 45.3065 2.13428 45.9743 2.80445 46.5512C3.46847 47.1356 4.23573 47.6231 5.07692 47.9951C5.9171 48.3679 6.81671 48.6284 7.74562 48.7679C8.67589 48.9012 9.6163 48.9736 10.559 48.9844C10.9929 48.9928 11.4193 48.9976 11.8491 48.9976C12.3625 49 12.8712 49 13.386 49H154.622C155.126 49 155.639 49 156.143 48.9976C156.571 48.9976 157.01 48.9928 157.438 48.9844C158.379 48.9742 159.317 48.9018 160.246 48.7679C161.177 48.6274 162.08 48.367 162.924 47.9951C163.765 47.6229 164.531 47.1354 165.195 46.5512C165.863 45.9721 166.423 45.3047 166.854 44.5737C167.278 43.8392 167.571 43.0526 167.723 42.241C167.88 41.4303 167.967 40.6106 167.984 39.7886C167.989 39.4082 167.989 39.0397 167.989 38.6593C168 38.2143 168 37.7717 168 37.3194V11.6819C168 11.2333 168 10.7883 167.989 10.3444C167.989 9.96881 167.989 9.59198 167.984 9.21634C167.967 8.39435 167.88 7.5746 167.723 6.7639C167.57 5.95276 167.277 5.16658 166.854 4.43234C165.987 2.95876 164.613 1.75928 162.924 1.0026C162.08 0.631727 161.177 0.372853 160.246 0.234525C159.317 0.0995098 158.379 0.0271187 157.438 0.0179952C157.01 0.0120172 156.571 0.00483873 156.143 0.00244999C155.639 0 155.126 0 154.622 0V0.000159249Z" fill="#A6A6A6"/>
<path d="M11.8559 47.9279C11.4281 47.9279 11.0107 47.9231 10.5863 47.9148C9.70717 47.9048 8.83005 47.838 7.96219 47.715C7.15295 47.5934 6.36902 47.3672 5.63624 47.0438C4.91019 46.7231 4.24797 46.3026 3.67495 45.7985C3.09364 45.3002 2.60967 44.7224 2.24223 44.0878C1.87073 43.449 1.61364 42.7644 1.47989 42.0577C1.33546 41.2983 1.25732 40.5305 1.24614 39.7608C1.23724 39.5025 1.22559 38.6423 1.22559 38.6423V10.3442C1.22559 10.3442 1.238 9.49721 1.24621 9.24838C1.25692 8.47992 1.3346 7.71328 1.4786 6.9551C1.61259 6.24647 1.86989 5.55985 2.24158 4.91904C2.60768 4.28487 3.08896 3.70657 3.66677 3.20655C4.24393 2.70178 4.90827 2.27914 5.63556 1.95403C6.36664 1.63172 7.1491 1.4071 7.9567 1.28771C8.82741 1.16345 9.70757 1.09627 10.5898 1.08673L11.8566 1.07178H156.136L157.418 1.08733C158.293 1.0964 159.165 1.16298 160.027 1.28651C160.843 1.4074 161.634 1.63358 162.373 1.95762C163.83 2.61281 165.016 3.64937 165.764 4.92203C166.13 5.55842 166.383 6.23943 166.515 6.94195C166.661 7.70635 166.742 8.47901 166.759 9.25377C166.763 9.60069 166.763 9.97333 166.763 10.3442C166.774 10.8036 166.774 11.2408 166.774 11.6816V37.3192C166.774 37.7642 166.774 38.1985 166.763 38.6363C166.763 39.0347 166.763 39.3996 166.758 39.7752C166.741 40.5361 166.661 41.295 166.518 42.0457C166.387 42.7575 166.131 43.4475 165.76 44.0914C165.39 44.7191 164.908 45.292 164.334 45.7889C163.76 46.2958 163.097 46.7187 162.369 47.0415C161.632 47.3673 160.842 47.5944 160.027 47.715C159.16 47.8386 158.282 47.9054 157.403 47.9148C156.992 47.9231 156.561 47.9279 156.143 47.9279L154.621 47.9303L11.8559 47.9279Z" fill="#404040"/>
<path d="M41.1266 24.8686C41.1398 23.8461 41.4114 22.8436 41.9161 21.9543C42.4209 21.065 43.1423 20.3178 44.0134 19.7823C43.4601 18.992 42.73 18.3416 41.8813 17.8828C41.0326 17.4239 40.0886 17.1693 39.1243 17.1392C37.0672 16.9232 35.073 18.3701 34.0247 18.3701C32.9562 18.3701 31.3423 17.1606 29.6043 17.1964C28.4802 17.2327 27.3846 17.5596 26.4244 18.1452C25.4641 18.7308 24.6719 19.5552 24.125 20.538C21.7559 24.6398 23.5231 30.668 25.7925 33.9836C26.9279 35.6072 28.255 37.4207 29.9913 37.3564C31.6905 37.2859 32.3251 36.2729 34.3761 36.2729C36.408 36.2729 37.0034 37.3564 38.775 37.3155C40.5983 37.2859 41.747 35.6848 42.8426 34.0458C43.6585 32.889 44.2862 31.6104 44.7027 30.2575C43.6434 29.8095 42.7395 29.0596 42.1036 28.1013C41.4676 27.143 41.1279 26.0187 41.1266 24.8686Z" fill="white"/>
<path d="M37.7807 14.9591C38.7748 13.7657 39.2646 12.2318 39.146 10.6831C37.6272 10.8426 36.2243 11.5685 35.2167 12.7161C34.7241 13.2768 34.3468 13.929 34.1064 14.6355C33.866 15.3421 33.7672 16.0891 33.8157 16.8338C34.5754 16.8416 35.3269 16.677 36.0137 16.3522C36.7005 16.0275 37.3047 15.5512 37.7807 14.9591Z" fill="white"/>
<path d="M62.6049 33.2464H56.8065L55.414 37.358H52.958L58.4502 22.146H61.0018L66.494 37.358H63.9961L62.6049 33.2464ZM57.407 31.349H62.0032L59.7374 24.6762H59.674L57.407 31.349Z" fill="white"/>
<path d="M78.3554 31.8135C78.3554 35.26 76.5107 37.4743 73.727 37.4743C73.0218 37.5112 72.3205 37.3488 71.7033 37.0056C71.0862 36.6624 70.5782 36.1524 70.2374 35.5339H70.1847V41.0273H67.9082V26.2675H70.1118V28.1122H70.1537C70.5101 27.4967 71.0267 26.9893 71.6485 26.644C72.2704 26.2988 72.9742 26.1285 73.6851 26.1515C76.4999 26.1515 78.3554 28.3766 78.3554 31.8135ZM76.0155 31.8135C76.0155 29.5681 74.8551 28.0918 73.0846 28.0918C71.3452 28.0918 70.1752 29.5992 70.1752 31.8135C70.1752 34.0482 71.3452 35.5447 73.0846 35.5447C74.8551 35.5447 76.0155 34.0793 76.0155 31.8135Z" fill="white"/>
<path d="M90.5619 31.8135C90.5619 35.26 88.7173 37.4743 85.9335 37.4743C85.2283 37.5112 84.527 37.3487 83.9099 37.0056C83.2927 36.6624 82.7847 36.1524 82.444 35.5339H82.3913V41.0272H80.1147V26.2675H82.3183V28.1122H82.3602C82.7166 27.4966 83.2332 26.9893 83.855 26.644C84.4769 26.2988 85.1807 26.1285 85.8916 26.1515C88.7065 26.1515 90.5619 28.3765 90.5619 31.8135ZM88.222 31.8135C88.222 29.5681 87.0616 28.0918 85.2911 28.0918C83.5517 28.0918 82.3817 29.5991 82.3817 31.8135C82.3817 34.0481 83.5517 35.5447 85.2911 35.5447C87.0616 35.5447 88.222 34.0792 88.222 31.8135H88.222Z" fill="white"/>
<path d="M98.6297 33.1198C98.7984 34.6283 100.264 35.6188 102.266 35.6188C104.185 35.6188 105.566 34.6282 105.566 33.2681C105.566 32.0873 104.733 31.3803 102.762 30.8958L100.79 30.4209C97.9969 29.7462 96.7001 28.4399 96.7001 26.32C96.7001 23.6954 98.9874 21.8926 102.235 21.8926C105.45 21.8926 107.653 23.6954 107.727 26.32H105.429C105.292 24.8019 104.037 23.8856 102.203 23.8856C100.369 23.8856 99.1142 24.8127 99.1142 26.1621C99.1142 27.2376 99.9157 27.8704 101.876 28.3549L103.552 28.7664C106.673 29.5045 107.97 30.7582 107.97 32.9833C107.97 35.8293 105.703 37.6117 102.098 37.6117C98.7242 37.6117 96.4465 35.8711 96.2993 33.1197L98.6297 33.1198Z" fill="white"/>
<path d="M112.883 23.6426V26.2672H114.992V28.07H112.883V34.1842C112.883 35.1341 113.306 35.5767 114.233 35.5767C114.483 35.5724 114.733 35.5548 114.982 35.524V37.3161C114.565 37.394 114.141 37.4292 113.717 37.4214C111.472 37.4214 110.596 36.578 110.596 34.427V28.07H108.983V26.2672H110.596V23.6426H112.883Z" fill="white"/>
<path d="M116.214 31.8132C116.214 28.3237 118.269 26.1309 121.474 26.1309C124.69 26.1309 126.735 28.3236 126.735 31.8132C126.735 35.3124 124.7 37.4956 121.474 37.4956C118.249 37.4956 116.214 35.3123 116.214 31.8132ZM124.416 31.8132C124.416 29.4194 123.319 28.0066 121.474 28.0066C119.629 28.0066 118.533 29.4302 118.533 31.8132C118.533 34.2165 119.629 35.6186 121.474 35.6186C123.319 35.6186 124.416 34.2165 124.416 31.8132H124.416Z" fill="white"/>
<path d="M128.612 26.2674H130.784V28.1551H130.836C130.983 27.5655 131.329 27.0445 131.814 26.6796C132.3 26.3147 132.897 26.1282 133.504 26.1513C133.766 26.1504 134.028 26.1789 134.284 26.2363V28.3657C133.953 28.2645 133.607 28.218 133.261 28.2281C132.93 28.2147 132.601 28.273 132.295 28.399C131.989 28.5251 131.713 28.7158 131.488 28.9583C131.263 29.2007 131.092 29.489 130.989 29.8034C130.886 30.1178 130.851 30.4509 130.889 30.7798V37.3581H128.612L128.612 26.2674Z" fill="white"/>
<path d="M144.78 34.1005C144.474 36.1139 142.513 37.4956 140.004 37.4956C136.778 37.4956 134.775 35.3339 134.775 31.8658C134.775 28.3871 136.789 26.1309 139.909 26.1309C142.977 26.1309 144.907 28.2387 144.907 31.6015V32.3814H137.073V32.519C137.037 32.9272 137.088 33.3384 137.223 33.7253C137.358 34.1122 137.574 34.4659 137.856 34.7631C138.138 35.0602 138.481 35.2939 138.86 35.4486C139.239 35.6033 139.648 35.6755 140.057 35.6605C140.595 35.7109 141.135 35.5863 141.596 35.3052C142.058 35.0241 142.416 34.6016 142.618 34.1005L144.78 34.1005ZM137.084 30.7904H142.629C142.649 30.4234 142.594 30.0561 142.466 29.7116C142.337 29.3672 142.139 29.0529 141.884 28.7886C141.628 28.5243 141.321 28.3156 140.981 28.1757C140.641 28.0358 140.276 27.9676 139.909 27.9755C139.538 27.9733 139.17 28.0445 138.827 28.1851C138.484 28.3257 138.173 28.5328 137.91 28.7945C137.647 29.0562 137.439 29.3673 137.297 29.7099C137.156 30.0524 137.083 30.4197 137.084 30.7904V30.7904Z" fill="white"/>
<path d="M55.7887 13.7853H56.7661C56.9343 13.8062 57.1051 13.7921 57.2676 13.7438C57.4301 13.6955 57.5809 13.614 57.7104 13.5046C57.8398 13.3951 57.9452 13.26 58.0199 13.1078C58.0946 12.9555 58.1369 12.7895 58.1442 12.6201C58.1442 11.946 57.637 11.5106 56.7769 11.5106C56.6045 11.4865 56.429 11.4972 56.2609 11.542C56.0927 11.5869 55.9352 11.6649 55.7977 11.7717C55.6602 11.8784 55.5455 12.0116 55.4603 12.1633C55.3752 12.3151 55.3213 12.4824 55.3018 12.6554H54.2287C54.2472 12.3414 54.3301 12.0346 54.4723 11.7541C54.6145 11.4736 54.8129 11.2253 55.0552 11.0248C55.2974 10.8242 55.5784 10.6757 55.8806 10.5885C56.1828 10.5012 56.4996 10.4771 56.8115 10.5176C58.2507 10.5176 59.264 11.3233 59.264 12.4831C59.2673 12.8717 59.1374 13.2496 58.8957 13.5539C58.654 13.8581 58.3153 14.0703 57.9361 14.1549V14.2411C58.3856 14.261 58.809 14.4581 59.1137 14.7894C59.4183 15.1206 59.5795 15.5589 59.5618 16.0086C59.5286 16.3319 59.4311 16.6452 59.2751 16.9303C59.1192 17.2154 58.9079 17.4666 58.6536 17.6689C58.3994 17.8713 58.1073 18.0209 57.7945 18.109C57.4816 18.197 57.1544 18.2217 56.8319 18.1816C56.5087 18.2257 56.18 18.2042 55.8653 18.1185C55.5506 18.0328 55.2564 17.8847 55.0002 17.6828C54.744 17.481 54.531 17.2296 54.374 16.9437C54.2171 16.6578 54.1192 16.3433 54.0864 16.0188H55.1762C55.242 16.718 55.8845 17.169 56.8319 17.169C57.7793 17.169 58.3978 16.6624 58.3978 15.9482C58.3978 15.2239 57.8152 14.7777 56.7972 14.7777H55.7887V13.7853Z" fill="white"/>
<path d="M60.8003 16.4449C60.8003 15.452 61.5408 14.8796 62.8519 14.7982L64.3461 14.7121V14.236C64.3461 13.6534 63.9621 13.3244 63.2168 13.3244C62.6091 13.3244 62.1892 13.5475 62.0672 13.9375H61.0132C61.1245 12.99 62.0169 12.3823 63.2682 12.3823C64.6511 12.3823 65.4311 13.0708 65.4311 14.236V18.0049H64.382V17.2297H64.2958C64.121 17.5077 63.8755 17.7344 63.5844 17.8866C63.2933 18.0387 62.9671 18.1109 62.639 18.0957C62.4074 18.1198 62.1734 18.0951 61.9519 18.0232C61.7305 17.9513 61.5266 17.8338 61.3534 17.6783C61.1801 17.5227 61.0414 17.3326 60.9462 17.1202C60.8509 16.9078 60.8012 16.6777 60.8003 16.4449ZM64.3461 15.9736V15.5124L62.999 15.5985C62.2394 15.6494 61.8948 15.9078 61.8948 16.3941C61.8948 16.8905 62.3255 17.1794 62.9177 17.1794C63.0912 17.197 63.2665 17.1795 63.4331 17.1279C63.5997 17.0764 63.7543 16.9918 63.8875 16.8793C64.0208 16.7668 64.1301 16.6286 64.2089 16.473C64.2876 16.3174 64.3343 16.1476 64.3461 15.9736Z" fill="white"/>
<path d="M68.3201 13.4056V18.0053H67.2314V12.4893H70.8634V13.4056L68.3201 13.4056Z" fill="white"/>
<path d="M77.4608 15.2442C77.4608 16.9967 76.5743 18.0955 75.1819 18.0955C74.84 18.1189 74.4987 18.0441 74.1979 17.8799C73.8972 17.7158 73.6496 17.4691 73.4843 17.169H73.3982V19.8385H72.3096V12.4885H73.3575V13.4002H73.4389C73.6071 13.0895 73.8579 12.8315 74.1636 12.6545C74.4693 12.4775 74.818 12.3884 75.1711 12.3971C76.5743 12.397 77.4608 13.491 77.4608 15.2442ZM76.3411 15.2442C76.3411 14.079 75.7896 13.375 74.8672 13.375C73.9509 13.375 73.3779 14.094 73.3779 15.249C73.3779 16.3986 73.9509 17.1182 74.8625 17.1182C75.7896 17.1182 76.3411 16.4141 76.3411 15.2442Z" fill="white"/>
<path d="M78.9104 19.981V19.0437C79.0282 19.0587 79.1469 19.0655 79.2657 19.064C79.4976 19.0812 79.7277 19.0121 79.9119 18.8701C80.096 18.728 80.2212 18.5229 80.2634 18.2942L80.3447 18.0257L78.3481 12.4893H79.5337L80.9166 16.8707H81.0027L82.3809 12.4893H83.5353L81.4789 18.2332C81.0075 19.5755 80.486 20.0061 79.3615 20.0061C79.2705 20.0061 79.0121 19.9959 78.9104 19.981Z" fill="white"/>
<path d="M84.3838 16.4386H85.4676C85.5741 16.9249 86.0299 17.1785 86.6675 17.1785C87.3925 17.1785 87.8375 16.859 87.8375 16.3626C87.8375 15.8309 87.4379 15.5772 86.6675 15.5772H85.8421V14.7315H86.6531C87.3111 14.7315 87.6461 14.4785 87.6461 14.0173C87.6461 13.6124 87.3219 13.3031 86.6531 13.3031C86.0442 13.3031 85.5992 13.5615 85.5286 13.997H84.4795C84.5579 13.4966 84.8296 13.047 85.2361 12.7449C85.6426 12.4428 86.1514 12.3122 86.6531 12.3814C87.9643 12.3814 88.7143 12.9742 88.7143 13.9061C88.7205 14.1656 88.6373 14.4193 88.4788 14.6249C88.3203 14.8304 88.096 14.9753 87.8434 15.0354V15.1215C88.1441 15.1603 88.4201 15.3081 88.619 15.5369C88.8179 15.7656 88.9259 16.0595 88.9225 16.3626C88.9225 17.4112 88.0301 18.105 86.6675 18.105C85.4628 18.105 84.4843 17.5529 84.3838 16.4386Z" fill="white"/>
<path d="M90.4902 18.0053V12.4893H91.5693V16.2833H91.6554L94.1975 12.4893H95.2766V18.0053H94.1975V14.191H94.1162L91.5693 18.0054L90.4902 18.0053Z" fill="white"/>
<path d="M101.221 13.4056H99.4836V18.0053H98.3938V13.4056H96.6567V12.4893H101.221V13.4056Z" fill="white"/>
<path d="M107.085 16.5146C106.937 17.0187 106.616 17.4547 106.179 17.7464C105.742 18.0381 105.216 18.1669 104.694 18.1105C104.33 18.12 103.969 18.0504 103.635 17.9065C103.301 17.7625 103.003 17.5476 102.761 17.2767C102.518 17.0058 102.338 16.6854 102.231 16.3377C102.125 15.99 102.096 15.6234 102.146 15.2633C102.097 14.9021 102.127 14.5346 102.233 14.1859C102.339 13.8372 102.519 13.5153 102.76 13.242C103.001 12.9688 103.298 12.7505 103.631 12.602C103.964 12.4536 104.324 12.3783 104.689 12.3814C106.224 12.3814 107.151 13.43 107.151 15.1622V15.5421H103.256V15.6031C103.239 15.8055 103.264 16.0094 103.33 16.2015C103.396 16.3936 103.502 16.5697 103.64 16.7185C103.779 16.8674 103.947 16.9856 104.133 17.0656C104.32 17.1457 104.522 17.1858 104.725 17.1833C104.985 17.2144 105.249 17.1675 105.482 17.0484C105.716 16.9293 105.908 16.7435 106.036 16.5146L107.085 16.5146ZM103.256 14.7369H106.041C106.054 14.5519 106.029 14.366 105.967 14.1913C105.905 14.0165 105.806 13.8567 105.679 13.7221C105.551 13.5876 105.396 13.4812 105.225 13.4099C105.054 13.3386 104.87 13.3039 104.684 13.308C104.496 13.3054 104.309 13.3406 104.134 13.4115C103.96 13.4825 103.801 13.5876 103.668 13.7208C103.535 13.8541 103.43 14.0126 103.359 14.1871C103.288 14.3617 103.253 14.5486 103.256 14.7369H103.256Z" fill="white"/>
<path d="M111.7 12.4893H114.187C115.266 12.4893 115.899 13.036 115.899 13.8919C115.901 14.1635 115.809 14.4274 115.64 14.6395C115.47 14.8516 115.233 14.999 114.967 15.0571V15.1432C115.289 15.1635 115.591 15.3068 115.811 15.5435C116.03 15.7802 116.151 16.0921 116.147 16.4148C116.147 17.3772 115.423 18.0053 114.212 18.0053H111.7V12.4893ZM112.779 13.3249V14.7532H113.858C114.516 14.7532 114.831 14.5002 114.831 14.0336C114.831 13.6036 114.557 13.3249 113.979 13.3249L112.779 13.3249ZM112.779 15.5535V17.1697H114.07C114.714 17.1697 115.058 16.8856 115.058 16.364C115.058 15.812 114.668 15.5536 113.934 15.5536L112.779 15.5535Z" fill="white"/>
</svg>
