<svg width="91" height="71" viewBox="0 0 91 71" fill="none" xmlns="http://www.w3.org/2000/svg">
<path opacity="0.42" d="M19.7201 12.8582C22.0607 8.995 25.3875 5.82451 29.3589 3.67249C33.3302 1.52048 37.8029 0.464535 42.3174 0.613141C46.8319 0.761746 51.2254 2.10955 55.0467 4.51807C58.8679 6.9266 61.979 10.309 64.0604 14.3178C66.6282 13.2427 69.4025 12.7509 72.1833 12.8778C74.9641 13.0047 77.6821 13.7472 80.1412 15.0516C82.6003 16.3561 84.7393 18.19 86.4039 20.4212C88.0685 22.6523 89.2172 25.2251 89.7672 27.954C90.3171 30.6828 90.2546 33.4997 89.5841 36.2014C88.9137 38.9032 87.652 41.4224 85.89 43.5776C84.1281 45.7327 81.9098 47.4699 79.3953 48.664C76.8807 49.8581 74.1324 50.4792 71.3487 50.4826H62.1525L62.5532 70.8975L43.3594 50.4826H19.8155C14.8262 50.4953 10.0362 48.5254 6.49932 45.0064C2.9624 41.4874 0.968277 36.7074 0.955627 31.7181C0.942977 26.7288 2.91284 21.9389 6.43187 18.4019C9.95089 14.865 14.7308 12.8709 19.7201 12.8582Z" fill="url(#paint0_linear)"/>
<defs>
<linearGradient id="paint0_linear" x1="-125480" y1="7135.16" x2="-125480" y2="1953.48" gradientUnits="userSpaceOnUse">
<stop stop-color="#6CA1C4"/>
<stop offset="0.23" stop-color="#7FABC8"/>
<stop offset="0.68" stop-color="#B0C4D1"/>
<stop offset="1" stop-color="#D6D7D8"/>
</linearGradient>
</defs>
</svg>
