<svg width="97" height="54" viewBox="0 0 97 54" fill="none" xmlns="http://www.w3.org/2000/svg">
<path opacity="0.42" d="M20.5947 13.4411C23.2782 13.4357 25.9355 13.9693 28.409 15.0102C30.6405 10.7023 33.9795 7.06677 38.0825 4.47776C42.1856 1.88875 46.9043 0.439778 51.7533 0.279958C56.6022 0.120138 61.4061 1.25524 65.6707 3.56846C69.9353 5.88168 73.5065 9.28945 76.0168 13.4411C81.3714 13.4536 86.5018 15.5927 90.2792 19.3878C94.0567 23.1829 96.1719 28.3232 96.1594 33.6778C96.1469 39.0324 94.0078 44.1628 90.2127 47.9403C86.4176 51.7177 81.2773 53.8329 75.9227 53.8204H20.5947C17.9433 53.8204 15.318 53.2982 12.8684 52.2835C10.4189 51.2689 8.19322 49.7817 6.31844 47.907C4.44366 46.0322 2.95651 43.8065 1.94188 41.357C0.927256 38.9075 0.405029 36.2821 0.405029 33.6307C0.405029 30.9794 0.927256 28.354 1.94188 25.9045C2.95651 23.455 4.44366 21.2293 6.31844 19.3545C8.19322 17.4797 10.4189 15.9926 12.8684 14.9779C15.318 13.9633 17.9433 13.4411 20.5947 13.4411Z" fill="url(#paint0_linear)"/>
<defs>
<linearGradient id="paint0_linear" x1="48.2534" y1="69.7629" x2="48.2534" y2="16.2028" gradientUnits="userSpaceOnUse">
<stop stop-color="#6CA1C4"/>
<stop offset="0.23" stop-color="#7FABC8"/>
<stop offset="0.68" stop-color="#B0C4D1"/>
<stop offset="1" stop-color="#D6D7D8"/>
</linearGradient>
</defs>
</svg>
