<svg width="135" height="40" viewBox="0 0 135 40" fill="none" xmlns="http://www.w3.org/2000/svg">
<path d="M130 40H5C2.25 40 0 37.75 0 35V5C0 2.25 2.25 0 5 0H130C132.75 0 135 2.25 135 5V35C135 37.75 132.75 40 130 40Z" fill="#404040"/>
<path d="M130 0.8C132.32 0.8 134.2 2.68 134.2 5V35C134.2 37.32 132.32 39.2 130 39.2H5C2.68 39.2 0.8 37.32 0.8 35V5C0.8 2.68 2.68 0.8 5 0.8H130ZM130 0H5C2.25 0 0 2.25 0 5V35C0 37.75 2.25 40 5 40H130C132.75 40 135 37.75 135 35V5C135 2.25 132.75 0 130 0Z" fill="#A6A6A6"/>
<path d="M68.14 21.75C65.79 21.75 63.87 23.54 63.87 26C63.87 28.45 65.79 30.25 68.14 30.25C70.49 30.25 72.41 28.45 72.41 26C72.41 23.54 70.49 21.75 68.14 21.75ZM68.14 28.5801C66.85 28.5801 65.74 27.5201 65.74 26C65.74 24.47 66.85 23.42 68.14 23.42C69.43 23.42 70.54 24.47 70.54 26C70.54 27.5201 69.42 28.5801 68.14 28.5801ZM58.82 21.75C56.47 21.75 54.55 23.54 54.55 26C54.55 28.45 56.47 30.25 58.82 30.25C61.17 30.25 63.09 28.45 63.09 26C63.09 23.54 61.17 21.75 58.82 21.75ZM58.82 28.5801C57.53 28.5801 56.42 27.5201 56.42 26C56.42 24.47 57.53 23.42 58.82 23.42C60.11 23.42 61.22 24.47 61.22 26C61.22 27.5201 60.11 28.5801 58.82 28.5801ZM47.74 23.0601V24.8601H52.06C51.93 25.8701 51.59 26.6201 51.08 27.1301C50.45 27.7601 49.47 28.4501 47.75 28.4501C45.09 28.4501 43.01 26.3101 43.01 23.6501C43.01 20.9901 45.09 18.85 47.75 18.85C49.18 18.85 50.23 19.41 51 20.14L52.27 18.8701C51.19 17.8401 49.76 17.05 47.74 17.05C44.1 17.05 41.04 20.01 41.04 23.66C41.04 27.3 44.1 30.2701 47.74 30.2701C49.71 30.2701 51.19 29.63 52.35 28.42C53.54 27.23 53.91 25.5501 53.91 24.2001C53.91 23.7801 53.88 23.39 53.81 23.07H47.74V23.0601ZM93.05 24.46C92.7 23.51 91.62 21.75 89.41 21.75C87.22 21.75 85.4 23.47 85.4 26C85.4 28.38 87.2 30.25 89.62 30.25C91.57 30.25 92.7 29.06 93.16 28.37L91.71 27.4001C91.23 28.1101 90.57 28.5801 89.62 28.5801C88.67 28.5801 87.99 28.1401 87.56 27.2901L93.25 24.94L93.05 24.46ZM87.25 25.8801C87.2 24.2401 88.52 23.4001 89.47 23.4001C90.21 23.4001 90.84 23.77 91.05 24.3L87.25 25.8801ZM82.63 30H84.5V17.5H82.63V30ZM79.57 22.7001H79.5C79.08 22.2001 78.28 21.75 77.26 21.75C75.13 21.75 73.18 23.62 73.18 26.0201C73.18 28.4001 75.13 30.26 77.26 30.26C78.27 30.26 79.08 29.8101 79.5 29.2901H79.56V29.9001C79.56 31.5301 78.69 32.4001 77.29 32.4001C76.15 32.4001 75.44 31.58 75.15 30.89L73.52 31.57C73.99 32.7 75.23 34.0801 77.29 34.0801C79.48 34.0801 81.33 32.7901 81.33 29.6501V22.01H79.56V22.7001H79.57ZM77.42 28.5801C76.13 28.5801 75.05 27.5 75.05 26.0201C75.05 24.5201 76.13 23.43 77.42 23.43C78.69 23.43 79.69 24.5301 79.69 26.0201C79.7 27.5 78.7 28.5801 77.42 28.5801ZM101.81 17.5H97.34V30H99.21V25.26H101.82C103.89 25.26 105.92 23.76 105.92 21.38C105.92 19 103.87 17.5 101.81 17.5ZM101.85 23.5201H99.2V19.23H101.85C103.25 19.23 104.04 20.3901 104.04 21.3701C104.04 22.3501 103.25 23.5201 101.85 23.5201ZM113.39 21.73C112.04 21.73 110.64 22.33 110.06 23.64L111.72 24.3301C112.07 23.6401 112.73 23.41 113.42 23.41C114.38 23.41 115.37 23.9901 115.38 25.0201V25.1501C115.04 24.9601 114.32 24.67 113.43 24.67C111.64 24.67 109.83 25.65 109.83 27.48C109.83 29.15 111.29 30.23 112.93 30.23C114.18 30.23 114.88 29.67 115.31 29.01H115.37V29.98H117.17V25.19C117.18 22.97 115.52 21.73 113.39 21.73ZM113.16 28.5801C112.55 28.5801 111.7 28.2701 111.7 27.5201C111.7 26.5601 112.76 26.19 113.68 26.19C114.5 26.19 114.89 26.3701 115.38 26.6101C115.24 27.76 114.24 28.5801 113.16 28.5801ZM123.74 22L121.6 27.42H121.54L119.32 22H117.31L120.64 29.5801L118.74 33.7901H120.69L125.82 22H123.74ZM106.94 30H108.81V17.5H106.94V30Z" fill="white"/>
<path d="M10.44 7.53973C10.15 7.84973 9.97998 8.32973 9.97998 8.93973V31.0597C9.97998 31.6797 10.15 32.1597 10.44 32.4597L10.51 32.5297L22.9 20.1497V19.9997V19.8497L10.51 7.46973L10.44 7.53973Z" fill="url(#paint0_linear)"/>
<path d="M27.03 24.2797L22.9 20.1497V19.9997V19.8497L27.03 15.7197L27.12 15.7697L32.01 18.5497C33.41 19.3397 33.41 20.6397 32.01 21.4397L27.12 24.2197L27.03 24.2797Z" fill="url(#paint1_linear)"/>
<path d="M27.1199 24.22L22.8999 20L10.4399 32.46C10.8999 32.95 11.6599 33.01 12.5199 32.52L27.1199 24.22Z" fill="url(#paint2_linear)"/>
<path d="M27.1199 15.78L12.5099 7.47999C11.6499 6.98999 10.8899 7.04999 10.4299 7.53999L22.8999 20L27.1199 15.78Z" fill="url(#paint3_linear)"/>
<path opacity="0.2" d="M27.0299 24.1299L12.5099 32.3799C11.6999 32.8399 10.9699 32.8099 10.5099 32.3899L10.4399 32.4599L10.5099 32.5299C10.9799 32.9499 11.6999 32.9799 12.5099 32.5199L27.1199 24.2199L27.0299 24.1299Z" fill="#404040"/>
<path opacity="0.12" d="M10.44 32.3199C10.15 32.0099 9.97998 31.5299 9.97998 30.9199V31.0699C9.97998 31.6899 10.15 32.1699 10.44 32.4699L10.51 32.3999L10.44 32.3199Z" fill="#404040"/>
<path opacity="0.12" d="M32.01 21.3L27.02 24.13L27.11 24.22L32 21.44C32.7 21.04 33.05 20.52 33.05 20C33 20.47 32.65 20.94 32.01 21.3Z" fill="#404040"/>
<path opacity="0.25" d="M12.51 7.61994L32.01 18.6999C32.64 19.0599 33 19.5199 33.06 19.9999C33.06 19.4799 32.71 18.9499 32.01 18.5599L12.51 7.47994C11.11 6.68994 9.96997 7.34994 9.96997 8.94994V9.09994C9.96997 7.48994 11.12 6.82994 12.51 7.61994Z" fill="white"/>
<path d="M42.1101 14.27H41.3701V12.26H41.9601C42.4801 11.81 42.7301 11.05 42.7201 9.96V7H46.7301V12.26H47.4001V14.27H46.6601V13H42.1101V14.27ZM43.5001 9.97C43.5101 10.92 43.3201 11.68 42.9301 12.27H45.9601V7.74H43.5001V9.97Z" fill="white" stroke="white" stroke-width="0.2" stroke-miterlimit="10"/>
<path d="M53.4101 12.2201C52.8201 12.8301 52.0901 13.1301 51.2101 13.1301C50.3301 13.1301 49.6001 12.8301 49.0101 12.2201C48.4201 11.6101 48.1301 10.8701 48.1301 10.0001C48.1301 9.13012 48.4201 8.38012 49.0101 7.78012C49.6001 7.17012 50.3301 6.87012 51.2101 6.87012C52.0801 6.87012 52.8101 7.17012 53.4101 7.78012C54.0001 8.39012 54.3001 9.13012 54.3001 10.0001C54.3001 10.8801 54.0001 11.6201 53.4101 12.2201ZM49.5801 11.7201C50.0201 12.1701 50.5701 12.3901 51.2101 12.3901C51.8501 12.3901 52.4001 12.1701 52.8401 11.7201C53.2801 11.2701 53.5101 10.7001 53.5101 10.0001C53.5101 9.30012 53.2901 8.73012 52.8401 8.28012C52.4001 7.83012 51.8501 7.61012 51.2101 7.61012C50.5701 7.61012 50.0201 7.83012 49.5801 8.28012C49.1401 8.73012 48.9101 9.30012 48.9101 10.0001C48.9101 10.7001 49.1401 11.2701 49.5801 11.7201Z" fill="white" stroke="white" stroke-width="0.2" stroke-miterlimit="10"/>
<path d="M58.1801 13.1301C57.3001 13.1301 56.5601 12.8301 55.9601 12.2301C55.3601 11.6301 55.0601 10.8901 55.0601 9.9901C55.0601 9.0901 55.3601 8.3501 55.9601 7.7501C56.5601 7.1501 57.3001 6.8501 58.1801 6.8501C59.0801 6.8501 59.8201 7.1801 60.3801 7.8301L59.8401 8.3501C59.4301 7.8401 58.8801 7.5901 58.1701 7.5901C57.5201 7.5901 56.9601 7.8101 56.5101 8.2501C56.0601 8.6901 55.8401 9.2701 55.8401 9.9801C55.8401 10.6901 56.0601 11.2701 56.5101 11.7101C56.9601 12.1501 57.5101 12.3701 58.1701 12.3701C58.8901 12.3701 59.5001 12.0801 60.0101 11.5001L60.5501 12.0401C60.2801 12.3701 59.9301 12.6301 59.5201 12.8201C59.1101 13.0401 58.6601 13.1301 58.1801 13.1301Z" fill="white" stroke="white" stroke-width="0.2" stroke-miterlimit="10"/>
<path d="M63.6801 13H62.9101V7.74H61.2301V7H65.3501V7.74H63.6701V13H63.6801Z" fill="white" stroke="white" stroke-width="0.2" stroke-miterlimit="10"/>
<path d="M70.6501 7L68.3801 12.06C68.0701 12.77 67.6001 13.13 66.9801 13.13C66.8001 13.13 66.6001 13.09 66.3801 13L66.5801 12.29C66.7101 12.36 66.8401 12.4 66.9801 12.4C67.1601 12.4 67.3001 12.37 67.4001 12.3C67.5001 12.23 67.5901 12.1 67.6701 11.92L67.8901 11.44L65.8701 7H66.7801L68.2601 10.44H68.2901L69.7401 7H70.6501Z" fill="white" stroke="white" stroke-width="0.2" stroke-miterlimit="10"/>
<path d="M71.5201 13V7H75.8601V13H75.0901V7.74H72.2901V13H71.5201Z" fill="white" stroke="white" stroke-width="0.2" stroke-miterlimit="10"/>
<path d="M77.2301 13V7H78.0001V9.57H81.0001V7H81.7701V13H81.0001V10.29H78.0001V13H77.2301Z" fill="white" stroke="white" stroke-width="0.2" stroke-miterlimit="10"/>
<path d="M88.0602 12.2201C87.4701 12.8301 86.7402 13.1301 85.8602 13.1301C84.9802 13.1301 84.2502 12.8301 83.6602 12.2201C83.0702 11.6101 82.7802 10.8701 82.7802 10.0001C82.7802 9.13012 83.0702 8.38012 83.6602 7.78012C84.2502 7.17012 84.9802 6.87012 85.8602 6.87012C86.7302 6.87012 87.4602 7.17012 88.0602 7.78012C88.6502 8.39012 88.9501 9.13012 88.9501 10.0001C88.9401 10.8801 88.6502 11.6201 88.0602 12.2201ZM84.2302 11.7201C84.6702 12.1701 85.2202 12.3901 85.8602 12.3901C86.5002 12.3901 87.0502 12.1701 87.4902 11.7201C87.9302 11.2701 88.1602 10.7001 88.1602 10.0001C88.1602 9.30012 87.9402 8.73012 87.4902 8.28012C87.0502 7.83012 86.5002 7.61012 85.8602 7.61012C85.2202 7.61012 84.6702 7.83012 84.2302 8.28012C83.7902 8.73012 83.5602 9.30012 83.5602 10.0001C83.5602 10.7001 83.7802 11.2701 84.2302 11.7201Z" fill="white" stroke="white" stroke-width="0.2" stroke-miterlimit="10"/>
<path d="M92.0901 13V7H94.2601C94.7301 7 95.1401 7.16 95.4801 7.46C95.8201 7.77 96.0001 8.16 96.0001 8.63C96.0001 8.92 95.9301 9.17 95.7801 9.38C95.6301 9.6 95.4401 9.76 95.1901 9.87V9.9C95.4901 10 95.7301 10.17 95.9201 10.42C96.1101 10.67 96.2101 10.95 96.2101 11.28C96.2101 11.77 96.0301 12.18 95.6701 12.5C95.3101 12.82 94.8801 12.99 94.3901 12.99H92.0901V13ZM92.8601 9.57H94.2601C94.5501 9.57 94.7801 9.47 94.9601 9.28C95.1401 9.09 95.2201 8.88 95.2201 8.65C95.2201 8.42 95.1401 8.21 94.9601 8.02C94.7901 7.83 94.5701 7.73 94.2901 7.73H92.8601V9.57ZM92.8601 12.26H94.4101C94.7101 12.26 94.9501 12.16 95.1301 11.95C95.3101 11.74 95.4101 11.52 95.4101 11.27C95.4101 11.02 95.3201 10.8 95.1201 10.6C94.9301 10.4 94.6801 10.29 94.3701 10.29H92.8501V12.26H92.8601Z" fill="white" stroke="white" stroke-width="0.2" stroke-miterlimit="10"/>
<defs>
<linearGradient id="paint0_linear" x1="21.7997" y1="8.70943" x2="5.01728" y2="25.4918" gradientUnits="userSpaceOnUse">
<stop stop-color="#00A0FF"/>
<stop offset="0.00657445" stop-color="#00A1FF"/>
<stop offset="0.2601" stop-color="#00BEFF"/>
<stop offset="0.5122" stop-color="#00D2FF"/>
<stop offset="0.7604" stop-color="#00DFFF"/>
<stop offset="1" stop-color="#00E3FF"/>
</linearGradient>
<linearGradient id="paint1_linear" x1="33.8344" y1="20.0011" x2="9.63747" y2="20.0011" gradientUnits="userSpaceOnUse">
<stop stop-color="#FFE000"/>
<stop offset="0.4087" stop-color="#FFBD00"/>
<stop offset="0.7754" stop-color="#FFA500"/>
<stop offset="1" stop-color="#FF9C00"/>
</linearGradient>
<linearGradient id="paint2_linear" x1="24.8269" y1="22.2961" x2="2.06864" y2="45.0544" gradientUnits="userSpaceOnUse">
<stop stop-color="#FF3A44"/>
<stop offset="1" stop-color="#C31162"/>
</linearGradient>
<linearGradient id="paint3_linear" x1="7.29723" y1="0.176187" x2="17.4598" y2="10.3387" gradientUnits="userSpaceOnUse">
<stop stop-color="#32A071"/>
<stop offset="0.0685" stop-color="#2DA771"/>
<stop offset="0.4762" stop-color="#15CF74"/>
<stop offset="0.8009" stop-color="#06E775"/>
<stop offset="1" stop-color="#00F076"/>
</linearGradient>
</defs>
</svg>
