<svg width="717" height="232" viewBox="0 0 717 232" fill="none" xmlns="http://www.w3.org/2000/svg">
<g opacity="0.5">
<path d="M227.348 75.6909H195.73V201.539H227.348V75.6909Z" fill="#0E7892"/>
<path d="M222.183 66.667H200.895V119.558H222.183V66.667Z" fill="#0E7892"/>
<path d="M217.44 60.9458H205.63V90.279H217.44V60.9458Z" fill="#0E7892"/>
<path d="M215.561 76.0196H207.508V56.0232H210.412H213.292H215.561V76.0196Z" fill="#0E7892"/>
<path d="M211.006 67.3167H210.13V47.3203H210.451H210.756H211.006V67.3167Z" fill="#0E7892"/>
<path d="M212.94 60.398H212.063V40.4094H212.376H212.689H212.94V60.398Z" fill="#0E7892"/>
<path d="M228.186 75.3699H194.884V76.7082H228.186V75.3699Z" fill="#0E7892"/>
<path d="M222.95 66.0251H200.112V67.3165H222.95V66.0251Z" fill="#0E7892"/>
<path d="M217.933 60.3982H204.769V61.3843H217.933V60.3982Z" fill="#0E7892"/>
<path opacity="0.29" d="M203.838 68.8115H202.852V74.3526H203.838V68.8115Z" fill="#0E7892"/>
<path opacity="0.29" d="M206.577 68.8115H205.591V74.3526H206.577V68.8115Z" fill="#0E7892"/>
<path opacity="0.29" d="M209.308 68.8115H208.322V74.3526H209.308V68.8115Z" fill="#0E7892"/>
<path opacity="0.29" d="M212.047 68.8115H211.061V74.3526H212.047V68.8115Z" fill="#0E7892"/>
<path opacity="0.29" d="M214.787 68.8115H213.801V74.3526H214.787V68.8115Z" fill="#0E7892"/>
<path opacity="0.29" d="M217.526 68.8115H216.54V74.3526H217.526V68.8115Z" fill="#0E7892"/>
<path opacity="0.29" d="M220.265 68.8115H219.279V74.3526H220.265V68.8115Z" fill="#0E7892"/>
<path d="M200.895 80.7075H198.5V87.2817H200.895V80.7075Z" fill="#0E7892"/>
<path opacity="0.29" d="M205.63 80.7075H203.235V87.2817H205.63V80.7075Z" fill="#0E7892"/>
<path d="M210.365 80.7075H207.97V87.2817H210.365V80.7075Z" fill="#0E7892"/>
<path d="M215.1 80.7075H212.705V87.2817H215.1V80.7075Z" fill="#0E7892"/>
<path d="M219.835 80.7075H217.44V87.2817H219.835V80.7075Z" fill="#0E7892"/>
<path d="M224.57 80.7075H222.175V87.2817H224.57V80.7075Z" fill="#0E7892"/>
<path d="M200.895 90.96H198.5V97.5341H200.895V90.96Z" fill="#0E7892"/>
<path d="M205.63 90.96H203.235V97.5341H205.63V90.96Z" fill="#0E7892"/>
<path d="M210.365 90.96H207.97V97.5341H210.365V90.96Z" fill="#0E7892"/>
<path opacity="0.29" d="M215.1 90.96H212.705V97.5341H215.1V90.96Z" fill="#0E7892"/>
<path d="M219.835 90.96H217.44V97.5341H219.835V90.96Z" fill="#0E7892"/>
<path d="M224.57 90.96H222.175V97.5341H224.57V90.96Z" fill="#0E7892"/>
<path d="M200.895 101.205H198.5V107.779H200.895V101.205Z" fill="#0E7892"/>
<path d="M205.63 101.205H203.235V107.779H205.63V101.205Z" fill="#0E7892"/>
<path d="M210.365 101.205H207.97V107.779H210.365V101.205Z" fill="#0E7892"/>
<path d="M215.1 101.205H212.705V107.779H215.1V101.205Z" fill="#0E7892"/>
<path opacity="0.29" d="M219.835 101.205H217.44V107.779H219.835V101.205Z" fill="#0E7892"/>
<path opacity="0.29" d="M224.57 101.205H222.175V107.779H224.57V101.205Z" fill="#0E7892"/>
<path opacity="0.29" d="M200.895 111.449H198.5V118.024H200.895V111.449Z" fill="#0E7892"/>
<path d="M205.63 111.449H203.235V118.024H205.63V111.449Z" fill="#0E7892"/>
<path d="M210.365 111.449H207.97V118.024H210.365V111.449Z" fill="#0E7892"/>
<path d="M215.1 111.449H212.705V118.024H215.1V111.449Z" fill="#0E7892"/>
<path d="M219.835 111.449H217.44V118.024H219.835V111.449Z" fill="#0E7892"/>
<path d="M224.57 111.449H222.175V118.024H224.57V111.449Z" fill="#0E7892"/>
<path d="M200.895 121.702H198.5V128.277H200.895V121.702Z" fill="#0E7892"/>
<path opacity="0.29" d="M205.63 121.702H203.235V128.277H205.63V121.702Z" fill="#0E7892"/>
<path d="M210.365 121.702H207.97V128.277H210.365V121.702Z" fill="#0E7892"/>
<path opacity="0.29" d="M215.1 121.702H212.705V128.277H215.1V121.702Z" fill="#0E7892"/>
<path d="M219.835 121.702H217.44V128.277H219.835V121.702Z" fill="#0E7892"/>
<path d="M224.57 121.702H222.175V128.277H224.57V121.702Z" fill="#0E7892"/>
<path d="M200.895 131.947H198.5V138.521H200.895V131.947Z" fill="#0E7892"/>
<path d="M205.63 131.947H203.235V138.521H205.63V131.947Z" fill="#0E7892"/>
<path d="M210.365 131.947H207.97V138.521H210.365V131.947Z" fill="#0E7892"/>
<path d="M215.1 131.947H212.705V138.521H215.1V131.947Z" fill="#0E7892"/>
<path d="M219.835 131.947H217.44V138.521H219.835V131.947Z" fill="#0E7892"/>
<path opacity="0.29" d="M224.57 131.947H222.175V138.521H224.57V131.947Z" fill="#0E7892"/>
<path d="M200.895 142.199H198.5V148.774H200.895V142.199Z" fill="#0E7892"/>
<path opacity="0.29" d="M205.63 142.199H203.235V148.774H205.63V142.199Z" fill="#0E7892"/>
<path opacity="0.29" d="M210.365 142.199H207.97V148.774H210.365V142.199Z" fill="#0E7892"/>
<path d="M215.1 142.199H212.705V148.774H215.1V142.199Z" fill="#0E7892"/>
<path d="M219.835 142.199H217.44V148.774H219.835V142.199Z" fill="#0E7892"/>
<path d="M224.57 142.199H222.175V148.774H224.57V142.199Z" fill="#0E7892"/>
<path d="M200.895 152.444H198.5V159.018H200.895V152.444Z" fill="#0E7892"/>
<path d="M205.63 152.444H203.235V159.018H205.63V152.444Z" fill="#0E7892"/>
<path d="M210.365 152.444H207.97V159.018H210.365V152.444Z" fill="#0E7892"/>
<path d="M215.1 152.444H212.705V159.018H215.1V152.444Z" fill="#0E7892"/>
<path opacity="0.29" d="M219.835 152.444H217.44V159.018H219.835V152.444Z" fill="#0E7892"/>
<path d="M224.57 152.444H222.175V159.018H224.57V152.444Z" fill="#0E7892"/>
<path d="M200.895 162.697H198.5V169.271H200.895V162.697Z" fill="#0E7892"/>
<path opacity="0.29" d="M205.63 162.697H203.235V169.271H205.63V162.697Z" fill="#0E7892"/>
<path d="M210.365 162.697H207.97V169.271H210.365V162.697Z" fill="#0E7892"/>
<path d="M215.1 162.697H212.705V169.271H215.1V162.697Z" fill="#0E7892"/>
<path d="M219.835 162.697H217.44V169.271H219.835V162.697Z" fill="#0E7892"/>
<path d="M224.57 162.697H222.175V169.271H224.57V162.697Z" fill="#0E7892"/>
<path d="M200.895 172.941H198.5V179.516H200.895V172.941Z" fill="#0E7892"/>
<path d="M205.63 172.941H203.235V179.516H205.63V172.941Z" fill="#0E7892"/>
<path d="M210.365 172.941H207.97V179.516H210.365V172.941Z" fill="#0E7892"/>
<path opacity="0.29" d="M215.1 172.941H212.705V179.516H215.1V172.941Z" fill="#0E7892"/>
<path d="M219.835 172.941H217.44V179.516H219.835V172.941Z" fill="#0E7892"/>
<path opacity="0.29" d="M224.57 172.941H222.175V179.516H224.57V172.941Z" fill="#0E7892"/>
<path opacity="0.29" d="M200.895 183.194H198.5V189.768H200.895V183.194Z" fill="#0E7892"/>
<path d="M205.63 183.194H203.235V189.768H205.63V183.194Z" fill="#0E7892"/>
<path opacity="0.29" d="M210.365 183.194H207.97V189.768H210.365V183.194Z" fill="#0E7892"/>
<path d="M215.1 183.194H212.705V189.768H215.1V183.194Z" fill="#0E7892"/>
<path d="M219.835 183.194H217.44V189.768H219.835V183.194Z" fill="#0E7892"/>
<path d="M224.57 183.194H222.175V189.768H224.57V183.194Z" fill="#0E7892"/>
<path d="M154.727 80.4805H103.903V186.496H154.727V80.4805Z" fill="#0E7892"/>
<path d="M156.167 78.6567H102.455V81.6542H156.167V78.6567Z" fill="#0E7892"/>
<path d="M153.021 74.8218H105.609V89.0658H153.021V74.8218Z" fill="#0E7892"/>
<path d="M128.016 68.9915H109.24V84.5503H128.016V68.9915Z" fill="#0E7892"/>
<path d="M120.103 73.3741H109.24V65.1877H117.028L120.103 73.3741Z" fill="#0E7892"/>
<path d="M114.672 58.3865H113.616V76.6376H114.672V58.3865Z" fill="#0E7892"/>
<path d="M115.087 57.4397C115.087 57.964 114.664 58.3867 114.14 58.3867C113.615 58.3867 113.193 57.964 113.193 57.4397C113.193 56.9153 113.615 56.4927 114.14 56.4927C114.664 56.4927 115.087 56.9153 115.087 57.4397Z" fill="#0E7892"/>
<path d="M575.622 194.566H519.984L513.042 38.6877L575.622 51.6795V194.566Z" fill="#0E7892"/>
<path d="M332.887 105.549V53.4328H324.16V39.4784H321.045V19.0046H303.867V3.95447H302.34V19.0046H298.975V0.166504H297.449V19.0046H286.594V53.4328H280.982V105.549H276.177V200.467H336.268V105.549H332.887Z" fill="#0E7892"/>
<path d="M697.611 192.633H32.8627V208.442H697.611V192.633Z" fill="#0E7892"/>
<path d="M424.158 204.568H394.723L406.189 145.627H424.158V204.568Z" fill="#0D7892"/>
<path d="M706.972 206.869H9.01587V231.796H706.972V206.869Z" fill="#0D7892"/>
<path d="M400.037 95.4918V69.3752H390.583V59.4279H385.527V51.0771H383.751V36.7549H383.297V51.0771H381.52V59.4279H376.464V69.3752H367.08V95.4918H365.132V142.92H350.59V196.976H365.132H379.673H401.916V95.4918H400.037Z" fill="#0D7892"/>
<path d="M454.352 125.498H408.607V126.328H410.673V203.684H452.286V126.328H454.352V125.498Z" fill="#0D7892"/>
<path d="M245.748 144.767H205.184V209.209H245.748V144.767Z" fill="#0D7892"/>
<path d="M199.071 177.786H129.315V209.209H199.071V177.786Z" fill="#0D7892"/>
<path d="M182.018 107.576H166.701V184.744H182.018V107.576Z" fill="#0D7892"/>
<path d="M170.881 86.9924H170.083V128.957H170.881V86.9924Z" fill="#0D7892"/>
<path d="M173.471 90.1697H172.673V132.135H173.471V90.1697Z" fill="#0D7892"/>
<path d="M177.244 102.802H167.883V113.14H177.244V102.802Z" fill="#0D7892"/>
<path d="M222.989 156.302H196.34V209.209H222.989V156.302Z" fill="#0D7892"/>
<path d="M302.341 100.321H252.315V209.209H302.341V100.321Z" fill="#0D7892"/>
<path d="M297.425 96.5718H257.229V114.705H297.425V96.5718Z" fill="#0D7892"/>
<path d="M306.222 102.598H248.44V103.874H306.222V102.598Z" fill="#0D7892"/>
<path d="M266.825 154.213H243.252V209.201H266.825V154.213Z" fill="#0D7892"/>
<path d="M101.469 152.124H74.4208V209.201H101.469V152.124Z" fill="#0D7892"/>
<path d="M137.071 136.611H83.1706V209.201H137.071V136.611Z" fill="#0D7892"/>
<path d="M138.456 133.825H80.0245V136.611H138.456V133.825Z" fill="#0D7892"/>
<path d="M109.24 126.273H85.5578V140.994H109.24V126.273Z" fill="#0D7892"/>
<path d="M120.957 126.273H116.981V135.226H120.957V126.273Z" fill="#0D7892"/>
<path d="M129.315 126.273H124.94V135.226H129.315V126.273Z" fill="#0D7892"/>
<path d="M87.9451 187.131H59.6997V209.209H87.9451V187.131Z" fill="#0D7892"/>
<path d="M62.4075 177.786H49.0322V209.209H62.4075V177.786Z" fill="#0D7892"/>
<path d="M55.7157 198.166H32.8627V209.201H55.7157V198.166Z" fill="#0D7892"/>
<path d="M579.058 184.744H297.426V209.209H579.058V184.744Z" fill="#0D7892"/>
<path d="M556.573 117.03C554.796 117.03 553.348 118.392 553.2 120.129L549.24 120.004C549.247 119.613 549.255 119.229 549.255 118.838C549.255 113.908 548.402 109.102 546.774 104.602L550.085 103.381C550.601 104.578 551.799 105.424 553.192 105.424C555.062 105.424 556.573 103.905 556.573 102.043C556.573 100.172 555.055 98.6617 553.192 98.6617C551.321 98.6617 549.811 100.18 549.811 102.043C549.811 102.387 549.866 102.724 549.96 103.037L546.649 104.258C544.763 99.1939 541.883 94.5216 538.118 90.4753L540.709 88.0492C541.319 88.6283 542.141 88.9883 543.049 88.9883C544.919 88.9883 546.43 87.47 546.43 85.6073C546.43 83.7368 544.912 82.2263 543.049 82.2263C541.178 82.2263 539.668 83.7447 539.668 85.6073C539.668 86.4369 539.965 87.1961 540.458 87.7831L537.868 90.2093C537.602 89.9275 537.328 89.6458 537.054 89.3718C533.133 85.4508 528.562 82.4064 523.593 80.3324L525.017 76.8653C525.338 76.967 525.682 77.0218 526.042 77.0218C527.913 77.0218 529.423 75.5035 529.423 73.6408C529.423 71.7703 527.905 70.2598 526.042 70.2598C524.18 70.2598 522.661 71.7781 522.661 73.6408C522.661 75.0183 523.483 76.2079 524.673 76.7322L523.248 80.1915C518.795 78.3914 514.029 77.3583 509.114 77.1862L509.27 72.4434C509.309 72.4434 509.341 72.4434 509.38 72.4434C511.25 72.4434 512.761 70.9251 512.761 69.0624C512.761 67.1997 511.242 65.6814 509.38 65.6814C507.517 65.6814 505.999 67.1997 505.999 69.0624C505.999 70.7685 507.259 72.1773 508.902 72.4121L508.746 77.1783C508.355 77.1705 507.971 77.1627 507.58 77.1627C502.845 77.1627 498.235 77.9453 493.891 79.4558L492.53 75.5818C493.758 75.073 494.627 73.8678 494.627 72.4512C494.627 70.5807 493.109 69.0702 491.246 69.0702C489.383 69.0702 487.865 70.5885 487.865 72.4512C487.865 74.3217 489.383 75.8322 491.246 75.8322C491.567 75.8322 491.88 75.7852 492.177 75.6992L493.539 79.5732C488.272 81.4515 483.404 84.4021 479.209 88.2996L476.736 85.6621C477.292 85.0595 477.628 84.2534 477.628 83.3768C477.628 81.5063 476.11 79.9958 474.247 79.9958C472.385 79.9958 470.866 81.5141 470.866 83.3768C470.866 85.2473 472.385 86.7578 474.247 86.7578C475.1 86.7578 475.875 86.4448 476.47 85.9204L478.935 88.5579C478.654 88.824 478.372 89.0979 478.098 89.3718C474.607 92.8624 471.813 96.8617 469.786 101.205L466.64 99.7574C466.757 99.4209 466.82 99.0531 466.82 98.6774C466.82 96.8069 465.302 95.2964 463.439 95.2964C461.576 95.2964 460.058 96.8147 460.058 98.6774C460.058 100.54 461.576 102.058 463.439 102.058C464.801 102.058 465.967 101.26 466.507 100.102L469.63 101.542C467.384 106.449 466.116 111.787 465.92 117.32L461.889 117.187C461.842 115.363 460.348 113.9 458.508 113.9C456.638 113.9 455.127 115.418 455.127 117.281C455.127 119.151 456.646 120.662 458.508 120.662C460.285 120.662 461.733 119.3 461.882 117.562L465.912 117.695C465.904 118.087 465.896 118.47 465.896 118.862C465.896 123.792 466.75 128.598 468.377 133.098L465.067 134.319C464.55 133.121 463.353 132.276 461.96 132.276C460.089 132.276 458.579 133.794 458.579 135.657C458.579 137.52 460.097 139.038 461.96 139.038C463.823 139.038 465.341 137.52 465.341 135.657C465.341 135.313 465.286 134.976 465.192 134.663L468.503 133.442C470.389 138.506 473.269 143.178 477.033 147.224L474.443 149.651C473.832 149.071 473.011 148.711 472.103 148.711C470.232 148.711 468.722 150.23 468.722 152.092C468.722 153.963 470.24 155.473 472.103 155.473C473.973 155.473 475.484 153.955 475.484 152.092C475.484 151.263 475.186 150.504 474.693 149.917L477.284 147.49C477.55 147.772 477.824 148.054 478.098 148.328C480.743 150.973 483.678 153.212 486.832 155.027L466.429 192.641H462.766V193.713H460.974V195.85H554.217V193.713H552.425V192.641H548.762L528.359 155.027C531.075 153.462 533.634 151.576 535.982 149.4L539.292 152.93C538.58 153.548 538.134 154.464 538.134 155.481C538.134 157.352 539.652 158.862 541.515 158.862C543.378 158.862 544.896 157.344 544.896 155.481C544.896 153.611 543.378 152.1 541.515 152.1C540.795 152.1 540.137 152.327 539.59 152.703L536.256 149.15C536.537 148.884 536.819 148.61 537.093 148.336C540.584 144.845 543.378 140.846 545.405 136.502L549.091 138.201C549.02 138.467 548.989 138.741 548.989 139.03C548.989 140.901 550.507 142.411 552.37 142.411C554.233 142.411 555.751 140.893 555.751 139.03C555.751 137.16 554.233 135.649 552.37 135.649C550.922 135.649 549.686 136.565 549.2 137.841L545.561 136.158C547.807 131.251 549.075 125.913 549.271 120.38L553.239 120.505C553.286 122.329 554.781 123.8 556.62 123.8C558.49 123.8 560.001 122.282 560.001 120.419C559.954 118.541 558.443 117.03 556.573 117.03ZM548.128 118.83C548.128 119.206 548.12 119.582 548.113 119.957L536.436 119.574C536.443 119.323 536.443 119.073 536.443 118.822C536.443 115.379 535.841 112.076 534.729 109.016L545.71 104.97C547.299 109.36 548.128 114.033 548.128 118.83ZM535.872 119.566L509.826 118.721C509.818 118.549 509.787 118.384 509.748 118.228L534.205 109.22C535.293 112.225 535.888 115.457 535.888 118.83C535.88 119.073 535.872 119.323 535.872 119.566ZM479.233 118.102L505.279 118.948C505.287 119.12 505.318 119.284 505.357 119.441L480.9 128.449C479.812 125.444 479.217 122.211 479.217 118.838C479.225 118.588 479.225 118.345 479.233 118.102ZM509.333 117.422L528.335 99.6087C530.801 102.27 532.757 105.408 534.064 108.867L509.607 117.868C509.536 117.711 509.442 117.555 509.333 117.422ZM509.075 117.14C508.926 117.007 508.762 116.889 508.582 116.803L518.482 92.698C522.129 94.232 525.393 96.5017 528.077 99.3348L509.075 117.14ZM508.237 116.662C508.104 116.615 507.955 116.592 507.815 116.568L508.66 90.5223C512.002 90.6553 515.187 91.3597 518.138 92.5493L508.237 116.662ZM507.439 116.561C507.282 116.568 507.126 116.592 506.977 116.631L498.313 92.0563C501.209 91.0545 504.316 90.5067 507.556 90.5067C507.799 90.5067 508.042 90.5067 508.292 90.5145L507.439 116.561ZM506.617 116.756C506.445 116.835 506.281 116.936 506.132 117.046L488.319 98.0434C491.082 95.492 494.345 93.4807 497.945 92.1737L506.617 116.756ZM505.866 117.304C505.756 117.429 505.654 117.562 505.576 117.711L481.917 106.793C483.428 103.592 485.517 100.712 488.061 98.3017L505.866 117.304ZM505.412 118.048C505.349 118.212 505.31 118.384 505.287 118.564L479.24 117.719C479.389 113.954 480.266 110.378 481.745 107.122L505.412 118.048ZM505.49 119.793C505.553 119.926 505.623 120.051 505.709 120.161L505.553 120.443L486.762 138.052C484.296 135.391 482.332 132.253 481.033 128.793L505.49 119.793ZM504.981 121.499L493.187 143.241C490.91 141.895 488.836 140.235 487.02 138.334L504.981 121.499ZM506.265 120.709C506.343 120.763 506.429 120.81 506.515 120.857L496.615 144.963C495.66 144.563 494.737 144.109 493.837 143.609L506.265 120.709ZM506.86 120.998C506.993 121.045 507.141 121.069 507.282 121.092L506.437 147.138C503.095 147.013 499.91 146.301 496.959 145.111L506.86 120.998ZM507.548 147.162C507.306 147.162 507.063 147.162 506.813 147.154L507.658 121.108C507.815 121.1 507.971 121.076 508.12 121.037L516.784 145.612C513.896 146.614 510.781 147.162 507.548 147.162ZM508.48 120.904C508.605 120.849 508.722 120.779 508.832 120.709L521.26 143.616C519.945 144.344 518.568 144.97 517.144 145.487L508.48 120.904ZM510.569 122.329L526.77 139.617C525.291 140.987 523.663 142.2 521.91 143.233L510.569 122.329ZM509.865 121.022L509.395 120.161C509.442 120.09 509.489 120.02 509.529 119.949L533.188 130.867C531.677 134.068 529.588 136.948 527.044 139.359L509.865 121.022ZM509.685 119.613C509.748 119.449 509.787 119.276 509.81 119.096L535.856 119.942C535.708 123.706 534.831 127.283 533.352 130.539L509.685 119.613ZM496.404 145.487L491.958 156.311C490.604 155.747 489.282 155.106 487.99 154.393L493.571 144.102C494.486 144.618 495.425 145.08 496.404 145.487ZM496.748 145.628C499.753 146.849 503.017 147.569 506.421 147.702L506.038 159.379C501.256 159.207 496.623 158.205 492.295 156.452L496.748 145.628ZM506.797 147.717C507.048 147.725 507.298 147.725 507.548 147.725C510.851 147.725 514.021 147.17 516.971 146.144L520.861 157.18C516.635 158.643 512.15 159.402 507.541 159.402C507.165 159.402 506.789 159.394 506.414 159.387L506.797 147.717ZM517.331 146.019C518.787 145.495 520.196 144.853 521.534 144.109L527.114 154.401C525.22 155.442 523.256 156.334 521.221 157.054L517.331 146.019ZM545.585 104.625L534.604 108.672C533.274 105.142 531.27 101.941 528.758 99.2252L537.297 91.2267C540.951 95.1633 543.745 99.7105 545.585 104.625ZM536.24 90.1388C536.506 90.4049 536.772 90.6788 537.03 90.9528L528.492 98.9513C525.753 96.0634 522.419 93.7468 518.693 92.1815L523.139 81.3576C527.983 83.3612 532.428 86.3274 536.24 90.1388ZM522.794 81.2089L518.349 92.0328C515.344 90.8119 512.08 90.0919 508.675 89.9588L509.051 78.2819C513.833 78.454 518.474 79.4558 522.794 81.2089ZM507.548 78.2584C507.924 78.2584 508.3 78.2662 508.675 78.274L508.3 89.951C508.049 89.9432 507.799 89.9432 507.548 89.9432C504.246 89.9432 501.076 90.4988 498.118 91.5241L494.228 80.4889C498.462 79.0175 502.947 78.2584 507.548 78.2584ZM493.876 80.6063L497.765 91.6415C494.087 92.972 490.753 95.0225 487.936 97.6286L479.937 89.0901C484.022 85.3021 488.757 82.4377 493.876 80.6063ZM478.857 90.1388C479.123 89.8727 479.397 89.6066 479.671 89.3483L487.669 97.8869C485.079 100.344 482.942 103.287 481.401 106.551L470.772 101.644C472.745 97.4252 475.468 93.5355 478.857 90.1388ZM470.616 101.988L481.244 106.895C479.734 110.213 478.834 113.868 478.685 117.703L467.008 117.32C467.196 111.951 468.432 106.762 470.616 101.988ZM466.977 118.83C466.977 118.455 466.984 118.079 466.992 117.703L478.669 118.079C478.661 118.329 478.661 118.58 478.661 118.83C478.661 122.274 479.264 125.577 480.375 128.637L469.395 132.683C467.806 128.3 466.977 123.628 466.977 118.83ZM469.52 133.035L480.501 128.989C481.831 132.519 483.835 135.72 486.347 138.435L477.808 146.434C474.153 142.497 471.351 137.95 469.52 133.035ZM478.857 147.522C478.591 147.256 478.325 146.982 478.067 146.708L486.605 138.709C488.46 140.658 490.581 142.356 492.913 143.726L487.325 154.018C484.273 152.265 481.424 150.089 478.857 147.522ZM547.862 192.633H467.243L487.45 155.387C488.773 156.115 490.135 156.773 491.528 157.352L490.103 160.819C489.783 160.717 489.438 160.662 489.078 160.662C487.208 160.662 485.697 162.181 485.697 164.043C485.697 165.914 487.216 167.424 489.078 167.424C490.949 167.424 492.459 165.906 492.459 164.043C492.459 162.666 491.637 161.476 490.448 160.952L491.872 157.493C496.325 159.293 501.092 160.326 506.007 160.498L505.889 164.043C504.058 164.082 502.587 165.585 502.587 167.424C502.587 169.295 504.105 170.805 505.968 170.805C507.83 170.805 509.349 169.287 509.349 167.424C509.349 165.655 507.995 164.208 506.265 164.051L506.382 160.498C506.774 160.506 507.157 160.514 507.548 160.514C512.283 160.514 516.893 159.731 521.237 158.22L522.45 161.672C521.299 162.212 520.501 163.378 520.501 164.74C520.501 166.61 522.019 168.121 523.882 168.121C525.753 168.121 527.263 166.602 527.263 164.74C527.263 162.877 525.745 161.359 523.882 161.359C523.499 161.359 523.139 161.421 522.794 161.539L521.581 158.103C523.671 157.36 525.69 156.444 527.639 155.372L547.862 192.633ZM527.772 154.025L522.184 143.734C523.976 142.677 525.643 141.433 527.161 140.032L535.16 148.571C532.882 150.684 530.401 152.507 527.772 154.025ZM536.24 147.522C535.974 147.788 535.7 148.054 535.426 148.312L527.427 139.774C530.018 137.316 532.155 134.373 533.696 131.11L544.325 136.017C542.352 140.235 539.637 144.125 536.24 147.522ZM544.489 135.673L533.861 130.766C535.371 127.447 536.271 123.792 536.42 119.957L548.097 120.341C547.901 125.71 546.665 130.899 544.489 135.673Z" fill="#0D7892"/>
<path d="M608.234 145.487H564.743V209.209H608.234V145.487Z" fill="#0D7892"/>
<path d="M645.355 170.257H601.864V208.841H645.355V170.257Z" fill="#0D7892"/>
<path d="M457.608 164.591H433.213V196.976H457.608V164.591Z" fill="#0D7892"/>
<path d="M617.243 84.8872H586.485V209.209H617.243V84.8872Z" fill="#0D7892"/>
<path d="M667.895 209.209H627.323V136.612H658.081L667.895 209.209Z" fill="#0D7892"/>
<path d="M685.661 192.633H650.129V209.201H685.661V192.633Z" fill="#0D7892"/>
<path d="M610.355 58.9114H609.291V92.6978H610.355V58.9114Z" fill="#0D7892"/>
<path d="M613.932 66.1667H612.868V99.9532H613.932V66.1667Z" fill="#0D7892"/>
<path d="M607.107 70.8311H606.043V104.618H607.107V70.8311Z" fill="#0D7892"/>
<path d="M643.43 130.75H628.912V142.184H643.43V130.75Z" fill="#0D7892"/>
<path d="M641.841 126.672H630.508V133.097H641.841V126.672Z" fill="#0D7892"/>
<path d="M651.984 134.099H649.198V138.717H651.984V134.099Z" fill="#0D7892"/>
<path d="M656.946 129.881H652.97V138.709H656.946V129.881Z" fill="#0D7892"/>
<path d="M469.966 112.929H433.088V231.796H469.966V112.929Z" fill="#01628C"/>
<path d="M472.721 113.633H430.333V114.839H472.721V113.633Z" fill="#01628C"/>
<path d="M471.57 130.335H431.476V131.532H471.57V130.335Z" fill="#01628C"/>
<path d="M471.57 146.504H431.476V147.702H471.57V146.504Z" fill="#01628C"/>
<path d="M471.57 162.674H431.476V163.871H471.57V162.674Z" fill="#01628C"/>
<path d="M471.57 178.843H431.476V180.04H471.57V178.843Z" fill="#01628C"/>
<path d="M471.57 195.012H431.476V196.209H471.57V195.012Z" fill="#01628C"/>
<path d="M471.57 211.182H431.476V212.379H471.57V211.182Z" fill="#01628C"/>
<path d="M474.122 110.354H428.932V113.641H474.122V110.354Z" fill="#01628C"/>
<path opacity="0.29" d="M440.241 118.744H436.406V128.237H440.241V118.744Z" fill="#01628C"/>
<path d="M448.811 118.744H444.976V128.237H448.811V118.744Z" fill="#01628C"/>
<path d="M457.381 118.744H453.546V128.237H457.381V118.744Z" fill="#01628C"/>
<path d="M465.951 118.744H462.116V128.237H465.951V118.744Z" fill="#01628C"/>
<path d="M440.241 134.272H436.406V143.765H440.241V134.272Z" fill="#01628C"/>
<path opacity="0.29" d="M448.811 134.272H444.976V143.765H448.811V134.272Z" fill="#01628C"/>
<path d="M457.381 134.272H453.546V143.765H457.381V134.272Z" fill="#01628C"/>
<path d="M465.951 134.272H462.116V143.765H465.951V134.272Z" fill="#01628C"/>
<path d="M440.241 150.441H436.406V159.934H440.241V150.441Z" fill="#01628C"/>
<path d="M448.811 150.441H444.976V159.934H448.811V150.441Z" fill="#01628C"/>
<path d="M457.381 150.441H453.546V159.934H457.381V150.441Z" fill="#01628C"/>
<path opacity="0.29" d="M465.951 150.441H462.116V159.934H465.951V150.441Z" fill="#01628C"/>
<path d="M440.241 166.61H436.406V176.104H440.241V166.61Z" fill="#01628C"/>
<path opacity="0.29" d="M448.811 166.61H444.976V176.104H448.811V166.61Z" fill="#01628C"/>
<path opacity="0.29" d="M457.381 166.61H453.546V176.104H457.381V166.61Z" fill="#01628C"/>
<path d="M465.951 166.61H462.116V176.104H465.951V166.61Z" fill="#01628C"/>
<path opacity="0.29" d="M440.241 182.78H436.406V192.273H440.241V182.78Z" fill="#01628C"/>
<path d="M448.811 182.78H444.976V192.273H448.811V182.78Z" fill="#01628C"/>
<path d="M457.381 182.78H453.546V192.273H457.381V182.78Z" fill="#01628C"/>
<path d="M465.951 182.78H462.116V192.273H465.951V182.78Z" fill="#01628C"/>
<path d="M440.241 198.949H436.406V208.442H440.241V198.949Z" fill="#01628C"/>
<path d="M448.811 198.949H444.976V208.442H448.811V198.949Z" fill="#01628C"/>
<path opacity="0.29" d="M457.381 198.949H453.546V208.442H457.381V198.949Z" fill="#01628C"/>
<path d="M465.951 198.949H462.116V208.442H465.951V198.949Z" fill="#01628C"/>
<path d="M440.241 215.118H436.406V224.611H440.241V215.118Z" fill="#01628C"/>
<path opacity="0.29" d="M448.811 215.118H444.976V224.611H448.811V215.118Z" fill="#01628C"/>
<path d="M457.381 215.118H453.546V224.611H457.381V215.118Z" fill="#01628C"/>
<path opacity="0.29" d="M465.951 215.118H462.116V224.611H465.951V215.118Z" fill="#01628C"/>
<path d="M447.958 105.823H435.412V111.998H447.958V105.823Z" fill="#01628C"/>
<path d="M448.811 105.643H434.567V106.699H448.811V105.643Z" fill="#01628C"/>
<path d="M380.236 231.796H331.11V118.854L380.236 106.841V231.796Z" fill="#01628C"/>
<path d="M333.262 116.874H328.95V231.804H333.262V116.874Z" fill="#01628C"/>
<path d="M345.542 113.634H341.229V231.796H345.542V113.634Z" fill="#01628C"/>
<path d="M357.822 110.269H353.509V231.796H357.822V110.269Z" fill="#01628C"/>
<path d="M370.109 107.529H365.797V231.796H370.109V107.529Z" fill="#01628C"/>
<path d="M382.389 104.61H378.076V231.796H382.389V104.61Z" fill="#01628C"/>
<path opacity="0.29" d="M340.11 126.516H334.382V135.242H340.11V126.516Z" fill="#01628C"/>
<path opacity="0.29" d="M352.398 126.516H346.669V135.242H352.398V126.516Z" fill="#01628C"/>
<path d="M364.677 126.516H358.949V135.242H364.677V126.516Z" fill="#01628C"/>
<path opacity="0.29" d="M376.957 126.516H371.228V135.242H376.957V126.516Z" fill="#01628C"/>
<path d="M340.11 141.715H334.382V150.441H340.11V141.715Z" fill="#01628C"/>
<path d="M352.398 141.715H346.669V150.441H352.398V141.715Z" fill="#01628C"/>
<path opacity="0.29" d="M364.677 141.715H358.949V150.441H364.677V141.715Z" fill="#01628C"/>
<path opacity="0.29" d="M376.957 141.715H371.228V150.441H376.957V141.715Z" fill="#01628C"/>
<path opacity="0.29" d="M340.11 156.914H334.382V165.64H340.11V156.914Z" fill="#01628C"/>
<path opacity="0.29" d="M352.398 156.914H346.669V165.64H352.398V156.914Z" fill="#01628C"/>
<path opacity="0.29" d="M364.677 156.914H358.949V165.64H364.677V156.914Z" fill="#01628C"/>
<path d="M376.957 156.914H371.228V165.64H376.957V156.914Z" fill="#01628C"/>
<path opacity="0.29" d="M340.11 172.104H334.382V180.831H340.11V172.104Z" fill="#01628C"/>
<path d="M352.398 172.104H346.669V180.831H352.398V172.104Z" fill="#01628C"/>
<path opacity="0.29" d="M364.677 172.104H358.949V180.831H364.677V172.104Z" fill="#01628C"/>
<path opacity="0.29" d="M376.957 172.104H371.228V180.831H376.957V172.104Z" fill="#01628C"/>
<path opacity="0.29" d="M340.11 187.303H334.382V196.03H340.11V187.303Z" fill="#01628C"/>
<path opacity="0.29" d="M352.398 187.303H346.669V196.03H352.398V187.303Z" fill="#01628C"/>
<path d="M364.677 187.303H358.949V196.03H364.677V187.303Z" fill="#01628C"/>
<path opacity="0.29" d="M376.957 187.303H371.228V196.03H376.957V187.303Z" fill="#01628C"/>
<path d="M340.11 202.502H334.382V211.229H340.11V202.502Z" fill="#01628C"/>
<path d="M352.398 202.502H346.669V211.229H352.398V202.502Z" fill="#01628C"/>
<path opacity="0.29" d="M364.677 202.502H358.949V211.229H364.677V202.502Z" fill="#01628C"/>
<path opacity="0.29" d="M376.957 202.502H371.228V211.229H376.957V202.502Z" fill="#01628C"/>
<path opacity="0.29" d="M340.11 217.701H334.382V226.427H340.11V217.701Z" fill="#01628C"/>
<path d="M352.398 217.701H346.669V226.427H352.398V217.701Z" fill="#01628C"/>
<path opacity="0.29" d="M364.677 217.701H358.949V226.427H364.677V217.701Z" fill="#01628C"/>
<path d="M376.957 217.701H371.228V226.427H376.957V217.701Z" fill="#01628C"/>
<path d="M190.979 124.269V125.443H189.805V128.785H210.365V231.796H176.633V134.154V128.785V125.443H175.412V124.269H190.979Z" fill="#01628C"/>
<path d="M277.335 171.063H248.44V231.804H277.335V171.063Z" fill="#01628C"/>
<path d="M146.001 157.14H122.514V231.804H146.001V157.14Z" fill="#01628C"/>
<path d="M166.936 172.691H141.344V231.796H166.936V172.691Z" fill="#01628C"/>
<path d="M141.351 154.143H130.966V163.08H141.351V154.143Z" fill="#01628C"/>
<path d="M170.388 171.72H143.105V173.904H170.388V171.72Z" fill="#01628C"/>
<path d="M192.881 198.041H164.19V231.796H192.881V198.041Z" fill="#01628C"/>
<path d="M94.7929 170.586H71.4546V231.796H94.7929V170.586Z" fill="#01628C"/>
<path d="M81.9031 201.093H51.2002V231.796H81.9031V201.093Z" fill="#01628C"/>
<path d="M36.596 196.069H17.3901V231.796H36.596V196.069Z" fill="#01628C"/>
<path d="M78.2557 220.604H32.8627V231.796H78.2557V220.604Z" fill="#01628C"/>
<path d="M23.2678 216.988H0V231.796H23.2678V216.988Z" fill="#01628C"/>
<path d="M130.959 209.209H94.7931V231.796H130.959V209.209Z" fill="#01628C"/>
<path d="M257.237 222.068H200.895V231.796H257.237V222.068Z" fill="#01628C"/>
<path d="M357.125 222.068H300.783V231.796H357.125V222.068Z" fill="#01628C"/>
<path d="M255.038 193.494H233.625L224.57 226.928H255.038V193.494Z" fill="#01628C"/>
<path d="M265.533 144.845H264.938V181.934H265.533V144.845Z" fill="#01628C"/>
<path d="M268.719 157.398H267.921V179.289H268.719V157.398Z" fill="#01628C"/>
<path d="M274.486 161.272H263.655V172.104H274.486V161.272Z" fill="#01628C"/>
<path d="M276.169 160.435H261.824V161.406H276.169V160.435Z" fill="#01628C"/>
<path d="M307.083 200.467H272.076V231.796H307.083V200.467Z" fill="#01628C"/>
<path d="M322.885 165.984H300.392V226.427H322.885V165.984Z" fill="#01628C"/>
<path d="M424.158 177.348H388.227V231.796H424.158V177.348Z" fill="#01628C"/>
<path d="M417.928 211.737H376.957V231.804H417.928V211.737Z" fill="#01628C"/>
<path d="M448.811 224.619H422.17V231.804H448.811V224.619Z" fill="#01628C"/>
<path d="M506.515 211.737H463.204V231.804H506.515V211.737Z" fill="#01628C"/>
<path d="M480.451 231.794H534.352V159.204H480.451V231.794Z" fill="#01628C"/>
<path d="M479.065 159.202H537.497V156.416H479.065V159.202Z" fill="#01628C"/>
<path d="M508.285 163.581H531.967V148.859H508.285V163.581Z" fill="#01628C"/>
<path d="M496.569 157.813H500.544V148.859H496.569V157.813Z" fill="#01628C"/>
<path d="M488.211 157.813H492.586V148.859H488.211V157.813Z" fill="#01628C"/>
<path d="M571.412 231.795H614.074V125.779H571.412V231.795Z" fill="#01628C"/>
<path d="M570.191 126.949H615.279V123.952H570.191V126.949Z" fill="#01628C"/>
<path d="M572.836 134.36H612.633V120.116H572.836V134.36Z" fill="#01628C"/>
<path d="M593.826 129.853H609.588V114.294H593.826V129.853Z" fill="#01628C"/>
<path d="M600.47 118.673H609.588V110.487H603.045L600.47 118.673Z" fill="#01628C"/>
<path d="M605.027 121.932H605.911V103.681H605.027V121.932Z" fill="#01628C"/>
<path d="M604.681 102.739C604.681 103.263 605.033 103.686 605.472 103.686C605.91 103.686 606.262 103.263 606.262 102.739C606.262 102.215 605.91 101.792 605.472 101.792C605.033 101.792 604.681 102.215 604.681 102.739Z" fill="#01628C"/>
<path d="M627.323 188.031H608.227V231.796H627.323V188.031Z" fill="#01628C"/>
<path d="M575.614 166.688H553.841V231.796H575.614V166.688Z" fill="#01628C"/>
<path d="M564.743 231.796H534.072V196.977L559.953 208.442L564.743 231.796Z" fill="#01628C"/>
<path d="M667.895 212.887H621.054V231.796H667.895V212.887Z" fill="#01628C"/>
<path d="M677.803 156.303H650.591V231.796H677.803V156.303Z" fill="#01628C"/>
<path d="M716.52 217.701H671.44V231.796H716.52V217.701Z" fill="#01628C"/>
<path d="M679.047 154.917H649.198V157.391H679.047V154.917Z" fill="#01628C"/>
<path d="M674.156 144.266H673.561V159.48H674.156V144.266Z" fill="#01628C"/>
<path d="M670.18 146.191H669.585V158.392H670.18V146.191Z" fill="#01628C"/>
<path d="M687.876 184.744H675.745V219.329H693.049L687.876 184.744Z" fill="#01628C"/>
</g>
</svg>
