<svg width="197" height="86" viewBox="0 0 197 86" fill="none" xmlns="http://www.w3.org/2000/svg">
<path d="M193.331 44.8378C191.817 44.6608 178.778 44.0234 163.233 43.2975C163.295 42.1468 163.304 41.2881 163.304 41.2881C163.352 40.737 163.289 40.1819 163.118 39.6556C162.948 39.1293 162.674 38.6424 162.312 38.2238C161.951 37.8051 161.509 37.4631 161.013 37.218C160.517 36.9728 159.977 36.8294 159.425 36.7963C158.873 36.7632 158.319 36.841 157.798 37.0252C157.276 37.2093 156.797 37.4961 156.388 37.8686C155.979 38.241 155.648 38.6916 155.416 39.1938C155.184 39.696 155.055 40.2395 155.036 40.7924C155.036 40.7924 154.93 41.6776 154.842 42.9169C145.37 42.4743 130.941 41.8901 127.312 41.6776C127.197 41.0491 127.099 40.5888 127.055 40.3852C127.059 40.3499 127.059 40.3143 127.055 40.279C126.965 39.6059 126.738 38.9585 126.388 38.3768C126.038 37.7952 125.572 37.2916 125.019 36.8975C123.937 36.1206 122.592 35.8045 121.277 36.0186C119.963 36.2326 118.787 36.9594 118.008 38.0394C117.334 38.9634 117.006 40.0939 117.079 41.235C111.449 40.9871 107.554 40.8278 106.58 40.7924C103.154 40.6773 85.2641 39.2167 86.2643 39.3052C85.2552 37.6765 76.0313 22.1941 67.8342 9.80115C62.1158 1.15264 47.7134 -0.272553 45.0578 1.22345C41.2513 3.33911 40.313 11.6247 43.6768 17.2015C49.8113 27.408 56.955 39.4557 56.955 39.4557L57.6278 44.6696C57.2471 44.8909 47.3947 50.512 36.0021 57.0626C34.506 55.4692 33.134 54.2565 33.134 54.2565C32.6669 53.7018 32.0842 53.2559 31.4266 52.9501C30.7691 52.6443 30.0527 52.4859 29.3275 52.486C28.3199 52.4859 27.3352 52.7874 26.5005 53.3518C25.6657 53.9162 25.019 54.7177 24.6438 55.6529C24.2686 56.5881 24.182 57.6142 24.3951 58.5991C24.6083 59.584 25.1115 60.4825 25.8398 61.1788L26.849 62.2676L16.8815 67.9861C15.6327 66.8227 14.3206 65.7293 12.9511 64.7108V64.7108C12.5188 64.2995 12.0067 63.9813 11.4465 63.7757C10.8863 63.5702 10.29 63.4817 9.69422 63.5158C9.09848 63.5498 8.51605 63.7057 7.98293 63.9737C7.44981 64.2417 6.97732 64.6163 6.59466 65.0741C6.212 65.532 5.9273 66.0634 5.75815 66.6357C5.58901 67.2079 5.53901 67.8088 5.61125 68.4011C5.68349 68.9934 5.87644 69.5646 6.17816 70.0794C6.47988 70.5942 6.88397 71.0417 7.36546 71.3941V71.3941C7.36546 71.3941 7.95855 71.9341 8.7995 72.6511L1.8506 76.67C-1.93811 78.8919 3.02793 82.3088 3.02793 82.3088C3.02793 82.3088 46.9521 70.8011 72.4816 67.6143C72.9508 68.0923 73.4288 68.5526 73.9157 68.9864C78.2089 72.8459 81.5727 74.5986 84.2815 75.3068C84.2815 75.3068 85.1047 75.8999 86.4768 76.7143L70.782 82.5832L71.8088 85.0618L93.2221 79.9984C95.9179 81.0855 98.7957 81.6502 101.702 81.6626C102.213 80.5529 102.47 79.3433 102.455 78.1218L134.066 75.8822L131.853 73.1203L102.145 72.5626C101.701 69.398 100.668 66.3445 99.0999 63.56C113.113 60.6388 133.464 56.5492 159.046 53.7165C170.439 52.4418 182.744 51.4061 196.031 50.9015C196.031 50.9015 197.712 45.3424 193.331 44.8378Z" fill="url(#paint0_linear)"/>
<defs>
<linearGradient id="paint0_linear" x1="0.443113" y1="42.8903" x2="196.349" y2="42.8903" gradientUnits="userSpaceOnUse">
<stop stop-color="#D6D7D8"/>
<stop offset="0.32" stop-color="#B0C4D1"/>
<stop offset="0.77" stop-color="#7FABC8"/>
<stop offset="1" stop-color="#6CA1C4"/>
</linearGradient>
</defs>
</svg>
