<svg width="52" height="58" viewBox="0 0 52 58" fill="none" xmlns="http://www.w3.org/2000/svg">
<path d="M41.2356 22.4796H40.5096V11.0305H17.2773V10.3044H41.2356V22.4796Z" fill="#404040"/>
<path d="M41.2356 47.5777H17.2773V46.8517H40.5096V36.0269H41.2356V47.5777Z" fill="#404040"/>
<path d="M51.6246 39.5263H46.5498V38.8003H50.8986V19.0892H46.5498V18.3632H51.6246V39.5263Z" fill="#404040"/>
<path d="M40.3569 39.5263H30.4614V18.3632H40.3569V19.0892H31.1874V38.8003H40.3569V39.5263Z" fill="#404040"/>
<path d="M21.517 21.2527H11.6724V20.5267H20.791V11.1394H21.517V21.2527Z" fill="#404040"/>
<path d="M5.87166 21.2526H0.354004V0.0895081H21.5171V5.29498H20.7911V0.815516H1.08001V20.5266H5.87166V21.2526Z" fill="#404040"/>
<path d="M21.5172 41.7479H20.7911V37.537H12.1008V36.811H21.5172V41.7479Z" fill="#404040"/>
<path d="M21.5171 57.9814H0.354004V36.811H5.63208V37.537H1.08001V57.2554H20.7911V47.7084H21.5171V57.9814Z" fill="#404040"/>
<path d="M11.6218 17.3322H10.8958V41.7696H11.6218V17.3322Z" fill="#404040"/>
</svg>
