<svg width="402" height="279" viewBox="0 0 402 279" fill="none" xmlns="http://www.w3.org/2000/svg">
<path d="M7.07739 278.978H398.959L391.882 271.9H-9.15527e-05L7.07739 278.978Z" fill="url(#paint0_linear)"/>
<rect width="178" height="8" transform="matrix(-1 0 0 1 281 117)" fill="#5694B6"/>
<rect width="8" height="151" transform="matrix(-1 0 0 1 265 125)" fill="#5694B6"/>
<rect width="8" height="151" transform="matrix(-1 0 0 1 122 125)" fill="#5694B6"/>
<path d="M214.893 266.679C214.996 267.666 214.925 268.663 214.683 269.625L196.019 273.274C192.538 266.406 186.971 256.875 183.437 255.69L189.718 274.396L186.237 275.077C186.237 275.077 180.124 256.98 177.345 252.377C174.724 248.015 172.365 241.452 177.66 236.303C177.712 243.329 197.141 259.947 200.381 263.701C200.769 263.911 201.168 264.1 201.587 264.278C207.081 266.605 214.893 266.679 214.893 266.679Z" fill="#003366"/>
<path d="M203.076 117.192H195.086V116.794L192.14 111.709L187.285 107.714H190.431L196.932 110.104C196.932 110.104 203.076 112.747 203.076 117.192Z" fill="url(#paint1_linear)"/>
<path d="M201.587 110.104H196.942L190.441 107.714H187.285L192.14 111.709L195.086 116.794V117.192H167.919V116.794L169.01 108.542L169.167 108.563L173.508 108.825L184.496 104.348H191.93L197.865 107.714L201.587 110.104Z" fill="#F9E2B8"/>
<path d="M201.587 264.236C201.168 264.058 200.769 263.869 200.381 263.659C197.141 259.905 177.713 243.287 177.66 236.261C177.87 229.582 160.307 188.03 160.307 188.03C159.521 173.508 158.21 159.647 154.624 151.07C153.838 149.203 148.04 146.341 148.04 146.341L139.872 145.429C141.813 144.065 144.004 143.1 146.32 142.587L163.295 144.538C163.295 144.538 169.272 147.442 170.184 149.34C175.081 159.542 179.401 200.14 187.139 230.883C190.924 246.086 196.942 253.226 201.587 264.236Z" fill="#F9E2B8"/>
<path d="M182.861 272.928C182.75 273.917 182.466 274.879 182.022 275.769L163.012 275.382C161.062 267.927 157.644 257.431 154.467 255.554L156.648 275.098L153.104 275.035C153.104 275.035 150.944 256.047 149.214 250.92C147.568 246.107 146.645 239.187 152.915 235.286C151.479 242.165 166.955 262.548 169.324 266.868C174.032 270.936 182.861 272.928 182.861 272.928Z" fill="#003366"/>
<path d="M152.296 105.795L169.167 107.431L169.009 108.542L167.961 116.794V117.192H109.936L104.641 111.363L102.135 107.022L98.2453 109.8L94.7643 110.713L96.704 112.81L93.9988 114.676L96.7354 115.724C97.9936 117.821 103.173 137.67 103.173 137.67C90.2347 134.115 42.6322 142.912 42.6322 142.912C45.4527 126.136 58.3599 110.744 63.3089 101.37C67.5029 93.3491 75.0941 76.2059 80.7246 66.3499C86.3552 56.4939 98.2977 46.8161 98.2977 46.8161L101.527 53.5161H107.147L104.306 58.6014L122.686 73.0814C122.686 73.0814 126.094 86.712 125.779 90.4972C125.465 94.2823 121.449 98.5393 121.449 98.5393L122.885 101.391L122.602 103.268H125.748L152.296 105.795Z" fill="url(#paint2_linear)"/>
<path d="M166.588 243.989C168.485 253.793 168.863 263.219 169.293 266.93C166.923 262.569 151.468 242.228 152.883 235.349C153.513 228.765 145.544 200.801 141.57 189.98C138.76 182.347 139.043 172.9 139.043 172.9H128.558C128.275 156.564 134.629 148.941 139.871 145.429L148.081 146.362C148.081 146.362 153.88 149.224 154.666 151.091C158.304 159.668 159.563 173.529 160.349 188.051C160.936 198.924 161.261 210.164 162.121 219.831C162.981 229.499 165.717 239.491 166.588 243.989Z" fill="#F9E2B8"/>
<path d="M150.357 70.2399C150.357 70.2399 152.265 98.2352 152.254 105.795L125.737 103.216H122.592L122.885 101.391L121.449 98.5603C121.449 98.5603 125.465 94.2718 125.779 90.5182C126.094 86.7645 122.686 73.0814 122.686 73.0814L137.774 100.018C137.774 100.018 139.714 82.0986 139.871 70.2399H150.357Z" fill="url(#paint3_linear)"/>
<path d="M149.581 57.144L148.092 62.5858L149.025 70.2399H140.05L139.955 65.8047L134.555 62.051L136.202 56.8714L132.899 53.9775L134.576 51.1884C136.862 51.5659 138.278 48.8817 139.022 46.7847L149.581 57.144Z" fill="#F9E2B8"/>
<path d="M145.491 9.31079L147.137 23.7383L143.352 21.7147L130.078 14.6058L131.483 18.8942L122.151 23.7383L121.533 28.9809L117.087 26.8839C117.087 18.7369 108.206 19.8903 108.993 26.8839C109.04 27.9161 109.347 28.9197 109.886 29.8014C110.425 30.683 111.178 31.4143 112.075 31.9272L111.991 32.0531C110.126 35.6137 107.472 38.7014 104.232 41.0807L87.865 22.5011L102.544 8.00015L125.737 0L145.491 9.31079Z" fill="url(#paint4_linear)"/>
<path d="M139.871 145.429C134.692 148.92 128.338 156.543 128.558 172.858H121.606V139.777L146.32 142.608C144.005 143.114 141.814 144.073 139.871 145.429Z" fill="url(#paint5_linear)"/>
<path d="M141.727 30.0924L143.981 37.4319L140.008 38.5643L139.683 44.3836C139.511 45.176 139.291 45.9569 139.022 46.7218C138.278 48.8188 136.862 51.503 134.576 51.1255C131.553 50.4138 128.609 49.3986 125.79 48.0953C121.722 46.2919 117.842 44.0061 117.402 42.1293C116.796 39.0122 116.382 35.8607 116.164 32.6927C114.754 32.7662 113.35 32.4622 112.096 31.8119C111.199 31.299 110.446 30.5677 109.907 29.686C109.368 28.8044 109.061 27.8008 109.014 26.7686C108.227 19.7645 117.108 18.6111 117.108 26.7686L121.554 28.8656L122.172 23.623L131.504 18.7789L130.068 14.4905L143.352 21.7042L141.727 30.0924ZM134.388 34.3808C139.829 34.3808 139.2 26.8944 139.2 26.8944L131.714 25.5628C131.714 25.5628 127.939 34.4227 134.388 34.4227V34.3808Z" fill="#F9E2B8"/>
<path d="M139.2 26.9468C139.2 26.9468 139.829 34.4332 134.388 34.4332C127.939 34.4332 131.714 25.6152 131.714 25.6152L139.2 26.9468Z" fill="url(#paint6_linear)"/>
<path d="M125.79 48.1582V48.2106C125.79 48.2106 118.178 53.7468 117.129 59.587L104.222 41.0598C107.462 38.6804 110.116 35.5927 111.981 32.0321L112.065 31.9062C113.319 32.5565 114.723 32.8606 116.133 32.787C116.351 35.955 116.764 39.1065 117.37 42.2236C117.853 44.069 121.722 46.3548 125.79 48.1582Z" fill="url(#paint7_linear)"/>
<path d="M117.119 59.587L122.686 73.0499L104.264 58.5699L107.105 53.4846H101.485L98.2559 46.7846L104.264 41.0598L117.119 59.587Z" fill="#4278A5"/>
<path d="M113.659 138.876V173.791C101.716 173.686 87.0474 173.456 71.3931 172.942C70.1349 172.942 68.9186 172.837 67.7653 172.743C33.1643 169.849 42.601 142.881 42.601 142.881C42.601 142.881 90.2034 134.115 103.142 137.638L113.659 138.876Z" fill="url(#paint8_linear)"/>
<path d="M172.239 157.654L173.288 157.403C172.963 156.071 172.638 154.844 172.333 153.775L171.285 154.069C171.6 155.128 171.914 156.333 172.239 157.654Z" fill="#DBC197"/>
<path d="M170.404 151.332L171.39 150.975C171.138 150.283 170.876 149.665 170.624 149.13C169.67 147.138 164.124 144.391 163.495 144.087L163.316 144.034L146.341 142.095L146.226 143.143L163.107 145.083C164.784 145.901 169.01 148.228 169.681 149.591C169.922 150.084 170.163 150.671 170.404 151.332Z" fill="#DBC197"/>
<path d="M176.37 232.015L177.419 231.753C177.219 230.987 176.989 230.17 176.716 229.299L175.72 229.603C175.94 230.463 176.171 231.271 176.37 232.015Z" fill="#DBC197"/>
<path d="M173.77 223.805L174.755 223.459C169.754 209.084 160.884 188.072 160.789 187.862L159.825 188.271C159.919 188.481 168.779 209.461 173.77 223.805Z" fill="#DBC197"/>
<path d="M165.036 239.355L166.084 239.124V238.967C165.875 238.086 165.665 237.142 165.434 236.146L164.386 236.377C164.606 237.373 164.826 238.317 165.025 239.208L165.036 239.355Z" fill="#DBC197"/>
<path d="M163.295 231.407L164.344 231.197C163.57 227.442 162.996 223.648 162.624 219.831C162.037 213.226 161.702 206.043 161.355 198.431C161.198 194.982 161.041 191.5 160.852 188.061C160.097 174.001 158.881 159.751 155.127 150.933C154.289 148.941 148.899 146.236 148.291 145.932L148.123 145.88L139.903 144.946L139.788 145.995L147.914 146.918C150.094 147.966 153.649 150.126 154.205 151.342C157.885 160.035 159.091 174.158 159.846 188.114C160.034 191.553 160.192 195.034 160.349 198.484C160.705 206.096 161.03 213.299 161.618 219.926C161.971 223.78 162.531 227.613 163.295 231.407Z" fill="#DBC197"/>
<path d="M146.561 207.48L147.609 207.186C147.242 205.897 146.865 204.617 146.498 203.37L145.449 203.674C145.816 204.911 146.162 206.243 146.561 207.48Z" fill="#DBC197"/>
<path d="M144.527 200.602L145.575 200.287C144.306 196.156 143.069 192.423 142.105 189.802C139.368 182.347 139.609 173.026 139.609 172.921V172.376H128.537V173.424H138.54C138.54 175.521 138.676 183.563 141.098 190.2C142.042 192.769 143.268 196.481 144.527 200.602Z" fill="#DBC197"/>
<path d="M30.5115 190.515C33.6027 190.488 36.6873 190.225 39.7384 189.728C45.4528 188.848 50.4962 188.019 54.9419 187.285C63.2041 185.922 69.5476 184.895 76.0275 184.14C84.2652 183.186 92.5531 182.731 100.846 182.777C113.428 182.777 114.193 173.948 114.193 173.864L113.145 173.791C113.145 174.116 112.442 181.728 100.846 181.728C92.5153 181.666 84.1887 182.111 75.9121 183.06C69.4113 183.815 63.0469 184.842 54.7741 186.205C50.3284 186.939 45.3375 187.768 39.5707 188.648C27.7644 190.473 19.8481 189.078 16.0211 184.454C10.2333 177.524 14.658 164.69 17.5833 156.207C17.8245 155.515 18.0552 154.855 18.2649 154.236C26.2126 130.739 22.7945 114.582 18.0552 92.2167L17.6567 90.298C17.3212 88.7042 16.7026 86.5233 15.9896 84.0069C13.7248 75.9962 10.6212 65.0288 12.1206 58.3078C13.1691 53.8202 15.8847 48.976 19.7852 48.2735C23.13 47.6654 26.8207 50.3706 30.4591 55.9277C52.74 90.277 29.4106 145.481 26.674 151.667C24.1995 157.256 23.8744 161.985 25.7093 165.738C26.5236 167.276 27.6412 168.633 28.9946 169.727C30.3481 170.821 31.9092 171.629 33.5836 172.103H33.6885C33.8982 172.103 54.1555 172.963 67.7652 173.204V172.155C54.5434 171.925 34.9991 171.107 33.7829 171.054C30.7437 170.164 28.1757 168.116 26.632 165.351C24.9544 161.89 25.2794 157.455 27.6176 152.171C30.3752 145.943 53.9143 90.3084 31.3294 55.4454C26.4223 47.8751 22.2282 46.8476 19.586 47.3194C15.2137 48.1058 12.1625 53.3379 11.093 58.161C9.53075 65.1441 12.6763 76.2584 14.9725 84.3739C15.675 86.8798 16.2832 89.0397 16.6187 90.602L17.0276 92.5208C21.725 114.718 25.1221 130.76 17.2583 153.985C17.0486 154.603 16.8284 155.264 16.5873 155.945C13.578 164.659 9.03793 177.828 15.2137 185.209C18.16 188.701 23.2873 190.515 30.5115 190.515Z" fill="#404040"/>
<path d="M23.3189 260.461H107.2V253.122L74.3291 242.542V234.552H56.5043V242.427L23.3398 253.101L23.3189 260.461ZM106.151 259.413H24.3674V253.866L56.7979 243.381H57.5319V235.601H73.2596V243.276L106.13 253.866L106.151 259.413Z" fill="#404040"/>
<path d="M98.2874 276.294C99.6484 276.261 100.97 275.827 102.085 275.047C103.201 274.267 104.062 273.175 104.56 271.908C105.058 270.641 105.171 269.255 104.886 267.924C104.6 266.592 103.928 265.375 102.954 264.424C101.98 263.473 100.747 262.83 99.4091 262.577C98.0715 262.323 96.6888 262.469 95.4341 262.998C94.1793 263.526 93.1083 264.413 92.355 265.547C91.6018 266.681 91.1998 268.012 91.1994 269.374C91.2103 270.293 91.4024 271.202 91.7645 272.048C92.1267 272.893 92.6518 273.659 93.31 274.302C93.9682 274.944 94.7466 275.451 95.6006 275.793C96.4546 276.135 97.3675 276.305 98.2874 276.294ZM98.2874 263.512C99.4414 263.545 100.56 263.918 101.504 264.583C102.447 265.249 103.173 266.177 103.592 267.253C104.01 268.329 104.102 269.505 103.856 270.633C103.61 271.761 103.037 272.791 102.209 273.595C101.38 274.399 100.333 274.941 99.1983 275.153C98.0635 275.365 96.8913 275.238 95.8283 274.788C94.7653 274.337 93.8587 273.583 93.2219 272.62C92.5851 271.657 92.2463 270.528 92.2479 269.374C92.2728 267.796 92.9227 266.292 94.0551 265.193C95.1874 264.095 96.7096 263.49 98.2874 263.512Z" fill="#404040"/>
<path d="M32.1995 276.294C33.5605 276.261 34.8816 275.827 35.9973 275.047C37.1131 274.267 37.9739 273.175 38.472 271.908C38.9702 270.641 39.0835 269.255 38.7979 267.924C38.5122 266.592 37.8402 265.375 36.8661 264.424C35.8919 263.473 34.6589 262.83 33.3213 262.577C31.9836 262.323 30.6009 262.469 29.3462 262.998C28.0914 263.526 27.0204 264.413 26.2671 265.547C25.5139 266.681 25.1119 268.012 25.1115 269.374C25.1225 270.293 25.3145 271.202 25.6766 272.048C26.0388 272.893 26.5639 273.659 27.2221 274.302C27.8803 274.944 28.6586 275.451 29.5126 275.793C30.3667 276.135 31.2797 276.305 32.1995 276.294ZM32.1995 263.512C33.3535 263.545 34.4722 263.918 35.4157 264.583C36.3592 265.249 37.0856 266.177 37.5041 267.253C37.9226 268.329 38.0145 269.505 37.7685 270.633C37.5225 271.761 36.9495 272.791 36.121 273.595C35.2925 274.399 34.2453 274.941 33.1105 275.153C31.9756 275.365 30.8034 275.238 29.7404 274.788C28.6774 274.337 27.7709 273.583 27.134 272.62C26.4972 271.657 26.1584 270.528 26.16 269.374C26.1849 267.796 26.8348 266.292 27.9672 265.193C29.0995 264.095 30.6217 263.49 32.1995 263.512Z" fill="#404040"/>
<path d="M65.2383 276.294C66.5999 276.263 67.922 275.831 69.0392 275.052C70.1563 274.273 71.0188 273.182 71.5185 271.915C72.0182 270.648 72.133 269.262 71.8485 267.93C71.564 266.598 70.8928 265.38 69.9191 264.427C68.9453 263.475 67.7122 262.832 66.3743 262.577C65.0364 262.323 63.6531 262.468 62.3978 262.997C61.1424 263.525 60.0708 264.411 59.3171 265.546C58.5634 266.68 58.1612 268.012 58.1609 269.374C58.1857 271.228 58.9444 272.998 60.2708 274.295C61.5972 275.592 63.3833 276.311 65.2383 276.294ZM65.2383 263.512C66.3929 263.543 67.5127 263.914 68.4576 264.578C69.4025 265.242 70.1305 266.17 70.5506 267.246C70.9706 268.322 71.0641 269.498 70.8192 270.627C70.5744 271.755 70.0021 272.787 69.174 273.592C68.3458 274.397 67.2987 274.94 66.1635 275.153C65.0283 275.366 63.8556 275.239 62.792 274.789C61.7284 274.339 60.8212 273.585 60.184 272.622C59.5467 271.658 59.2077 270.529 59.2094 269.374C59.2342 267.798 59.8827 266.296 61.0128 265.197C62.1429 264.099 63.6624 263.493 65.2383 263.512Z" fill="#404040"/>
<path d="M117.632 59.6814C118.681 54.1138 126.021 48.6825 126.083 48.63L125.465 47.7808C125.15 48.0114 117.674 53.5161 116.605 59.4926L117.632 59.6814Z" fill="#DBC197"/>
<path d="M117.449 68.2431L119.437 69.8037L118.789 70.6284L116.802 69.0678L117.449 68.2431Z" fill="#003366"/>
<path d="M104.591 58.1342L114.761 66.132L114.113 66.9563L103.943 58.9584L104.591 58.1342Z" fill="#003366"/>
<path d="M101.496 52.9604H107.105V54.0089H101.496V52.9604Z" fill="#003366"/>
<path d="M124.511 83.8601L125.559 83.6714C125.371 82.6228 125.15 81.5743 124.93 80.4629L123.882 80.6726C124.144 81.7316 124.312 82.8116 124.511 83.8601Z" fill="#003366"/>
<path d="M121.837 98.8748C122.005 98.6861 125.968 94.4081 126.304 90.4867C126.341 89.1168 126.24 87.7467 126 86.3975L124.951 86.5443C125.177 87.8175 125.275 89.1101 125.245 90.4028C124.951 93.9363 121.103 98.0884 121.051 98.1304L121.837 98.8748Z" fill="#003366"/>
<path d="M86.5163 78.9109L88.1062 81.6736L87.1974 82.1966L85.6075 79.4339L86.5163 78.9109Z" fill="#003366"/>
<path d="M89.5052 84.1625L90.9644 86.698L90.0556 87.221L88.5964 84.6855L89.5052 84.1625Z" fill="#003366"/>
<path d="M109.507 117.549L110.282 116.846L105.029 111.048L90.9793 86.6806L90.0671 87.2049L104.212 111.719L109.507 117.549Z" fill="#003366"/>
<path d="M168.444 116.857L169.754 106.969L145.229 104.579L145.125 105.627L168.569 107.903L167.405 116.72L168.444 116.857Z" fill="#003366"/>
<path d="M139.541 104.035L141.294 104.207L141.192 105.25L139.439 105.079L139.541 104.035Z" fill="#003366"/>
<path d="M127.3 103.887L127.394 102.849L125.832 102.691H123.211L123.431 101.255L114.141 82.9584L113.208 83.4302L122.34 101.433L121.994 103.74H125.78L127.3 103.887Z" fill="#003366"/>
<path d="M111.925 78.5483L112.821 80.3163L111.885 80.79L110.99 79.0221L111.925 78.5483Z" fill="#003366"/>
<path d="M94.8589 111.216L98.5077 110.22L102.398 107.441L101.79 106.592L97.973 109.318L94.5863 110.199L94.8589 111.216Z" fill="#003366"/>
<path d="M94.2506 115.053L96.9558 113.187L96.3686 112.327L93.653 114.194L94.2506 115.053Z" fill="#003366"/>
<path d="M103.876 138.414L103.645 137.534C103.645 137.46 101.695 130.089 99.9231 123.903L98.8745 124.196C100.29 129.124 101.8 134.828 102.366 136.946C100.489 136.582 98.5843 136.378 96.6727 136.338V137.387C98.7919 137.413 100.902 137.673 102.964 138.163L103.876 138.414Z" fill="#003366"/>
<path d="M90.5388 137.408H92.877V136.359H90.5283L90.5388 137.408Z" fill="#003366"/>
<path d="M55.571 141.245L57.9092 140.889L57.7624 139.851L55.4137 140.218L55.571 141.245Z" fill="#003366"/>
<path d="M41.9508 143.531L42.6847 143.395C42.6847 143.395 46.3336 142.734 51.7334 141.853L51.5656 140.805C47.5813 141.444 44.5616 141.979 43.2404 142.21C44.2423 137.217 45.8956 132.376 48.158 127.814L47.2143 127.352C44.7873 132.227 43.0579 137.419 42.0766 142.776L41.9508 143.531Z" fill="#003366"/>
<path d="M49.7725 124.637C50.2233 123.777 50.6952 122.917 51.167 122.078L50.2443 121.565C49.7725 122.414 49.3006 123.274 48.8393 124.144L49.7725 124.637Z" fill="#003366"/>
<path d="M113.659 174.315V173.267C98.9795 173.141 84.7302 172.858 71.4141 172.418C70.051 172.418 68.8662 172.313 67.8072 172.218C59.4191 171.516 52.9917 169.324 48.6299 165.707L47.9588 166.514C52.4884 170.268 59.136 172.543 67.7128 173.256C68.7613 173.351 69.9986 173.424 71.3826 173.466C84.7197 173.906 98.9795 174.19 113.659 174.315Z" fill="#003366"/>
<path d="M45.5996 164.187L46.3965 163.505C45.4574 162.421 44.6578 161.223 44.0163 159.94L43.0727 160.412C43.7572 161.769 44.6058 163.037 45.5996 164.187Z" fill="#003366"/>
<path d="M42.1499 158.242L43.1355 157.885C40.5352 150.546 43.0621 143.133 43.1355 143.059L42.1394 142.713C40.5361 147.766 40.5397 153.191 42.1499 158.242Z" fill="#003366"/>
<path d="M139.871 141.334L146.32 142.069L146.201 143.11L139.753 142.376L139.871 141.334Z" fill="#003366"/>
<path d="M126.723 140.899L126.838 139.861L121.522 139.243L121.376 140.281L121.491 140.302L126.723 140.899Z" fill="#003366"/>
<path d="M130.528 143.873L139.894 144.94L139.775 145.982L130.41 144.915L130.528 143.873Z" fill="#003366"/>
<path d="M196.848 110.629H201.587V109.58H197.037L190.441 107.19H187.285V108.238H190.347L196.848 110.629Z" fill="#DBC197"/>
<path d="M140.029 80.5782C140.092 79.7185 140.144 78.8482 140.197 77.9884L139.148 77.9255L138.991 80.5153L140.029 80.5782Z" fill="#003366"/>
<path d="M148.511 70.3028L149.549 70.177L148.627 62.6277L150.084 57.2803L149.067 57.0077L147.568 62.5543L148.511 70.3028Z" fill="#DBC197"/>
<path d="M139.525 70.2504L140.574 70.2294L140.469 65.5216L134.86 61.6212L134.262 62.4914L139.431 66.0878L139.525 70.2504Z" fill="#DBC197"/>
<path d="M133.25 53.608L136.544 56.4995L135.852 57.2875L132.559 54.396L133.25 53.608Z" fill="#DBC197"/>
<path d="M192.245 117.15L193.021 116.437L189.141 112.212L185.062 110.104L184.58 111.027L188.585 113.103L192.245 117.15Z" fill="#DBC197"/>
<path d="M139.693 61.1703L142.461 54.292L144.454 52.5725L143.772 51.7756L141.581 53.6629L138.718 60.7823L139.693 61.1703Z" fill="#DBC197"/>
<path d="M54.3337 195.286H76.4888V183.574H75.4403V194.237H55.3822V186.719H54.3337V195.286Z" fill="#404040"/>
<path d="M60.3941 194.761H61.4426V216.833H60.3941V194.761Z" fill="#404040"/>
<path d="M69.7679 194.761H70.8164V216.833H69.7679V194.761Z" fill="#404040"/>
<path d="M57.9512 235.077H58.9997V217.367H71.5819V235.077H72.6304V216.319H57.9512V235.077Z" fill="#404040"/>
<path d="M102.104 125.654H113.669V124.605H103.153V117.717H280.205V124.605H265.179V125.654H281.253V116.668H102.104V125.654Z" fill="#404040"/>
<path d="M121.564 124.605H257.284V125.654H121.564V124.605Z" fill="#404040"/>
<path d="M256.76 276.294H265.693V124.605H256.749L256.76 276.294ZM264.655 275.245H257.808V125.654H264.645L264.655 275.245Z" fill="#404040"/>
<path d="M113.145 276.294H122.047V124.605H113.103L113.145 276.294ZM121.04 275.245H114.193V125.654H120.998L121.04 275.245Z" fill="#404040"/>
<path d="M261.772 117.423H262.82V114.183H212.628V117.308H213.676V115.232H261.772V117.423Z" fill="#404040"/>
<path d="M121.942 174.315H129.04V172.879C128.799 156.9 134.933 149.382 140.123 145.88C141.998 144.556 144.119 143.622 146.362 143.133L146.288 142.084C143.862 142.592 141.565 143.587 139.536 145.009C134.136 148.658 127.74 156.449 128.002 172.889V173.267H121.952L121.942 174.315Z" fill="#003366"/>
<path d="M196.418 99.0321H281.253V23.1512L196.418 33.2379V99.0321ZM280.205 97.9836H197.466V34.1711L280.205 24.3255V97.9836Z" fill="#404040"/>
<path d="M229.519 98.5078H230.568V114.697H229.519V98.5078Z" fill="#404040"/>
<path d="M244.88 98.5078H245.928V114.697H244.88V98.5078Z" fill="#404040"/>
<path d="M106.934 8.70978L107.276 9.70099L104.451 10.6754L104.109 9.68414L106.934 8.70978Z" fill="white"/>
<path d="M125.619 2.26007L125.96 3.25134L110.655 8.52732L110.314 7.53605L125.619 2.26007Z" fill="white"/>
<path d="M119.111 45.0336L119.75 44.2053C118.408 43.1568 118.01 42.4857 117.916 42.1083L116.867 42.3494C117.298 43.4676 118.087 44.4115 119.111 45.0336Z" fill="#DBC197"/>
<path d="M135.017 51.7441C136.852 51.7441 138.393 50.1085 139.515 46.9629C139.704 46.4282 139.871 45.9144 140.018 45.3168L138.97 45.0546C138.833 45.5789 138.676 46.1031 138.498 46.6064C137.774 48.6301 136.527 50.9787 134.629 50.6747C131.651 49.9653 128.75 48.9644 125.968 47.6864C124.535 47.0601 123.135 46.3602 121.774 45.5894L121.25 46.4911C122.658 47.3051 124.111 48.0402 125.601 48.693C128.459 50.0163 131.446 51.0422 134.513 51.7546C134.681 51.7651 134.849 51.7616 135.017 51.7441Z" fill="#DBC197"/>
<path d="M143.839 36.9855L144.127 37.9937L140.155 39.1283L139.867 38.1201L143.839 36.9855Z" fill="#DBC197"/>
<path d="M260.891 29.6205L200.014 36.7924V87.6243L277.405 86.3975V27.6703L271.69 28.3413L260.891 29.6205Z" fill="url(#paint9_linear)"/>
<path d="M241.067 56.584L241.808 57.3254L216.533 82.6001L215.792 81.8587L241.067 56.584Z" fill="#404040"/>
<path d="M222.584 65.5546L223.326 66.2962L205.729 83.8868L204.988 83.1452L222.584 65.5546Z" fill="#404040"/>
<path d="M228.528 59.5712L229.27 60.3126L226.237 63.345L225.496 62.6036L228.528 59.5712Z" fill="#404040"/>
<path d="M152.821 105.795C152.821 98.2981 150.944 70.4811 150.923 70.198V69.7156H139.567L139.483 70.2294C139.483 71.8546 139.389 73.721 139.295 75.7656L140.343 75.818C140.427 73.9726 140.49 72.274 140.521 70.7642H149.958C150.21 74.5283 151.824 98.8853 151.814 105.795H152.821Z" fill="#003366"/>
<path d="M328.835 276.357H363.74L367.923 237.698H324.651L328.835 276.357ZM362.796 275.308H329.778L325.815 238.746H366.707L362.796 275.308Z" fill="#404040"/>
<path d="M360.58 238.13L361.623 238.242L360.079 252.524L359.036 252.411L360.58 238.13Z" fill="#404040"/>
<path d="M358.607 256.366L359.65 256.479L359.258 260.096L358.216 259.983L358.607 256.366Z" fill="#404040"/>
<path d="M323.057 238.746H369.496V227.024H323.057V238.746ZM368.447 237.698H324.106V228.115H368.447V237.698Z" fill="#404040"/>
<path d="M364.442 227.548H365.49V231.25H364.442V227.548Z" fill="#404040"/>
<path d="M364.442 232.864H365.49V235.003H364.442V232.864Z" fill="#404040"/>
<defs>
<linearGradient id="paint0_linear" x1="395.415" y1="275.434" x2="199.474" y2="471.375" gradientUnits="userSpaceOnUse">
<stop stop-color="#4278A5"/>
<stop offset="1" stop-color="#4278A5"/>
</linearGradient>
<linearGradient id="paint1_linear" x1="187.296" y1="112.453" x2="203.086" y2="112.453" gradientUnits="userSpaceOnUse">
<stop stop-color="#F43B56"/>
<stop offset="0.48" stop-color="#F23A53"/>
<stop offset="0.77" stop-color="#EB354B"/>
<stop offset="1" stop-color="#E02D3E"/>
</linearGradient>
<linearGradient id="paint2_linear" x1="42.6007" y1="94.838" x2="169.167" y2="94.838" gradientUnits="userSpaceOnUse">
<stop stop-color="#336699"/>
<stop offset="1" stop-color="#285B84"/>
</linearGradient>
<linearGradient id="paint3_linear" x1="89970.9" y1="5378.26" x2="89970.9" y2="6583.93" gradientUnits="userSpaceOnUse">
<stop stop-color="#336699"/>
<stop offset="1" stop-color="#285B84"/>
</linearGradient>
<linearGradient id="paint4_linear" x1="117.517" y1="-0.0209703" x2="117.517" y2="41.0598" gradientUnits="userSpaceOnUse">
<stop stop-color="#003366"/>
<stop offset="0.34" stop-color="#01315F"/>
<stop offset="0.85" stop-color="#032C4B"/>
<stop offset="1" stop-color="#042A44"/>
</linearGradient>
<linearGradient id="paint5_linear" x1="121.564" y1="156.333" x2="146.278" y2="156.333" gradientUnits="userSpaceOnUse">
<stop stop-color="#003366"/>
<stop offset="0.24" stop-color="#0D4070"/>
<stop offset="0.69" stop-color="#21547F"/>
<stop offset="1" stop-color="#285B84"/>
</linearGradient>
<linearGradient id="paint6_linear" x1="134.922" y1="34.4227" x2="134.922" y2="25.6047" gradientUnits="userSpaceOnUse">
<stop stop-color="#F9E2B8"/>
<stop offset="0.32" stop-color="#F8E0B5"/>
<stop offset="0.55" stop-color="#F3D9AC"/>
<stop offset="0.75" stop-color="#EBCD9C"/>
<stop offset="0.94" stop-color="#DFBD86"/>
<stop offset="1" stop-color="#DBB77D"/>
</linearGradient>
<linearGradient id="paint7_linear" x1="63460.2" y1="3883.13" x2="63460.2" y2="3152.36" gradientUnits="userSpaceOnUse">
<stop stop-color="#F9E2B8"/>
<stop offset="0.32" stop-color="#F8E0B5"/>
<stop offset="0.55" stop-color="#F3D9AC"/>
<stop offset="0.75" stop-color="#EBCD9C"/>
<stop offset="0.94" stop-color="#DFBD86"/>
<stop offset="1" stop-color="#DBB77D"/>
</linearGradient>
<linearGradient id="paint8_linear" x1="41.4371" y1="155.306" x2="113.68" y2="155.306" gradientUnits="userSpaceOnUse">
<stop stop-color="#285B84"/>
<stop offset="0.31" stop-color="#21547F"/>
<stop offset="0.76" stop-color="#0D4070"/>
<stop offset="1" stop-color="#003366"/>
</linearGradient>
<linearGradient id="paint9_linear" x1="238.715" y1="87.6243" x2="238.715" y2="27.6703" gradientUnits="userSpaceOnUse">
<stop stop-color="white"/>
<stop offset="0.44" stop-color="#B0CDDF"/>
<stop offset="0.75" stop-color="#7FADCC"/>
<stop offset="0.9" stop-color="#6CA1C4"/>
</linearGradient>
</defs>
</svg>
